<svg width="358" height="307" viewBox="0 0 358 307" fill="none" xmlns="http://www.w3.org/2000/svg">
<g opacity="0.5" filter="url(#filter0_f_177_4304)">
<rect x="73.3999" y="40" width="211.2" height="211.2" rx="96" fill="#EFF6FF"/>
</g>
<path d="M141.667 206.933C138.733 206.933 136.222 205.889 134.133 203.8C132.045 201.711 131 199.2 131 196.267V136.133C129.4 135.155 128.111 133.889 127.133 132.333C126.156 130.778 125.667 128.978 125.667 126.933V110.933C125.667 108 126.711 105.489 128.8 103.4C130.889 101.311 133.4 100.267 136.333 100.267H221.667C224.6 100.267 227.111 101.311 229.2 103.4C231.289 105.489 232.333 108 232.333 110.933V126.933C232.333 128.978 231.845 130.778 230.867 132.333C229.889 133.889 228.6 135.155 227 136.133V196.267C227 199.2 225.956 201.711 223.867 203.8C221.778 205.889 219.267 206.933 216.333 206.933H141.667ZM136.333 126.933H221.667V110.933H136.333V126.933ZM163 164.267H195V153.6H163V164.267Z" fill="#DBEAFE"/>
<rect x="208.5" y="176.35" width="50" height="48.75" rx="15.5" fill="white"/>
<rect x="208.5" y="176.35" width="50" height="48.75" rx="15.5" stroke="#F8FAFC"/>
<g filter="url(#filter1_dd_177_4304)">
<rect x="208" y="175.85" width="51" height="50" rx="16" fill="white" fill-opacity="0.01" shape-rendering="crispEdges"/>
</g>
<path d="M227.25 212.6C225.521 212.6 224.047 211.99 222.828 210.771C221.609 209.553 221 208.079 221 206.35C221 204.62 221.609 203.146 222.828 201.928C224.047 200.709 225.521 200.1 227.25 200.1C228.979 200.1 230.453 200.709 231.672 201.928C232.891 203.146 233.5 204.62 233.5 206.35C233.5 208.079 232.891 209.553 231.672 210.771C230.453 211.99 228.979 212.6 227.25 212.6ZM244.25 211.35L236.25 203.35C236 203.079 235.734 202.803 235.453 202.521C235.172 202.24 234.896 201.975 234.625 201.725C235.417 201.225 236.052 200.558 236.531 199.725C237.01 198.891 237.25 197.975 237.25 196.975C237.25 195.412 236.703 194.084 235.609 192.99C234.516 191.896 233.188 191.35 231.625 191.35C230.062 191.35 228.734 191.896 227.641 192.99C226.547 194.084 226 195.412 226 196.975C226 197.1 226.005 197.219 226.016 197.334C226.026 197.449 226.042 197.568 226.062 197.693C225.688 197.735 225.276 197.818 224.828 197.943C224.38 198.068 223.979 198.214 223.625 198.381C223.583 198.152 223.552 197.923 223.531 197.693C223.51 197.464 223.5 197.225 223.5 196.975C223.5 194.704 224.286 192.782 225.859 191.209C227.432 189.636 229.354 188.85 231.625 188.85C233.896 188.85 235.818 189.636 237.391 191.209C238.964 192.782 239.75 194.704 239.75 196.975C239.75 197.87 239.609 198.719 239.328 199.521C239.047 200.324 238.656 201.058 238.156 201.725L246 209.6L244.25 211.35ZM225.031 209.443L227.25 207.225L229.438 209.443L230.344 208.568L228.125 206.35L230.344 204.131L229.469 203.256L227.25 205.475L225.031 203.256L224.156 204.131L226.375 206.35L224.156 208.568L225.031 209.443Z" fill="#2563EB"/>
<path d="M132.352 266.6V255.326H133.938L140.156 264.131L138.961 263.514H139.844V255.326H141.555V266.6H139.969L133.742 257.803L134.945 258.42H134.055V266.6H132.352ZM147.781 266.764C146.953 266.764 146.237 266.587 145.633 266.232C145.034 265.878 144.573 265.373 144.25 264.717C143.927 264.055 143.766 263.271 143.766 262.365V262.35C143.766 261.438 143.927 260.654 144.25 259.998C144.578 259.342 145.042 258.837 145.641 258.482C146.245 258.128 146.958 257.951 147.781 257.951C148.609 257.951 149.323 258.128 149.922 258.482C150.521 258.831 150.982 259.337 151.305 259.998C151.633 260.654 151.797 261.438 151.797 262.35V262.365C151.797 263.271 151.633 264.055 151.305 264.717C150.982 265.373 150.521 265.878 149.922 266.232C149.328 266.587 148.615 266.764 147.781 266.764ZM147.781 265.342C148.266 265.342 148.677 265.225 149.016 264.99C149.354 264.751 149.612 264.41 149.789 263.967C149.966 263.524 150.055 262.99 150.055 262.365V262.35C150.055 261.719 149.966 261.183 149.789 260.74C149.612 260.298 149.354 259.959 149.016 259.725C148.677 259.485 148.266 259.365 147.781 259.365C147.297 259.365 146.885 259.485 146.547 259.725C146.208 259.959 145.948 260.298 145.766 260.74C145.589 261.183 145.5 261.719 145.5 262.35V262.365C145.5 262.99 145.589 263.524 145.766 263.967C145.948 264.41 146.208 264.751 146.547 264.99C146.885 265.225 147.297 265.342 147.781 265.342ZM158.25 266.6V254.787H159.945V266.6H158.25ZM166.062 266.764C165.234 266.764 164.518 266.587 163.914 266.232C163.315 265.878 162.854 265.373 162.531 264.717C162.208 264.055 162.047 263.271 162.047 262.365V262.35C162.047 261.438 162.208 260.654 162.531 259.998C162.859 259.342 163.323 258.837 163.922 258.482C164.526 258.128 165.24 257.951 166.062 257.951C166.891 257.951 167.604 258.128 168.203 258.482C168.802 258.831 169.263 259.337 169.586 259.998C169.914 260.654 170.078 261.438 170.078 262.35V262.365C170.078 263.271 169.914 264.055 169.586 264.717C169.263 265.373 168.802 265.878 168.203 266.232C167.609 266.587 166.896 266.764 166.062 266.764ZM166.062 265.342C166.547 265.342 166.958 265.225 167.297 264.99C167.635 264.751 167.893 264.41 168.07 263.967C168.247 263.524 168.336 262.99 168.336 262.365V262.35C168.336 261.719 168.247 261.183 168.07 260.74C167.893 260.298 167.635 259.959 167.297 259.725C166.958 259.485 166.547 259.365 166.062 259.365C165.578 259.365 165.167 259.485 164.828 259.725C164.49 259.959 164.229 260.298 164.047 260.74C163.87 261.183 163.781 261.719 163.781 262.35V262.365C163.781 262.99 163.87 263.524 164.047 263.967C164.229 264.41 164.49 264.751 164.828 264.99C165.167 265.225 165.578 265.342 166.062 265.342ZM174.422 266.74C173.885 266.74 173.404 266.639 172.977 266.436C172.555 266.227 172.221 265.933 171.977 265.553C171.732 265.173 171.609 264.727 171.609 264.217V264.201C171.609 263.691 171.732 263.256 171.977 262.896C172.227 262.537 172.586 262.256 173.055 262.053C173.529 261.844 174.102 261.719 174.773 261.678L177.906 261.49V262.686L175.008 262.873C174.424 262.91 173.995 263.035 173.719 263.248C173.443 263.456 173.305 263.751 173.305 264.131V264.146C173.305 264.532 173.453 264.837 173.75 265.061C174.047 265.279 174.422 265.389 174.875 265.389C175.297 265.389 175.672 265.305 176 265.139C176.333 264.967 176.594 264.738 176.781 264.451C176.969 264.16 177.062 263.831 177.062 263.467V260.795C177.062 260.326 176.917 259.969 176.625 259.725C176.339 259.475 175.911 259.35 175.344 259.35C174.87 259.35 174.482 259.433 174.18 259.6C173.883 259.766 173.685 260.001 173.586 260.303L173.57 260.326H171.938L171.945 260.271C172.013 259.803 172.198 259.396 172.5 259.053C172.807 258.704 173.208 258.433 173.703 258.24C174.203 258.048 174.773 257.951 175.414 257.951C176.128 257.951 176.732 258.066 177.227 258.295C177.727 258.519 178.104 258.844 178.359 259.271C178.62 259.693 178.75 260.201 178.75 260.795V266.6H177.062V265.396H176.938C176.771 265.683 176.562 265.928 176.312 266.131C176.062 266.329 175.779 266.48 175.461 266.584C175.143 266.688 174.797 266.74 174.422 266.74ZM184.234 266.74C183.526 266.74 182.906 266.563 182.375 266.209C181.849 265.85 181.44 265.342 181.148 264.686C180.862 264.029 180.719 263.256 180.719 262.365V262.35C180.719 261.454 180.862 260.678 181.148 260.021C181.435 259.365 181.841 258.86 182.367 258.506C182.893 258.146 183.516 257.967 184.234 257.967C184.625 257.967 184.99 258.029 185.328 258.154C185.667 258.274 185.966 258.446 186.227 258.67C186.487 258.889 186.693 259.152 186.844 259.459H186.969V254.787H188.672V266.6H186.969V265.264H186.844C186.677 265.571 186.466 265.837 186.211 266.061C185.956 266.279 185.661 266.449 185.328 266.568C184.995 266.683 184.63 266.74 184.234 266.74ZM184.719 265.287C185.188 265.287 185.594 265.17 185.938 264.936C186.281 264.701 186.544 264.365 186.727 263.928C186.909 263.485 187 262.964 187 262.365V262.35C187 261.745 186.906 261.225 186.719 260.787C186.536 260.35 186.273 260.014 185.93 259.779C185.591 259.54 185.188 259.42 184.719 259.42C184.25 259.42 183.844 259.54 183.5 259.779C183.161 260.014 182.901 260.35 182.719 260.787C182.542 261.219 182.453 261.74 182.453 262.35V262.365C182.453 262.969 182.542 263.49 182.719 263.928C182.901 264.365 183.161 264.701 183.5 264.936C183.844 265.17 184.25 265.287 184.719 265.287ZM194.273 266.764C193.591 266.764 192.997 266.665 192.492 266.467C191.987 266.264 191.586 265.985 191.289 265.631C190.992 265.271 190.818 264.855 190.766 264.381V264.365H192.469V264.381C192.578 264.699 192.786 264.956 193.094 265.154C193.401 265.352 193.807 265.451 194.312 265.451C194.661 265.451 194.966 265.402 195.227 265.303C195.492 265.204 195.701 265.066 195.852 264.889C196.003 264.712 196.078 264.508 196.078 264.279V264.264C196.078 263.998 195.971 263.774 195.758 263.592C195.544 263.41 195.193 263.261 194.703 263.146L193.344 262.834C192.812 262.714 192.372 262.55 192.023 262.342C191.674 262.133 191.417 261.878 191.25 261.576C191.083 261.269 191 260.91 191 260.498V260.49C191 259.995 191.141 259.558 191.422 259.178C191.703 258.792 192.091 258.493 192.586 258.279C193.086 258.061 193.656 257.951 194.297 257.951C194.943 257.951 195.505 258.053 195.984 258.256C196.469 258.454 196.852 258.73 197.133 259.084C197.414 259.433 197.581 259.839 197.633 260.303V260.311H196.008V260.295C195.93 259.998 195.742 259.751 195.445 259.553C195.154 259.355 194.768 259.256 194.289 259.256C193.982 259.256 193.708 259.305 193.469 259.404C193.229 259.498 193.039 259.631 192.898 259.803C192.763 259.969 192.695 260.167 192.695 260.396V260.412C192.695 260.589 192.74 260.745 192.828 260.881C192.922 261.011 193.068 261.128 193.266 261.232C193.464 261.331 193.719 261.42 194.031 261.498L195.383 261.803C196.195 261.995 196.799 262.274 197.195 262.639C197.596 263.003 197.797 263.493 197.797 264.107V264.123C197.797 264.644 197.643 265.105 197.336 265.506C197.029 265.902 196.609 266.212 196.078 266.436C195.552 266.654 194.951 266.764 194.273 266.764ZM205 269.584C204.896 269.584 204.784 269.579 204.664 269.568C204.544 269.563 204.43 269.555 204.32 269.545V268.209C204.404 268.219 204.495 268.227 204.594 268.232C204.698 268.238 204.797 268.24 204.891 268.24C205.286 268.24 205.607 268.146 205.852 267.959C206.096 267.777 206.281 267.472 206.406 267.045L206.531 266.607L203.453 258.115H205.289L207.688 265.764L207.156 264.889H207.805L207.281 265.764L209.672 258.115H211.461L208.305 266.92C208.065 267.597 207.799 268.128 207.508 268.514C207.216 268.904 206.87 269.18 206.469 269.342C206.068 269.503 205.578 269.584 205 269.584ZM216.422 266.764C215.594 266.764 214.883 266.587 214.289 266.232C213.695 265.873 213.237 265.365 212.914 264.709C212.596 264.053 212.438 263.277 212.438 262.381V262.373C212.438 261.488 212.596 260.714 212.914 260.053C213.237 259.391 213.69 258.876 214.273 258.506C214.862 258.136 215.549 257.951 216.336 257.951C217.128 257.951 217.807 258.128 218.375 258.482C218.948 258.837 219.388 259.334 219.695 259.975C220.003 260.61 220.156 261.355 220.156 262.209V262.803H213.297V261.592H219.312L218.5 262.717V262.037C218.5 261.433 218.406 260.933 218.219 260.537C218.036 260.136 217.784 259.837 217.461 259.639C217.138 259.441 216.766 259.342 216.344 259.342C215.922 259.342 215.544 259.446 215.211 259.654C214.883 259.857 214.622 260.16 214.43 260.561C214.242 260.962 214.148 261.454 214.148 262.037V262.717C214.148 263.274 214.242 263.751 214.43 264.146C214.617 264.542 214.883 264.844 215.227 265.053C215.576 265.261 215.987 265.365 216.461 265.365C216.826 265.365 217.138 265.316 217.398 265.217C217.664 265.113 217.88 264.985 218.047 264.834C218.219 264.683 218.336 264.535 218.398 264.389L218.43 264.326H220.07L220.055 264.396C219.982 264.678 219.854 264.959 219.672 265.24C219.49 265.516 219.247 265.769 218.945 265.998C218.648 266.227 218.289 266.412 217.867 266.553C217.451 266.693 216.969 266.764 216.422 266.764ZM225.375 266.654C224.448 266.654 223.776 266.477 223.359 266.123C222.948 265.764 222.742 265.178 222.742 264.365V259.451H221.414V258.115H222.742V255.975H224.477V258.115H226.297V259.451H224.477V263.951C224.477 264.41 224.568 264.74 224.75 264.943C224.932 265.141 225.234 265.24 225.656 265.24C225.781 265.24 225.888 265.238 225.977 265.232C226.07 265.227 226.177 265.219 226.297 265.209V266.568C226.161 266.589 226.016 266.607 225.859 266.623C225.703 266.644 225.542 266.654 225.375 266.654Z" fill="#0F172A"/>
<path d="M23.5391 289.6V281.145H24.5938V289.6H23.5391ZM28.8652 289.646C28.2168 289.646 27.7461 289.516 27.4531 289.254C27.1641 288.992 27.0195 288.561 27.0195 287.959V284.127H26.0234V283.283H27.0195V281.648H28.0742V283.283H29.457V284.127H28.0742V287.701C28.0742 288.072 28.1445 288.34 28.2852 288.504C28.4258 288.664 28.6602 288.744 28.9883 288.744C29.0781 288.744 29.1543 288.742 29.2168 288.738C29.2832 288.734 29.3633 288.729 29.457 288.721V289.588C29.3594 289.604 29.2617 289.617 29.1641 289.629C29.0664 289.641 28.9668 289.646 28.8652 289.646ZM34.4141 289.6V280.775H35.4336V289.6H34.4141ZM39.9863 289.711C39.3887 289.711 38.8711 289.58 38.4336 289.318C38 289.053 37.6641 288.676 37.4258 288.188C37.1914 287.699 37.0742 287.119 37.0742 286.447V286.436C37.0742 285.76 37.1914 285.178 37.4258 284.689C37.6641 284.201 38 283.826 38.4336 283.564C38.8711 283.303 39.3887 283.172 39.9863 283.172C40.5879 283.172 41.1055 283.303 41.5391 283.564C41.9727 283.826 42.3066 284.201 42.541 284.689C42.7793 285.178 42.8984 285.76 42.8984 286.436V286.447C42.8984 287.119 42.7793 287.699 42.541 288.188C42.3066 288.676 41.9727 289.053 41.5391 289.318C41.1055 289.58 40.5879 289.711 39.9863 289.711ZM39.9863 288.809C40.3848 288.809 40.7227 288.715 41 288.527C41.2773 288.34 41.4883 288.07 41.6328 287.719C41.7812 287.367 41.8555 286.943 41.8555 286.447V286.436C41.8555 285.936 41.7812 285.51 41.6328 285.158C41.4883 284.807 41.2773 284.539 41 284.355C40.7227 284.168 40.3848 284.074 39.9863 284.074C39.5879 284.074 39.25 284.168 38.9727 284.355C38.6953 284.539 38.4824 284.807 38.334 285.158C38.1895 285.51 38.1172 285.936 38.1172 286.436V286.447C38.1172 286.943 38.1895 287.367 38.334 287.719C38.4824 288.07 38.6953 288.34 38.9727 288.527C39.25 288.715 39.5879 288.809 39.9863 288.809ZM47.0762 289.711C46.4785 289.711 45.9609 289.58 45.5234 289.318C45.0898 289.053 44.7539 288.676 44.5156 288.188C44.2812 287.699 44.1641 287.119 44.1641 286.447V286.436C44.1641 285.76 44.2812 285.178 44.5156 284.689C44.7539 284.201 45.0898 283.826 45.5234 283.564C45.9609 283.303 46.4785 283.172 47.0762 283.172C47.6777 283.172 48.1953 283.303 48.6289 283.564C49.0625 283.826 49.3965 284.201 49.6309 284.689C49.8691 285.178 49.9883 285.76 49.9883 286.436V286.447C49.9883 287.119 49.8691 287.699 49.6309 288.188C49.3965 288.676 49.0625 289.053 48.6289 289.318C48.1953 289.58 47.6777 289.711 47.0762 289.711ZM47.0762 288.809C47.4746 288.809 47.8125 288.715 48.0898 288.527C48.3672 288.34 48.5781 288.07 48.7227 287.719C48.8711 287.367 48.9453 286.943 48.9453 286.447V286.436C48.9453 285.936 48.8711 285.51 48.7227 285.158C48.5781 284.807 48.3672 284.539 48.0898 284.355C47.8125 284.168 47.4746 284.074 47.0762 284.074C46.6777 284.074 46.3398 284.168 46.0625 284.355C45.7852 284.539 45.5723 284.807 45.4238 285.158C45.2793 285.51 45.207 285.936 45.207 286.436V286.447C45.207 286.943 45.2793 287.367 45.4238 287.719C45.5723 288.07 45.7852 288.34 46.0625 288.527C46.3398 288.715 46.6777 288.809 47.0762 288.809ZM51.6289 289.6V280.775H52.6484V289.6H51.6289ZM55.6074 289.6L53.1406 286.506L53.8906 285.855L56.8906 289.6H55.6074ZM52.5195 287.326L52.4727 286.043H52.7422L55.4727 283.283H56.709L53.709 286.178L53.4629 286.418L52.5195 287.326ZM60.0195 289.711C59.5508 289.711 59.1367 289.641 58.7773 289.5C58.418 289.355 58.1289 289.154 57.9102 288.896C57.6953 288.639 57.5684 288.336 57.5293 287.988H58.5723C58.6582 288.25 58.8262 288.461 59.0762 288.621C59.3262 288.781 59.6523 288.861 60.0547 288.861C60.3398 288.861 60.5898 288.82 60.8047 288.738C61.0234 288.652 61.1953 288.537 61.3203 288.393C61.4453 288.244 61.5078 288.074 61.5078 287.883V287.871C61.5078 287.656 61.4219 287.475 61.25 287.326C61.0781 287.174 60.7969 287.051 60.4062 286.957L59.4277 286.723C59.0332 286.629 58.709 286.508 58.4551 286.359C58.2012 286.207 58.0137 286.021 57.8926 285.803C57.7715 285.58 57.7109 285.318 57.7109 285.018V285.012C57.7109 284.66 57.8125 284.346 58.0156 284.068C58.2227 283.791 58.5039 283.572 58.8594 283.412C59.2148 283.252 59.6152 283.172 60.0605 283.172C60.502 283.172 60.8926 283.242 61.2324 283.383C61.5762 283.52 61.8516 283.715 62.0586 283.969C62.2695 284.223 62.3984 284.521 62.4453 284.865H61.4434C61.377 284.615 61.2246 284.412 60.9863 284.256C60.748 284.1 60.4375 284.021 60.0547 284.021C59.8047 284.021 59.582 284.062 59.3867 284.145C59.1914 284.223 59.0371 284.332 58.9238 284.473C58.8105 284.613 58.7539 284.777 58.7539 284.965V284.977C58.7539 285.117 58.791 285.242 58.8652 285.352C58.9395 285.461 59.0547 285.557 59.2109 285.639C59.3672 285.721 59.5684 285.793 59.8145 285.855L60.7871 286.09C61.3809 286.234 61.8223 286.441 62.1113 286.711C62.4043 286.98 62.5508 287.342 62.5508 287.795V287.807C62.5508 288.182 62.4395 288.514 62.2168 288.803C61.9941 289.088 61.6914 289.311 61.3086 289.471C60.9297 289.631 60.5 289.711 60.0195 289.711ZM67.5664 289.6V280.775H68.5859V289.6H67.5664ZM70.5664 289.6V283.283H71.5859V289.6H70.5664ZM71.082 282.064C70.8906 282.064 70.7246 281.996 70.584 281.859C70.4473 281.719 70.3789 281.553 70.3789 281.361C70.3789 281.166 70.4473 281 70.584 280.863C70.7246 280.727 70.8906 280.658 71.082 280.658C71.2773 280.658 71.4434 280.727 71.5801 280.863C71.7168 281 71.7852 281.166 71.7852 281.361C71.7852 281.553 71.7168 281.719 71.5801 281.859C71.4434 281.996 71.2773 282.064 71.082 282.064ZM73.5664 289.6V280.775H74.5859V289.6H73.5664ZM77.5449 289.6L75.0781 286.506L75.8281 285.855L78.8281 289.6H77.5449ZM74.457 287.326L74.4102 286.043H74.6797L77.4102 283.283H78.6465L75.6465 286.178L75.4004 286.418L74.457 287.326ZM82.3086 289.711C81.707 289.711 81.1895 289.578 80.7559 289.312C80.3262 289.047 79.9941 288.672 79.7598 288.188C79.5293 287.699 79.4141 287.125 79.4141 286.465V286.459C79.4141 285.807 79.5293 285.234 79.7598 284.742C79.9941 284.25 80.3242 283.865 80.75 283.588C81.1758 283.311 81.6738 283.172 82.2441 283.172C82.8184 283.172 83.3105 283.305 83.7207 283.57C84.1348 283.836 84.4512 284.207 84.6699 284.684C84.8926 285.156 85.0039 285.707 85.0039 286.336V286.734H79.9414V285.92H84.4824L83.9785 286.664V286.26C83.9785 285.764 83.9043 285.355 83.7559 285.035C83.6074 284.715 83.4023 284.477 83.1406 284.32C82.8789 284.16 82.5781 284.08 82.2383 284.08C81.8984 284.08 81.5938 284.164 81.3242 284.332C81.0586 284.496 80.8477 284.74 80.6914 285.064C80.5352 285.389 80.457 285.787 80.457 286.26V286.664C80.457 287.113 80.5332 287.498 80.6855 287.818C80.8379 288.135 81.0547 288.379 81.3359 288.551C81.6172 288.719 81.9492 288.803 82.332 288.803C82.6172 288.803 82.8652 288.764 83.0762 288.686C83.2871 288.607 83.4609 288.508 83.5977 288.387C83.7344 288.266 83.8301 288.143 83.8848 288.018L83.9082 287.965H84.9277L84.916 288.012C84.8613 288.227 84.7637 288.436 84.623 288.639C84.4863 288.838 84.3086 289.02 84.0898 289.184C83.8711 289.344 83.6113 289.473 83.3105 289.57C83.0137 289.664 82.6797 289.711 82.3086 289.711ZM90.5 291.814C90.4336 291.814 90.3594 291.811 90.2773 291.803C90.1953 291.799 90.1191 291.791 90.0488 291.779V290.941C90.1113 290.953 90.1797 290.961 90.2539 290.965C90.3281 290.969 90.4004 290.971 90.4707 290.971C90.7598 290.971 90.9961 290.896 91.1797 290.748C91.3672 290.6 91.5176 290.344 91.6309 289.98L91.748 289.605L89.4102 283.283H90.5L92.4453 289.119L92.041 288.48H92.5215L92.1172 289.119L94.0566 283.283H95.1289L92.6621 289.986C92.4902 290.459 92.3086 290.828 92.1172 291.094C91.9258 291.359 91.7012 291.545 91.4434 291.65C91.1895 291.76 90.875 291.814 90.5 291.814ZM98.8379 289.711C98.2402 289.711 97.7227 289.58 97.2852 289.318C96.8516 289.053 96.5156 288.676 96.2773 288.188C96.043 287.699 95.9258 287.119 95.9258 286.447V286.436C95.9258 285.76 96.043 285.178 96.2773 284.689C96.5156 284.201 96.8516 283.826 97.2852 283.564C97.7227 283.303 98.2402 283.172 98.8379 283.172C99.4395 283.172 99.957 283.303 100.391 283.564C100.824 283.826 101.158 284.201 101.393 284.689C101.631 285.178 101.75 285.76 101.75 286.436V286.447C101.75 287.119 101.631 287.699 101.393 288.188C101.158 288.676 100.824 289.053 100.391 289.318C99.957 289.58 99.4395 289.711 98.8379 289.711ZM98.8379 288.809C99.2363 288.809 99.5742 288.715 99.8516 288.527C100.129 288.34 100.34 288.07 100.484 287.719C100.633 287.367 100.707 286.943 100.707 286.447V286.436C100.707 285.936 100.633 285.51 100.484 285.158C100.34 284.807 100.129 284.539 99.8516 284.355C99.5742 284.168 99.2363 284.074 98.8379 284.074C98.4395 284.074 98.1016 284.168 97.8242 284.355C97.5469 284.539 97.334 284.807 97.1855 285.158C97.041 285.51 96.9688 285.936 96.9688 286.436V286.447C96.9688 286.943 97.041 287.367 97.1855 287.719C97.334 288.07 97.5469 288.34 97.8242 288.527C98.1016 288.715 98.4395 288.809 98.8379 288.809ZM105.447 289.711C104.971 289.711 104.57 289.621 104.246 289.441C103.922 289.258 103.678 288.992 103.514 288.645C103.354 288.293 103.273 287.869 103.273 287.373V283.283H104.293V287.127C104.293 287.693 104.402 288.115 104.621 288.393C104.844 288.67 105.207 288.809 105.711 288.809C105.988 288.809 106.232 288.768 106.443 288.686C106.658 288.604 106.838 288.486 106.982 288.334C107.127 288.178 107.234 287.99 107.305 287.771C107.379 287.549 107.416 287.299 107.416 287.021V283.283H108.436V289.6H107.416V288.656H107.322C107.221 288.879 107.082 289.07 106.906 289.23C106.73 289.387 106.52 289.506 106.273 289.588C106.031 289.67 105.756 289.711 105.447 289.711ZM113.773 289.6V280.775H114.793V284.232H114.887C115.047 283.896 115.277 283.637 115.578 283.453C115.879 283.266 116.262 283.172 116.727 283.172C117.199 283.172 117.6 283.264 117.928 283.447C118.256 283.627 118.506 283.891 118.678 284.238C118.85 284.586 118.936 285.01 118.936 285.51V289.6H117.916V285.756C117.916 285.186 117.795 284.764 117.553 284.49C117.314 284.213 116.943 284.074 116.439 284.074C116.104 284.074 115.812 284.146 115.566 284.291C115.32 284.436 115.129 284.641 114.992 284.906C114.859 285.172 114.793 285.49 114.793 285.861V289.6H113.773ZM122.516 289.711C122.117 289.711 121.758 289.635 121.438 289.482C121.121 289.33 120.869 289.113 120.682 288.832C120.498 288.551 120.406 288.219 120.406 287.836V287.824C120.406 287.449 120.496 287.129 120.676 286.863C120.855 286.594 121.117 286.383 121.461 286.23C121.805 286.078 122.221 285.988 122.709 285.961L125.029 285.82V286.635L122.832 286.775C122.352 286.803 122 286.902 121.777 287.074C121.559 287.246 121.449 287.488 121.449 287.801V287.812C121.449 288.133 121.57 288.383 121.812 288.562C122.055 288.738 122.359 288.826 122.727 288.826C123.074 288.826 123.383 288.758 123.652 288.621C123.922 288.48 124.133 288.291 124.285 288.053C124.441 287.814 124.52 287.545 124.52 287.244V285.275C124.52 284.885 124.4 284.588 124.162 284.385C123.928 284.178 123.574 284.074 123.102 284.074C122.723 284.074 122.412 284.143 122.17 284.279C121.928 284.412 121.766 284.602 121.684 284.848L121.678 284.865H120.658L120.664 284.83C120.719 284.498 120.855 284.209 121.074 283.963C121.297 283.713 121.584 283.52 121.936 283.383C122.287 283.242 122.688 283.172 123.137 283.172C123.652 283.172 124.088 283.256 124.443 283.424C124.803 283.592 125.074 283.834 125.258 284.15C125.445 284.463 125.539 284.838 125.539 285.275V289.6H124.52V288.668H124.426C124.293 288.891 124.131 289.08 123.939 289.236C123.752 289.393 123.539 289.512 123.301 289.594C123.062 289.672 122.801 289.711 122.516 289.711ZM128.955 289.6L126.617 283.283H127.695L129.424 288.486H129.518L131.246 283.283H132.324L129.986 289.6H128.955ZM136.016 289.711C135.414 289.711 134.896 289.578 134.463 289.312C134.033 289.047 133.701 288.672 133.467 288.188C133.236 287.699 133.121 287.125 133.121 286.465V286.459C133.121 285.807 133.236 285.234 133.467 284.742C133.701 284.25 134.031 283.865 134.457 283.588C134.883 283.311 135.381 283.172 135.951 283.172C136.525 283.172 137.018 283.305 137.428 283.57C137.842 283.836 138.158 284.207 138.377 284.684C138.6 285.156 138.711 285.707 138.711 286.336V286.734H133.648V285.92H138.189L137.686 286.664V286.26C137.686 285.764 137.611 285.355 137.463 285.035C137.314 284.715 137.109 284.477 136.848 284.32C136.586 284.16 136.285 284.08 135.945 284.08C135.605 284.08 135.301 284.164 135.031 284.332C134.766 284.496 134.555 284.74 134.398 285.064C134.242 285.389 134.164 285.787 134.164 286.26V286.664C134.164 287.113 134.24 287.498 134.393 287.818C134.545 288.135 134.762 288.379 135.043 288.551C135.324 288.719 135.656 288.803 136.039 288.803C136.324 288.803 136.572 288.764 136.783 288.686C136.994 288.607 137.168 288.508 137.305 288.387C137.441 288.266 137.537 288.143 137.592 288.018L137.615 287.965H138.635L138.623 288.012C138.568 288.227 138.471 288.436 138.33 288.639C138.193 288.838 138.016 289.02 137.797 289.184C137.578 289.344 137.318 289.473 137.018 289.57C136.721 289.664 136.387 289.711 136.016 289.711ZM140.293 289.6V283.283H141.312V284.232H141.406C141.566 283.896 141.797 283.637 142.098 283.453C142.398 283.266 142.781 283.172 143.246 283.172C143.957 283.172 144.502 283.375 144.881 283.781C145.264 284.184 145.455 284.76 145.455 285.51V289.6H144.436V285.756C144.436 285.186 144.314 284.764 144.072 284.49C143.834 284.213 143.463 284.074 142.959 284.074C142.623 284.074 142.332 284.146 142.086 284.291C141.84 284.436 141.648 284.641 141.512 284.906C141.379 285.172 141.312 285.49 141.312 285.861V289.6H140.293ZM147.711 284.479L147.588 281.145H148.678L148.555 284.479H147.711ZM153.107 289.646C152.459 289.646 151.988 289.516 151.695 289.254C151.406 288.992 151.262 288.561 151.262 287.959V284.127H150.266V283.283H151.262V281.648H152.316V283.283H153.699V284.127H152.316V287.701C152.316 288.072 152.387 288.34 152.527 288.504C152.668 288.664 152.902 288.744 153.23 288.744C153.32 288.744 153.396 288.742 153.459 288.738C153.525 288.734 153.605 288.729 153.699 288.721V289.588C153.602 289.604 153.504 289.617 153.406 289.629C153.309 289.641 153.209 289.646 153.107 289.646ZM160.332 289.711C159.934 289.711 159.574 289.635 159.254 289.482C158.938 289.33 158.686 289.113 158.498 288.832C158.314 288.551 158.223 288.219 158.223 287.836V287.824C158.223 287.449 158.312 287.129 158.492 286.863C158.672 286.594 158.934 286.383 159.277 286.23C159.621 286.078 160.037 285.988 160.525 285.961L162.846 285.82V286.635L160.648 286.775C160.168 286.803 159.816 286.902 159.594 287.074C159.375 287.246 159.266 287.488 159.266 287.801V287.812C159.266 288.133 159.387 288.383 159.629 288.562C159.871 288.738 160.176 288.826 160.543 288.826C160.891 288.826 161.199 288.758 161.469 288.621C161.738 288.48 161.949 288.291 162.102 288.053C162.258 287.814 162.336 287.545 162.336 287.244V285.275C162.336 284.885 162.217 284.588 161.979 284.385C161.744 284.178 161.391 284.074 160.918 284.074C160.539 284.074 160.229 284.143 159.986 284.279C159.744 284.412 159.582 284.602 159.5 284.848L159.494 284.865H158.475L158.48 284.83C158.535 284.498 158.672 284.209 158.891 283.963C159.113 283.713 159.4 283.52 159.752 283.383C160.104 283.242 160.504 283.172 160.953 283.172C161.469 283.172 161.904 283.256 162.26 283.424C162.619 283.592 162.891 283.834 163.074 284.15C163.262 284.463 163.355 284.838 163.355 285.275V289.6H162.336V288.668H162.242C162.109 288.891 161.947 289.08 161.756 289.236C161.568 289.393 161.355 289.512 161.117 289.594C160.879 289.672 160.617 289.711 160.332 289.711ZM167.387 289.711C166.918 289.711 166.504 289.641 166.145 289.5C165.785 289.355 165.496 289.154 165.277 288.896C165.062 288.639 164.936 288.336 164.896 287.988H165.939C166.025 288.25 166.193 288.461 166.443 288.621C166.693 288.781 167.02 288.861 167.422 288.861C167.707 288.861 167.957 288.82 168.172 288.738C168.391 288.652 168.562 288.537 168.688 288.393C168.812 288.244 168.875 288.074 168.875 287.883V287.871C168.875 287.656 168.789 287.475 168.617 287.326C168.445 287.174 168.164 287.051 167.773 286.957L166.795 286.723C166.4 286.629 166.076 286.508 165.822 286.359C165.568 286.207 165.381 286.021 165.26 285.803C165.139 285.58 165.078 285.318 165.078 285.018V285.012C165.078 284.66 165.18 284.346 165.383 284.068C165.59 283.791 165.871 283.572 166.227 283.412C166.582 283.252 166.982 283.172 167.428 283.172C167.869 283.172 168.26 283.242 168.6 283.383C168.943 283.52 169.219 283.715 169.426 283.969C169.637 284.223 169.766 284.521 169.812 284.865H168.811C168.744 284.615 168.592 284.412 168.354 284.256C168.115 284.1 167.805 284.021 167.422 284.021C167.172 284.021 166.949 284.062 166.754 284.145C166.559 284.223 166.404 284.332 166.291 284.473C166.178 284.613 166.121 284.777 166.121 284.965V284.977C166.121 285.117 166.158 285.242 166.232 285.352C166.307 285.461 166.422 285.557 166.578 285.639C166.734 285.721 166.936 285.793 167.182 285.855L168.154 286.09C168.748 286.234 169.189 286.441 169.479 286.711C169.771 286.98 169.918 287.342 169.918 287.795V287.807C169.918 288.182 169.807 288.514 169.584 288.803C169.361 289.088 169.059 289.311 168.676 289.471C168.297 289.631 167.867 289.711 167.387 289.711ZM173.551 289.711C173.082 289.711 172.668 289.641 172.309 289.5C171.949 289.355 171.66 289.154 171.441 288.896C171.227 288.639 171.1 288.336 171.061 287.988H172.104C172.189 288.25 172.357 288.461 172.607 288.621C172.857 288.781 173.184 288.861 173.586 288.861C173.871 288.861 174.121 288.82 174.336 288.738C174.555 288.652 174.727 288.537 174.852 288.393C174.977 288.244 175.039 288.074 175.039 287.883V287.871C175.039 287.656 174.953 287.475 174.781 287.326C174.609 287.174 174.328 287.051 173.938 286.957L172.959 286.723C172.564 286.629 172.24 286.508 171.986 286.359C171.732 286.207 171.545 286.021 171.424 285.803C171.303 285.58 171.242 285.318 171.242 285.018V285.012C171.242 284.66 171.344 284.346 171.547 284.068C171.754 283.791 172.035 283.572 172.391 283.412C172.746 283.252 173.146 283.172 173.592 283.172C174.033 283.172 174.424 283.242 174.764 283.383C175.107 283.52 175.383 283.715 175.59 283.969C175.801 284.223 175.93 284.521 175.977 284.865H174.975C174.908 284.615 174.756 284.412 174.518 284.256C174.279 284.1 173.969 284.021 173.586 284.021C173.336 284.021 173.113 284.062 172.918 284.145C172.723 284.223 172.568 284.332 172.455 284.473C172.342 284.613 172.285 284.777 172.285 284.965V284.977C172.285 285.117 172.322 285.242 172.396 285.352C172.471 285.461 172.586 285.557 172.742 285.639C172.898 285.721 173.1 285.793 173.346 285.855L174.318 286.09C174.912 286.234 175.354 286.441 175.643 286.711C175.936 286.98 176.082 287.342 176.082 287.795V287.807C176.082 288.182 175.971 288.514 175.748 288.803C175.525 289.088 175.223 289.311 174.84 289.471C174.461 289.631 174.031 289.711 173.551 289.711ZM177.688 289.6V283.283H178.707V289.6H177.688ZM178.203 282.064C178.012 282.064 177.846 281.996 177.705 281.859C177.568 281.719 177.5 281.553 177.5 281.361C177.5 281.166 177.568 281 177.705 280.863C177.846 280.727 178.012 280.658 178.203 280.658C178.398 280.658 178.564 280.727 178.701 280.863C178.838 281 178.906 281.166 178.906 281.361C178.906 281.553 178.838 281.719 178.701 281.859C178.564 281.996 178.398 282.064 178.203 282.064ZM183.23 291.826C182.723 291.826 182.279 291.754 181.9 291.609C181.521 291.469 181.219 291.268 180.992 291.006C180.77 290.748 180.631 290.447 180.576 290.104L180.588 290.098H181.643L181.648 290.104C181.703 290.342 181.867 290.537 182.141 290.689C182.414 290.846 182.777 290.924 183.23 290.924C183.797 290.924 184.238 290.795 184.555 290.537C184.875 290.283 185.035 289.924 185.035 289.459V288.182H184.941C184.809 288.412 184.643 288.609 184.443 288.773C184.244 288.938 184.02 289.062 183.77 289.148C183.52 289.23 183.25 289.271 182.961 289.271C182.418 289.271 181.947 289.143 181.549 288.885C181.154 288.623 180.85 288.264 180.635 287.807C180.42 287.35 180.312 286.826 180.312 286.236V286.225C180.312 285.635 180.42 285.111 180.635 284.654C180.854 284.193 181.162 283.832 181.561 283.57C181.959 283.305 182.434 283.172 182.984 283.172C183.281 283.172 183.555 283.219 183.805 283.312C184.055 283.406 184.275 283.539 184.467 283.711C184.662 283.883 184.824 284.088 184.953 284.326H185.023V283.283H186.043V289.512C186.043 289.98 185.928 290.389 185.697 290.736C185.471 291.084 185.146 291.352 184.725 291.539C184.303 291.73 183.805 291.826 183.23 291.826ZM183.184 288.369C183.574 288.369 183.908 288.279 184.186 288.1C184.467 287.916 184.682 287.664 184.83 287.344C184.982 287.023 185.059 286.654 185.059 286.236V286.225C185.059 285.807 184.982 285.436 184.83 285.111C184.682 284.787 184.467 284.533 184.186 284.35C183.908 284.166 183.574 284.074 183.184 284.074C182.793 284.074 182.461 284.166 182.188 284.35C181.918 284.533 181.711 284.787 181.566 285.111C181.426 285.436 181.355 285.807 181.355 286.225V286.236C181.355 286.654 181.426 287.023 181.566 287.344C181.711 287.664 181.918 287.916 182.188 288.1C182.461 288.279 182.793 288.369 183.184 288.369ZM187.941 289.6V283.283H188.961V284.232H189.055C189.215 283.896 189.445 283.637 189.746 283.453C190.047 283.266 190.43 283.172 190.895 283.172C191.605 283.172 192.15 283.375 192.529 283.781C192.912 284.184 193.104 284.76 193.104 285.51V289.6H192.084V285.756C192.084 285.186 191.963 284.764 191.721 284.49C191.482 284.213 191.111 284.074 190.607 284.074C190.271 284.074 189.98 284.146 189.734 284.291C189.488 284.436 189.297 284.641 189.16 284.906C189.027 285.172 188.961 285.49 188.961 285.861V289.6H187.941ZM197.527 289.711C196.926 289.711 196.408 289.578 195.975 289.312C195.545 289.047 195.213 288.672 194.979 288.188C194.748 287.699 194.633 287.125 194.633 286.465V286.459C194.633 285.807 194.748 285.234 194.979 284.742C195.213 284.25 195.543 283.865 195.969 283.588C196.395 283.311 196.893 283.172 197.463 283.172C198.037 283.172 198.529 283.305 198.939 283.57C199.354 283.836 199.67 284.207 199.889 284.684C200.111 285.156 200.223 285.707 200.223 286.336V286.734H195.16V285.92H199.701L199.197 286.664V286.26C199.197 285.764 199.123 285.355 198.975 285.035C198.826 284.715 198.621 284.477 198.359 284.32C198.098 284.16 197.797 284.08 197.457 284.08C197.117 284.08 196.812 284.164 196.543 284.332C196.277 284.496 196.066 284.74 195.91 285.064C195.754 285.389 195.676 285.787 195.676 286.26V286.664C195.676 287.113 195.752 287.498 195.904 287.818C196.057 288.135 196.273 288.379 196.555 288.551C196.836 288.719 197.168 288.803 197.551 288.803C197.836 288.803 198.084 288.764 198.295 288.686C198.506 288.607 198.68 288.508 198.816 288.387C198.953 288.266 199.049 288.143 199.104 288.018L199.127 287.965H200.146L200.135 288.012C200.08 288.227 199.982 288.436 199.842 288.639C199.705 288.838 199.527 289.02 199.309 289.184C199.09 289.344 198.83 289.473 198.529 289.57C198.232 289.664 197.898 289.711 197.527 289.711ZM204.137 289.711C203.605 289.711 203.141 289.576 202.742 289.307C202.344 289.037 202.035 288.658 201.816 288.17C201.598 287.678 201.488 287.104 201.488 286.447V286.436C201.488 285.775 201.598 285.201 201.816 284.713C202.035 284.225 202.342 283.846 202.736 283.576C203.135 283.307 203.602 283.172 204.137 283.172C204.426 283.172 204.697 283.219 204.951 283.312C205.209 283.402 205.438 283.529 205.637 283.693C205.836 283.857 205.992 284.053 206.105 284.279H206.199V280.775H207.219V289.6H206.199V288.592H206.105C205.977 288.826 205.814 289.027 205.619 289.195C205.424 289.359 205.201 289.486 204.951 289.576C204.701 289.666 204.43 289.711 204.137 289.711ZM204.371 288.809C204.754 288.809 205.084 288.713 205.361 288.521C205.639 288.33 205.852 288.059 206 287.707C206.148 287.352 206.223 286.932 206.223 286.447V286.436C206.223 285.947 206.148 285.527 206 285.176C205.852 284.824 205.639 284.553 205.361 284.361C205.084 284.17 204.754 284.074 204.371 284.074C203.988 284.074 203.658 284.17 203.381 284.361C203.107 284.549 202.896 284.818 202.748 285.17C202.604 285.521 202.531 285.943 202.531 286.436V286.447C202.531 286.936 202.604 287.357 202.748 287.713C202.896 288.064 203.107 288.336 203.381 288.527C203.658 288.715 203.988 288.809 204.371 288.809ZM215.146 289.711C214.549 289.711 214.031 289.58 213.594 289.318C213.16 289.053 212.824 288.676 212.586 288.188C212.352 287.699 212.234 287.119 212.234 286.447V286.436C212.234 285.76 212.352 285.178 212.586 284.689C212.824 284.201 213.16 283.826 213.594 283.564C214.031 283.303 214.549 283.172 215.146 283.172C215.748 283.172 216.266 283.303 216.699 283.564C217.133 283.826 217.467 284.201 217.701 284.689C217.939 285.178 218.059 285.76 218.059 286.436V286.447C218.059 287.119 217.939 287.699 217.701 288.188C217.467 288.676 217.133 289.053 216.699 289.318C216.266 289.58 215.748 289.711 215.146 289.711ZM215.146 288.809C215.545 288.809 215.883 288.715 216.16 288.527C216.438 288.34 216.648 288.07 216.793 287.719C216.941 287.367 217.016 286.943 217.016 286.447V286.436C217.016 285.936 216.941 285.51 216.793 285.158C216.648 284.807 216.438 284.539 216.16 284.355C215.883 284.168 215.545 284.074 215.146 284.074C214.748 284.074 214.41 284.168 214.133 284.355C213.855 284.539 213.643 284.807 213.494 285.158C213.35 285.51 213.277 285.936 213.277 286.436V286.447C213.277 286.943 213.35 287.367 213.494 287.719C213.643 288.07 213.855 288.34 214.133 288.527C214.41 288.715 214.748 288.809 215.146 288.809ZM219.641 289.6V283.283H220.66V284.221H220.754C220.875 283.889 221.08 283.631 221.369 283.447C221.658 283.264 222.016 283.172 222.441 283.172C222.539 283.172 222.635 283.178 222.729 283.189C222.826 283.197 222.9 283.205 222.951 283.213V284.203C222.846 284.184 222.742 284.17 222.641 284.162C222.543 284.15 222.438 284.145 222.324 284.145C222 284.145 221.713 284.209 221.463 284.338C221.213 284.467 221.016 284.646 220.871 284.877C220.73 285.107 220.66 285.377 220.66 285.686V289.6H219.641ZM227.586 289.6V283.283H228.605V284.221H228.699C228.82 283.889 229.025 283.631 229.314 283.447C229.604 283.264 229.961 283.172 230.387 283.172C230.484 283.172 230.58 283.178 230.674 283.189C230.771 283.197 230.846 283.205 230.896 283.213V284.203C230.791 284.184 230.688 284.17 230.586 284.162C230.488 284.15 230.383 284.145 230.27 284.145C229.945 284.145 229.658 284.209 229.408 284.338C229.158 284.467 228.961 284.646 228.816 284.877C228.676 285.107 228.605 285.377 228.605 285.686V289.6H227.586ZM234.559 289.711C233.957 289.711 233.439 289.578 233.006 289.312C232.576 289.047 232.244 288.672 232.01 288.188C231.779 287.699 231.664 287.125 231.664 286.465V286.459C231.664 285.807 231.779 285.234 232.01 284.742C232.244 284.25 232.574 283.865 233 283.588C233.426 283.311 233.924 283.172 234.494 283.172C235.068 283.172 235.561 283.305 235.971 283.57C236.385 283.836 236.701 284.207 236.92 284.684C237.143 285.156 237.254 285.707 237.254 286.336V286.734H232.191V285.92H236.732L236.229 286.664V286.26C236.229 285.764 236.154 285.355 236.006 285.035C235.857 284.715 235.652 284.477 235.391 284.32C235.129 284.16 234.828 284.08 234.488 284.08C234.148 284.08 233.844 284.164 233.574 284.332C233.309 284.496 233.098 284.74 232.941 285.064C232.785 285.389 232.707 285.787 232.707 286.26V286.664C232.707 287.113 232.783 287.498 232.936 287.818C233.088 288.135 233.305 288.379 233.586 288.551C233.867 288.719 234.199 288.803 234.582 288.803C234.867 288.803 235.115 288.764 235.326 288.686C235.537 288.607 235.711 288.508 235.848 288.387C235.984 288.266 236.08 288.143 236.135 288.018L236.158 287.965H237.178L237.166 288.012C237.111 288.227 237.014 288.436 236.873 288.639C236.736 288.838 236.559 289.02 236.34 289.184C236.121 289.344 235.861 289.473 235.561 289.57C235.264 289.664 234.93 289.711 234.559 289.711ZM241.42 289.711C240.83 289.711 240.318 289.576 239.885 289.307C239.451 289.037 239.115 288.656 238.877 288.164C238.639 287.672 238.52 287.092 238.52 286.424V286.412C238.52 285.756 238.637 285.186 238.871 284.701C239.109 284.217 239.445 283.842 239.879 283.576C240.312 283.307 240.824 283.172 241.414 283.172C241.926 283.172 242.367 283.262 242.738 283.441C243.109 283.621 243.406 283.863 243.629 284.168C243.852 284.469 243.994 284.807 244.057 285.182L244.062 285.217H243.049L243.043 285.199C242.965 284.887 242.787 284.621 242.51 284.402C242.232 284.184 241.867 284.074 241.414 284.074C241.035 284.074 240.707 284.17 240.43 284.361C240.152 284.553 239.938 284.824 239.785 285.176C239.637 285.523 239.562 285.936 239.562 286.412V286.424C239.562 286.908 239.639 287.33 239.791 287.689C239.943 288.045 240.158 288.32 240.436 288.516C240.713 288.711 241.039 288.809 241.414 288.809C241.84 288.809 242.188 288.717 242.457 288.533C242.727 288.35 242.92 288.082 243.037 287.73L243.049 287.695L244.057 287.689L244.045 287.754C243.959 288.133 243.807 288.471 243.588 288.768C243.369 289.061 243.08 289.291 242.721 289.459C242.361 289.627 241.928 289.711 241.42 289.711ZM248.129 289.711C247.527 289.711 247.01 289.578 246.576 289.312C246.146 289.047 245.814 288.672 245.58 288.188C245.35 287.699 245.234 287.125 245.234 286.465V286.459C245.234 285.807 245.35 285.234 245.58 284.742C245.814 284.25 246.145 283.865 246.57 283.588C246.996 283.311 247.494 283.172 248.064 283.172C248.639 283.172 249.131 283.305 249.541 283.57C249.955 283.836 250.271 284.207 250.49 284.684C250.713 285.156 250.824 285.707 250.824 286.336V286.734H245.762V285.92H250.303L249.799 286.664V286.26C249.799 285.764 249.725 285.355 249.576 285.035C249.428 284.715 249.223 284.477 248.961 284.32C248.699 284.16 248.398 284.08 248.059 284.08C247.719 284.08 247.414 284.164 247.145 284.332C246.879 284.496 246.668 284.74 246.512 285.064C246.355 285.389 246.277 285.787 246.277 286.26V286.664C246.277 287.113 246.354 287.498 246.506 287.818C246.658 288.135 246.875 288.379 247.156 288.551C247.438 288.719 247.77 288.803 248.152 288.803C248.438 288.803 248.686 288.764 248.896 288.686C249.107 288.607 249.281 288.508 249.418 288.387C249.555 288.266 249.65 288.143 249.705 288.018L249.729 287.965H250.748L250.736 288.012C250.682 288.227 250.584 288.436 250.443 288.639C250.307 288.838 250.129 289.02 249.91 289.184C249.691 289.344 249.432 289.473 249.131 289.57C248.834 289.664 248.5 289.711 248.129 289.711ZM252.43 289.6V283.283H253.449V289.6H252.43ZM252.945 282.064C252.754 282.064 252.588 281.996 252.447 281.859C252.311 281.719 252.242 281.553 252.242 281.361C252.242 281.166 252.311 281 252.447 280.863C252.588 280.727 252.754 280.658 252.945 280.658C253.141 280.658 253.307 280.727 253.443 280.863C253.58 281 253.648 281.166 253.648 281.361C253.648 281.553 253.58 281.719 253.443 281.859C253.307 281.996 253.141 282.064 252.945 282.064ZM257.158 289.6L254.82 283.283H255.898L257.627 288.486H257.721L259.449 283.283H260.527L258.189 289.6H257.158ZM264.219 289.711C263.617 289.711 263.1 289.578 262.666 289.312C262.236 289.047 261.904 288.672 261.67 288.188C261.439 287.699 261.324 287.125 261.324 286.465V286.459C261.324 285.807 261.439 285.234 261.67 284.742C261.904 284.25 262.234 283.865 262.66 283.588C263.086 283.311 263.584 283.172 264.154 283.172C264.729 283.172 265.221 283.305 265.631 283.57C266.045 283.836 266.361 284.207 266.58 284.684C266.803 285.156 266.914 285.707 266.914 286.336V286.734H261.852V285.92H266.393L265.889 286.664V286.26C265.889 285.764 265.814 285.355 265.666 285.035C265.518 284.715 265.312 284.477 265.051 284.32C264.789 284.16 264.488 284.08 264.148 284.08C263.809 284.08 263.504 284.164 263.234 284.332C262.969 284.496 262.758 284.74 262.602 285.064C262.445 285.389 262.367 285.787 262.367 286.26V286.664C262.367 287.113 262.443 287.498 262.596 287.818C262.748 288.135 262.965 288.379 263.246 288.551C263.527 288.719 263.859 288.803 264.242 288.803C264.527 288.803 264.775 288.764 264.986 288.686C265.197 288.607 265.371 288.508 265.508 288.387C265.645 288.266 265.74 288.143 265.795 288.018L265.818 287.965H266.838L266.826 288.012C266.771 288.227 266.674 288.436 266.533 288.639C266.396 288.838 266.219 289.02 266 289.184C265.781 289.344 265.521 289.473 265.221 289.57C264.924 289.664 264.59 289.711 264.219 289.711ZM270.828 289.711C270.297 289.711 269.832 289.576 269.434 289.307C269.035 289.037 268.727 288.658 268.508 288.17C268.289 287.678 268.18 287.104 268.18 286.447V286.436C268.18 285.775 268.289 285.201 268.508 284.713C268.727 284.225 269.033 283.846 269.428 283.576C269.826 283.307 270.293 283.172 270.828 283.172C271.117 283.172 271.389 283.219 271.643 283.312C271.9 283.402 272.129 283.529 272.328 283.693C272.527 283.857 272.684 284.053 272.797 284.279H272.891V280.775H273.91V289.6H272.891V288.592H272.797C272.668 288.826 272.506 289.027 272.311 289.195C272.115 289.359 271.893 289.486 271.643 289.576C271.393 289.666 271.121 289.711 270.828 289.711ZM271.062 288.809C271.445 288.809 271.775 288.713 272.053 288.521C272.33 288.33 272.543 288.059 272.691 287.707C272.84 287.352 272.914 286.932 272.914 286.447V286.436C272.914 285.947 272.84 285.527 272.691 285.176C272.543 284.824 272.33 284.553 272.053 284.361C271.775 284.17 271.445 284.074 271.062 284.074C270.68 284.074 270.35 284.17 270.072 284.361C269.799 284.549 269.588 284.818 269.439 285.17C269.295 285.521 269.223 285.943 269.223 286.436V286.447C269.223 286.936 269.295 287.357 269.439 287.713C269.588 288.064 269.799 288.336 270.072 288.527C270.35 288.715 270.68 288.809 271.062 288.809ZM280.977 289.711C280.578 289.711 280.219 289.635 279.898 289.482C279.582 289.33 279.33 289.113 279.143 288.832C278.959 288.551 278.867 288.219 278.867 287.836V287.824C278.867 287.449 278.957 287.129 279.137 286.863C279.316 286.594 279.578 286.383 279.922 286.23C280.266 286.078 280.682 285.988 281.17 285.961L283.49 285.82V286.635L281.293 286.775C280.812 286.803 280.461 286.902 280.238 287.074C280.02 287.246 279.91 287.488 279.91 287.801V287.812C279.91 288.133 280.031 288.383 280.273 288.562C280.516 288.738 280.82 288.826 281.188 288.826C281.535 288.826 281.844 288.758 282.113 288.621C282.383 288.48 282.594 288.291 282.746 288.053C282.902 287.814 282.98 287.545 282.98 287.244V285.275C282.98 284.885 282.861 284.588 282.623 284.385C282.389 284.178 282.035 284.074 281.562 284.074C281.184 284.074 280.873 284.143 280.631 284.279C280.389 284.412 280.227 284.602 280.145 284.848L280.139 284.865H279.119L279.125 284.83C279.18 284.498 279.316 284.209 279.535 283.963C279.758 283.713 280.045 283.52 280.396 283.383C280.748 283.242 281.148 283.172 281.598 283.172C282.113 283.172 282.549 283.256 282.904 283.424C283.264 283.592 283.535 283.834 283.719 284.15C283.906 284.463 284 284.838 284 285.275V289.6H282.98V288.668H282.887C282.754 288.891 282.592 289.08 282.4 289.236C282.213 289.393 282 289.512 281.762 289.594C281.523 289.672 281.262 289.711 280.977 289.711ZM285.863 289.6V283.283H286.883V284.232H286.977C287.137 283.896 287.367 283.637 287.668 283.453C287.969 283.266 288.352 283.172 288.816 283.172C289.527 283.172 290.072 283.375 290.451 283.781C290.834 284.184 291.025 284.76 291.025 285.51V289.6H290.006V285.756C290.006 285.186 289.885 284.764 289.643 284.49C289.404 284.213 289.033 284.074 288.529 284.074C288.193 284.074 287.902 284.146 287.656 284.291C287.41 284.436 287.219 284.641 287.082 284.906C286.949 285.172 286.883 285.49 286.883 285.861V289.6H285.863ZM293.176 291.814C293.109 291.814 293.035 291.811 292.953 291.803C292.871 291.799 292.795 291.791 292.725 291.779V290.941C292.787 290.953 292.855 290.961 292.93 290.965C293.004 290.969 293.076 290.971 293.146 290.971C293.436 290.971 293.672 290.896 293.855 290.748C294.043 290.6 294.193 290.344 294.307 289.98L294.424 289.605L292.086 283.283H293.176L295.121 289.119L294.717 288.48H295.197L294.793 289.119L296.732 283.283H297.805L295.338 289.986C295.166 290.459 294.984 290.828 294.793 291.094C294.602 291.359 294.377 291.545 294.119 291.65C293.865 291.76 293.551 291.814 293.176 291.814ZM302.586 289.6V280.775H303.605V289.6H302.586ZM308.158 289.711C307.561 289.711 307.043 289.58 306.605 289.318C306.172 289.053 305.836 288.676 305.598 288.188C305.363 287.699 305.246 287.119 305.246 286.447V286.436C305.246 285.76 305.363 285.178 305.598 284.689C305.836 284.201 306.172 283.826 306.605 283.564C307.043 283.303 307.561 283.172 308.158 283.172C308.76 283.172 309.277 283.303 309.711 283.564C310.145 283.826 310.479 284.201 310.713 284.689C310.951 285.178 311.07 285.76 311.07 286.436V286.447C311.07 287.119 310.951 287.699 310.713 288.188C310.479 288.676 310.145 289.053 309.711 289.318C309.277 289.58 308.76 289.711 308.158 289.711ZM308.158 288.809C308.557 288.809 308.895 288.715 309.172 288.527C309.449 288.34 309.66 288.07 309.805 287.719C309.953 287.367 310.027 286.943 310.027 286.447V286.436C310.027 285.936 309.953 285.51 309.805 285.158C309.66 284.807 309.449 284.539 309.172 284.355C308.895 284.168 308.557 284.074 308.158 284.074C307.76 284.074 307.422 284.168 307.145 284.355C306.867 284.539 306.654 284.807 306.506 285.158C306.361 285.51 306.289 285.936 306.289 286.436V286.447C306.289 286.943 306.361 287.367 306.506 287.719C306.654 288.07 306.867 288.34 307.145 288.527C307.422 288.715 307.76 288.809 308.158 288.809ZM314.387 289.711C313.988 289.711 313.629 289.635 313.309 289.482C312.992 289.33 312.74 289.113 312.553 288.832C312.369 288.551 312.277 288.219 312.277 287.836V287.824C312.277 287.449 312.367 287.129 312.547 286.863C312.727 286.594 312.988 286.383 313.332 286.23C313.676 286.078 314.092 285.988 314.58 285.961L316.9 285.82V286.635L314.703 286.775C314.223 286.803 313.871 286.902 313.648 287.074C313.43 287.246 313.32 287.488 313.32 287.801V287.812C313.32 288.133 313.441 288.383 313.684 288.562C313.926 288.738 314.23 288.826 314.598 288.826C314.945 288.826 315.254 288.758 315.523 288.621C315.793 288.48 316.004 288.291 316.156 288.053C316.312 287.814 316.391 287.545 316.391 287.244V285.275C316.391 284.885 316.271 284.588 316.033 284.385C315.799 284.178 315.445 284.074 314.973 284.074C314.594 284.074 314.283 284.143 314.041 284.279C313.799 284.412 313.637 284.602 313.555 284.848L313.549 284.865H312.529L312.535 284.83C312.59 284.498 312.727 284.209 312.945 283.963C313.168 283.713 313.455 283.52 313.807 283.383C314.158 283.242 314.559 283.172 315.008 283.172C315.523 283.172 315.959 283.256 316.314 283.424C316.674 283.592 316.945 283.834 317.129 284.15C317.316 284.463 317.41 284.838 317.41 285.275V289.6H316.391V288.668H316.297C316.164 288.891 316.002 289.08 315.811 289.236C315.623 289.393 315.41 289.512 315.172 289.594C314.934 289.672 314.672 289.711 314.387 289.711ZM321.605 289.711C321.074 289.711 320.609 289.576 320.211 289.307C319.812 289.037 319.504 288.658 319.285 288.17C319.066 287.678 318.957 287.104 318.957 286.447V286.436C318.957 285.775 319.066 285.201 319.285 284.713C319.504 284.225 319.811 283.846 320.205 283.576C320.604 283.307 321.07 283.172 321.605 283.172C321.895 283.172 322.166 283.219 322.42 283.312C322.678 283.402 322.906 283.529 323.105 283.693C323.305 283.857 323.461 284.053 323.574 284.279H323.668V280.775H324.688V289.6H323.668V288.592H323.574C323.445 288.826 323.283 289.027 323.088 289.195C322.893 289.359 322.67 289.486 322.42 289.576C322.17 289.666 321.898 289.711 321.605 289.711ZM321.84 288.809C322.223 288.809 322.553 288.713 322.83 288.521C323.107 288.33 323.32 288.059 323.469 287.707C323.617 287.352 323.691 286.932 323.691 286.447V286.436C323.691 285.947 323.617 285.527 323.469 285.176C323.32 284.824 323.107 284.553 322.83 284.361C322.553 284.17 322.223 284.074 321.84 284.074C321.457 284.074 321.127 284.17 320.85 284.361C320.576 284.549 320.365 284.818 320.217 285.17C320.072 285.521 320 285.943 320 286.436V286.447C320 286.936 320.072 287.357 320.217 287.713C320.365 288.064 320.576 288.336 320.85 288.527C321.127 288.715 321.457 288.809 321.84 288.809ZM328.812 289.711C328.344 289.711 327.93 289.641 327.57 289.5C327.211 289.355 326.922 289.154 326.703 288.896C326.488 288.639 326.361 288.336 326.322 287.988H327.365C327.451 288.25 327.619 288.461 327.869 288.621C328.119 288.781 328.445 288.861 328.848 288.861C329.133 288.861 329.383 288.82 329.598 288.738C329.816 288.652 329.988 288.537 330.113 288.393C330.238 288.244 330.301 288.074 330.301 287.883V287.871C330.301 287.656 330.215 287.475 330.043 287.326C329.871 287.174 329.59 287.051 329.199 286.957L328.221 286.723C327.826 286.629 327.502 286.508 327.248 286.359C326.994 286.207 326.807 286.021 326.686 285.803C326.564 285.58 326.504 285.318 326.504 285.018V285.012C326.504 284.66 326.605 284.346 326.809 284.068C327.016 283.791 327.297 283.572 327.652 283.412C328.008 283.252 328.408 283.172 328.854 283.172C329.295 283.172 329.686 283.242 330.025 283.383C330.369 283.52 330.645 283.715 330.852 283.969C331.062 284.223 331.191 284.521 331.238 284.865H330.236C330.17 284.615 330.018 284.412 329.779 284.256C329.541 284.1 329.23 284.021 328.848 284.021C328.598 284.021 328.375 284.062 328.18 284.145C327.984 284.223 327.83 284.332 327.717 284.473C327.604 284.613 327.547 284.777 327.547 284.965V284.977C327.547 285.117 327.584 285.242 327.658 285.352C327.732 285.461 327.848 285.557 328.004 285.639C328.16 285.721 328.361 285.793 328.607 285.855L329.58 286.09C330.174 286.234 330.615 286.441 330.904 286.711C331.197 286.98 331.344 287.342 331.344 287.795V287.807C331.344 288.182 331.232 288.514 331.01 288.803C330.787 289.088 330.484 289.311 330.102 289.471C329.723 289.631 329.293 289.711 328.812 289.711ZM333.758 289.658C333.551 289.658 333.371 289.584 333.219 289.436C333.07 289.283 332.996 289.104 332.996 288.896C332.996 288.686 333.07 288.506 333.219 288.357C333.371 288.209 333.551 288.135 333.758 288.135C333.969 288.135 334.148 288.209 334.297 288.357C334.445 288.506 334.52 288.686 334.52 288.896C334.52 289.104 334.445 289.283 334.297 289.436C334.148 289.584 333.969 289.658 333.758 289.658ZM29.2871 303.799C28.6699 303.799 28.1309 303.699 27.6699 303.5C27.2129 303.297 26.8496 303.02 26.5801 302.668C26.3145 302.312 26.1602 301.906 26.1172 301.449L26.1113 301.385H27.166L27.1719 301.449C27.1992 301.73 27.3066 301.975 27.4941 302.182C27.6855 302.385 27.9395 302.543 28.2559 302.656C28.5762 302.77 28.9395 302.826 29.3457 302.826C29.7285 302.826 30.0684 302.766 30.3652 302.645C30.666 302.52 30.9023 302.348 31.0742 302.129C31.2461 301.91 31.332 301.658 31.332 301.373V301.367C31.332 301.016 31.2031 300.721 30.9453 300.482C30.6875 300.24 30.2676 300.055 29.6855 299.926L28.748 299.721C27.9004 299.533 27.2832 299.244 26.8965 298.854C26.5137 298.459 26.3223 297.955 26.3223 297.342V297.336C26.3262 296.867 26.4531 296.453 26.7031 296.094C26.957 295.734 27.3066 295.453 27.752 295.25C28.2012 295.047 28.7168 294.945 29.2988 294.945C29.8613 294.945 30.3594 295.047 30.793 295.25C31.2266 295.449 31.5703 295.719 31.8242 296.059C32.082 296.398 32.2246 296.779 32.252 297.201L32.2578 297.283H31.2031L31.1914 297.207C31.1523 296.957 31.0508 296.736 30.8867 296.545C30.7227 296.35 30.5039 296.195 30.2305 296.082C29.957 295.969 29.6367 295.914 29.2695 295.918C28.918 295.918 28.6016 295.973 28.3203 296.082C28.0391 296.191 27.8145 296.35 27.6465 296.557C27.4824 296.76 27.4004 297.01 27.4004 297.307V297.312C27.4004 297.648 27.5254 297.932 27.7754 298.162C28.0254 298.393 28.4375 298.57 29.0117 298.695L29.9492 298.906C30.5391 299.035 31.0137 299.203 31.373 299.41C31.7324 299.617 31.9941 299.871 32.1582 300.172C32.3262 300.469 32.4102 300.82 32.4102 301.227V301.232C32.4102 301.76 32.2812 302.215 32.0234 302.598C31.7656 302.98 31.4023 303.277 30.9336 303.488C30.4648 303.695 29.916 303.799 29.2871 303.799ZM36.2832 303.646C35.6348 303.646 35.1641 303.516 34.8711 303.254C34.582 302.992 34.4375 302.561 34.4375 301.959V298.127H33.4414V297.283H34.4375V295.648H35.4922V297.283H36.875V298.127H35.4922V301.701C35.4922 302.072 35.5625 302.34 35.7031 302.504C35.8438 302.664 36.0781 302.744 36.4062 302.744C36.4961 302.744 36.5723 302.742 36.6348 302.738C36.7012 302.734 36.7812 302.729 36.875 302.721V303.588C36.7773 303.604 36.6797 303.617 36.582 303.629C36.4844 303.641 36.3848 303.646 36.2832 303.646ZM40.1328 303.711C39.7344 303.711 39.375 303.635 39.0547 303.482C38.7383 303.33 38.4863 303.113 38.2988 302.832C38.1152 302.551 38.0234 302.219 38.0234 301.836V301.824C38.0234 301.449 38.1133 301.129 38.293 300.863C38.4727 300.594 38.7344 300.383 39.0781 300.23C39.4219 300.078 39.8379 299.988 40.3262 299.961L42.6465 299.82V300.635L40.4492 300.775C39.9688 300.803 39.6172 300.902 39.3945 301.074C39.1758 301.246 39.0664 301.488 39.0664 301.801V301.812C39.0664 302.133 39.1875 302.383 39.4297 302.562C39.6719 302.738 39.9766 302.826 40.3438 302.826C40.6914 302.826 41 302.758 41.2695 302.621C41.5391 302.48 41.75 302.291 41.9023 302.053C42.0586 301.814 42.1367 301.545 42.1367 301.244V299.275C42.1367 298.885 42.0176 298.588 41.7793 298.385C41.5449 298.178 41.1914 298.074 40.7188 298.074C40.3398 298.074 40.0293 298.143 39.7871 298.279C39.5449 298.412 39.3828 298.602 39.3008 298.848L39.2949 298.865H38.2754L38.2812 298.83C38.3359 298.498 38.4727 298.209 38.6914 297.963C38.9141 297.713 39.2012 297.52 39.5527 297.383C39.9043 297.242 40.3047 297.172 40.7539 297.172C41.2695 297.172 41.7051 297.256 42.0605 297.424C42.4199 297.592 42.6914 297.834 42.875 298.15C43.0625 298.463 43.1562 298.838 43.1562 299.275V303.6H42.1367V302.668H42.043C41.9102 302.891 41.748 303.08 41.5566 303.236C41.3691 303.393 41.1562 303.512 40.918 303.594C40.6797 303.672 40.418 303.711 40.1328 303.711ZM45.0195 303.6V297.283H46.0391V298.221H46.1328C46.2539 297.889 46.459 297.631 46.748 297.447C47.0371 297.264 47.3945 297.172 47.8203 297.172C47.918 297.172 48.0137 297.178 48.1074 297.189C48.2051 297.197 48.2793 297.205 48.3301 297.213V298.203C48.2246 298.184 48.1211 298.17 48.0195 298.162C47.9219 298.15 47.8164 298.145 47.7031 298.145C47.3789 298.145 47.0918 298.209 46.8418 298.338C46.5918 298.467 46.3945 298.646 46.25 298.877C46.1094 299.107 46.0391 299.377 46.0391 299.686V303.6H45.0195ZM51.9512 303.646C51.3027 303.646 50.832 303.516 50.5391 303.254C50.25 302.992 50.1055 302.561 50.1055 301.959V298.127H49.1094V297.283H50.1055V295.648H51.1602V297.283H52.543V298.127H51.1602V301.701C51.1602 302.072 51.2305 302.34 51.3711 302.504C51.5117 302.664 51.7461 302.744 52.0742 302.744C52.1641 302.744 52.2402 302.742 52.3027 302.738C52.3691 302.734 52.4492 302.729 52.543 302.721V303.588C52.4453 303.604 52.3477 303.617 52.25 303.629C52.1523 303.641 52.0527 303.646 51.9512 303.646ZM60.582 303.711C60.2891 303.711 60.0176 303.666 59.7676 303.576C59.5176 303.486 59.2949 303.359 59.0996 303.195C58.9043 303.027 58.7422 302.826 58.6133 302.592H58.5195V303.6H57.5V294.775H58.5195V298.279H58.6133C58.7305 298.053 58.8867 297.857 59.082 297.693C59.2812 297.529 59.5078 297.402 59.7617 297.312C60.0195 297.219 60.293 297.172 60.582 297.172C61.1172 297.172 61.582 297.307 61.9766 297.576C62.375 297.846 62.6836 298.225 62.9023 298.713C63.1211 299.201 63.2305 299.775 63.2305 300.436V300.447C63.2305 301.104 63.1211 301.678 62.9023 302.17C62.6836 302.658 62.375 303.037 61.9766 303.307C61.582 303.576 61.1172 303.711 60.582 303.711ZM60.3477 302.809C60.7344 302.809 61.0645 302.715 61.3379 302.527C61.6113 302.336 61.8203 302.064 61.9648 301.713C62.1133 301.357 62.1875 300.936 62.1875 300.447V300.436C62.1875 299.943 62.1133 299.521 61.9648 299.17C61.8203 298.818 61.6113 298.549 61.3379 298.361C61.0645 298.17 60.7344 298.074 60.3477 298.074C59.9648 298.074 59.6348 298.17 59.3574 298.361C59.0801 298.553 58.8672 298.824 58.7188 299.176C58.5703 299.527 58.4961 299.947 58.4961 300.436V300.447C58.4961 300.932 58.5703 301.352 58.7188 301.707C58.8672 302.059 59.0801 302.33 59.3574 302.521C59.6348 302.713 59.9648 302.809 60.3477 302.809ZM65.1172 305.814C65.0508 305.814 64.9766 305.811 64.8945 305.803C64.8125 305.799 64.7363 305.791 64.666 305.779V304.941C64.7285 304.953 64.7969 304.961 64.8711 304.965C64.9453 304.969 65.0176 304.971 65.0879 304.971C65.377 304.971 65.6133 304.896 65.7969 304.748C65.9844 304.6 66.1348 304.344 66.248 303.98L66.3652 303.605L64.0273 297.283H65.1172L67.0625 303.119L66.6582 302.48H67.1387L66.7344 303.119L68.6738 297.283H69.7461L67.2793 303.986C67.1074 304.459 66.9258 304.828 66.7344 305.094C66.543 305.359 66.3184 305.545 66.0605 305.65C65.8066 305.76 65.4922 305.814 65.1172 305.814ZM76.2031 303.711C75.8047 303.711 75.4453 303.635 75.125 303.482C74.8086 303.33 74.5566 303.113 74.3691 302.832C74.1855 302.551 74.0938 302.219 74.0938 301.836V301.824C74.0938 301.449 74.1836 301.129 74.3633 300.863C74.543 300.594 74.8047 300.383 75.1484 300.23C75.4922 300.078 75.9082 299.988 76.3965 299.961L78.7168 299.82V300.635L76.5195 300.775C76.0391 300.803 75.6875 300.902 75.4648 301.074C75.2461 301.246 75.1367 301.488 75.1367 301.801V301.812C75.1367 302.133 75.2578 302.383 75.5 302.562C75.7422 302.738 76.0469 302.826 76.4141 302.826C76.7617 302.826 77.0703 302.758 77.3398 302.621C77.6094 302.48 77.8203 302.291 77.9727 302.053C78.1289 301.814 78.207 301.545 78.207 301.244V299.275C78.207 298.885 78.0879 298.588 77.8496 298.385C77.6152 298.178 77.2617 298.074 76.7891 298.074C76.4102 298.074 76.0996 298.143 75.8574 298.279C75.6152 298.412 75.4531 298.602 75.3711 298.848L75.3652 298.865H74.3457L74.3516 298.83C74.4062 298.498 74.543 298.209 74.7617 297.963C74.9844 297.713 75.2715 297.52 75.623 297.383C75.9746 297.242 76.375 297.172 76.8242 297.172C77.3398 297.172 77.7754 297.256 78.1309 297.424C78.4902 297.592 78.7617 297.834 78.9453 298.15C79.1328 298.463 79.2266 298.838 79.2266 299.275V303.6H78.207V302.668H78.1133C77.9805 302.891 77.8184 303.08 77.627 303.236C77.4395 303.393 77.2266 303.512 76.9883 303.594C76.75 303.672 76.4883 303.711 76.2031 303.711ZM83.4219 303.711C82.8906 303.711 82.4258 303.576 82.0273 303.307C81.6289 303.037 81.3203 302.658 81.1016 302.17C80.8828 301.678 80.7734 301.104 80.7734 300.447V300.436C80.7734 299.775 80.8828 299.201 81.1016 298.713C81.3203 298.225 81.627 297.846 82.0215 297.576C82.4199 297.307 82.8867 297.172 83.4219 297.172C83.7109 297.172 83.9824 297.219 84.2363 297.312C84.4941 297.402 84.7227 297.529 84.9219 297.693C85.1211 297.857 85.2773 298.053 85.3906 298.279H85.4844V294.775H86.5039V303.6H85.4844V302.592H85.3906C85.2617 302.826 85.0996 303.027 84.9043 303.195C84.709 303.359 84.4863 303.486 84.2363 303.576C83.9863 303.666 83.7148 303.711 83.4219 303.711ZM83.6562 302.809C84.0391 302.809 84.3691 302.713 84.6465 302.521C84.9238 302.33 85.1367 302.059 85.2852 301.707C85.4336 301.352 85.5078 300.932 85.5078 300.447V300.436C85.5078 299.947 85.4336 299.527 85.2852 299.176C85.1367 298.824 84.9238 298.553 84.6465 298.361C84.3691 298.17 84.0391 298.074 83.6562 298.074C83.2734 298.074 82.9434 298.17 82.666 298.361C82.3926 298.549 82.1816 298.818 82.0332 299.17C81.8887 299.521 81.8164 299.943 81.8164 300.436V300.447C81.8164 300.936 81.8887 301.357 82.0332 301.713C82.1816 302.064 82.3926 302.336 82.666 302.527C82.9434 302.715 83.2734 302.809 83.6562 302.809ZM90.793 303.711C90.2617 303.711 89.7969 303.576 89.3984 303.307C89 303.037 88.6914 302.658 88.4727 302.17C88.2539 301.678 88.1445 301.104 88.1445 300.447V300.436C88.1445 299.775 88.2539 299.201 88.4727 298.713C88.6914 298.225 88.998 297.846 89.3926 297.576C89.791 297.307 90.2578 297.172 90.793 297.172C91.082 297.172 91.3535 297.219 91.6074 297.312C91.8652 297.402 92.0938 297.529 92.293 297.693C92.4922 297.857 92.6484 298.053 92.7617 298.279H92.8555V294.775H93.875V303.6H92.8555V302.592H92.7617C92.6328 302.826 92.4707 303.027 92.2754 303.195C92.0801 303.359 91.8574 303.486 91.6074 303.576C91.3574 303.666 91.0859 303.711 90.793 303.711ZM91.0273 302.809C91.4102 302.809 91.7402 302.713 92.0176 302.521C92.2949 302.33 92.5078 302.059 92.6562 301.707C92.8047 301.352 92.8789 300.932 92.8789 300.447V300.436C92.8789 299.947 92.8047 299.527 92.6562 299.176C92.5078 298.824 92.2949 298.553 92.0176 298.361C91.7402 298.17 91.4102 298.074 91.0273 298.074C90.6445 298.074 90.3145 298.17 90.0371 298.361C89.7637 298.549 89.5527 298.818 89.4043 299.17C89.2598 299.521 89.1875 299.943 89.1875 300.436V300.447C89.1875 300.936 89.2598 301.357 89.4043 301.713C89.5527 302.064 89.7637 302.336 90.0371 302.527C90.3145 302.715 90.6445 302.809 91.0273 302.809ZM95.8555 303.6V297.283H96.875V303.6H95.8555ZM96.3711 296.064C96.1797 296.064 96.0137 295.996 95.873 295.859C95.7363 295.719 95.668 295.553 95.668 295.361C95.668 295.166 95.7363 295 95.873 294.863C96.0137 294.727 96.1797 294.658 96.3711 294.658C96.5664 294.658 96.7324 294.727 96.8691 294.863C97.0059 295 97.0742 295.166 97.0742 295.361C97.0742 295.553 97.0059 295.719 96.8691 295.859C96.7324 295.996 96.5664 296.064 96.3711 296.064ZM98.7969 303.6V297.283H99.8164V298.232H99.9102C100.07 297.896 100.301 297.637 100.602 297.453C100.902 297.266 101.285 297.172 101.75 297.172C102.461 297.172 103.006 297.375 103.385 297.781C103.768 298.184 103.959 298.76 103.959 299.51V303.6H102.939V299.756C102.939 299.186 102.818 298.764 102.576 298.49C102.338 298.213 101.967 298.074 101.463 298.074C101.127 298.074 100.836 298.146 100.59 298.291C100.344 298.436 100.152 298.641 100.016 298.906C99.8828 299.172 99.8164 299.49 99.8164 299.861V303.6H98.7969ZM108.406 305.826C107.898 305.826 107.455 305.754 107.076 305.609C106.697 305.469 106.395 305.268 106.168 305.006C105.945 304.748 105.807 304.447 105.752 304.104L105.764 304.098H106.818L106.824 304.104C106.879 304.342 107.043 304.537 107.316 304.689C107.59 304.846 107.953 304.924 108.406 304.924C108.973 304.924 109.414 304.795 109.73 304.537C110.051 304.283 110.211 303.924 110.211 303.459V302.182H110.117C109.984 302.412 109.818 302.609 109.619 302.773C109.42 302.938 109.195 303.062 108.945 303.148C108.695 303.23 108.426 303.271 108.137 303.271C107.594 303.271 107.123 303.143 106.725 302.885C106.33 302.623 106.025 302.264 105.811 301.807C105.596 301.35 105.488 300.826 105.488 300.236V300.225C105.488 299.635 105.596 299.111 105.811 298.654C106.029 298.193 106.338 297.832 106.736 297.57C107.135 297.305 107.609 297.172 108.16 297.172C108.457 297.172 108.73 297.219 108.98 297.312C109.23 297.406 109.451 297.539 109.643 297.711C109.838 297.883 110 298.088 110.129 298.326H110.199V297.283H111.219V303.512C111.219 303.98 111.104 304.389 110.873 304.736C110.646 305.084 110.322 305.352 109.9 305.539C109.479 305.73 108.98 305.826 108.406 305.826ZM108.359 302.369C108.75 302.369 109.084 302.279 109.361 302.1C109.643 301.916 109.857 301.664 110.006 301.344C110.158 301.023 110.234 300.654 110.234 300.236V300.225C110.234 299.807 110.158 299.436 110.006 299.111C109.857 298.787 109.643 298.533 109.361 298.35C109.084 298.166 108.75 298.074 108.359 298.074C107.969 298.074 107.637 298.166 107.363 298.35C107.094 298.533 106.887 298.787 106.742 299.111C106.602 299.436 106.531 299.807 106.531 300.225V300.236C106.531 300.654 106.602 301.023 106.742 301.344C106.887 301.664 107.094 301.916 107.363 302.1C107.637 302.279 107.969 302.369 108.359 302.369ZM117.031 305.814C116.965 305.814 116.891 305.811 116.809 305.803C116.727 305.799 116.65 305.791 116.58 305.779V304.941C116.643 304.953 116.711 304.961 116.785 304.965C116.859 304.969 116.932 304.971 117.002 304.971C117.291 304.971 117.527 304.896 117.711 304.748C117.898 304.6 118.049 304.344 118.162 303.98L118.279 303.605L115.941 297.283H117.031L118.977 303.119L118.572 302.48H119.053L118.648 303.119L120.588 297.283H121.66L119.193 303.986C119.021 304.459 118.84 304.828 118.648 305.094C118.457 305.359 118.232 305.545 117.975 305.65C117.721 305.76 117.406 305.814 117.031 305.814ZM125.369 303.711C124.771 303.711 124.254 303.58 123.816 303.318C123.383 303.053 123.047 302.676 122.809 302.188C122.574 301.699 122.457 301.119 122.457 300.447V300.436C122.457 299.76 122.574 299.178 122.809 298.689C123.047 298.201 123.383 297.826 123.816 297.564C124.254 297.303 124.771 297.172 125.369 297.172C125.971 297.172 126.488 297.303 126.922 297.564C127.355 297.826 127.689 298.201 127.924 298.689C128.162 299.178 128.281 299.76 128.281 300.436V300.447C128.281 301.119 128.162 301.699 127.924 302.188C127.689 302.676 127.355 303.053 126.922 303.318C126.488 303.58 125.971 303.711 125.369 303.711ZM125.369 302.809C125.768 302.809 126.105 302.715 126.383 302.527C126.66 302.34 126.871 302.07 127.016 301.719C127.164 301.367 127.238 300.943 127.238 300.447V300.436C127.238 299.936 127.164 299.51 127.016 299.158C126.871 298.807 126.66 298.539 126.383 298.355C126.105 298.168 125.768 298.074 125.369 298.074C124.971 298.074 124.633 298.168 124.355 298.355C124.078 298.539 123.865 298.807 123.717 299.158C123.572 299.51 123.5 299.936 123.5 300.436V300.447C123.5 300.943 123.572 301.367 123.717 301.719C123.865 302.07 124.078 302.34 124.355 302.527C124.633 302.715 124.971 302.809 125.369 302.809ZM131.979 303.711C131.502 303.711 131.102 303.621 130.777 303.441C130.453 303.258 130.209 302.992 130.045 302.645C129.885 302.293 129.805 301.869 129.805 301.373V297.283H130.824V301.127C130.824 301.693 130.934 302.115 131.152 302.393C131.375 302.67 131.738 302.809 132.242 302.809C132.52 302.809 132.764 302.768 132.975 302.686C133.189 302.604 133.369 302.486 133.514 302.334C133.658 302.178 133.766 301.99 133.836 301.771C133.91 301.549 133.947 301.299 133.947 301.021V297.283H134.967V303.6H133.947V302.656H133.854C133.752 302.879 133.613 303.07 133.438 303.23C133.262 303.387 133.051 303.506 132.805 303.588C132.562 303.67 132.287 303.711 131.979 303.711ZM136.871 303.6V297.283H137.891V298.221H137.984C138.105 297.889 138.311 297.631 138.6 297.447C138.889 297.264 139.246 297.172 139.672 297.172C139.77 297.172 139.865 297.178 139.959 297.189C140.057 297.197 140.131 297.205 140.182 297.213V298.203C140.076 298.184 139.973 298.17 139.871 298.162C139.773 298.15 139.668 298.145 139.555 298.145C139.23 298.145 138.943 298.209 138.693 298.338C138.443 298.467 138.246 298.646 138.102 298.877C137.961 299.107 137.891 299.377 137.891 299.686V303.6H136.871ZM145.238 303.6V298.127H144.189V297.283H145.238V296.58C145.238 296.158 145.307 295.811 145.443 295.537C145.584 295.26 145.791 295.055 146.064 294.922C146.338 294.785 146.674 294.717 147.072 294.717C147.197 294.717 147.314 294.723 147.424 294.734C147.537 294.742 147.646 294.756 147.752 294.775V295.59C147.689 295.578 147.617 295.57 147.535 295.566C147.453 295.562 147.367 295.561 147.277 295.561C146.914 295.561 146.652 295.648 146.492 295.824C146.336 296 146.258 296.262 146.258 296.609V297.283H147.693V298.127H146.258V303.6H145.238ZM149.188 303.6V297.283H150.207V303.6H149.188ZM149.703 296.064C149.512 296.064 149.346 295.996 149.205 295.859C149.068 295.719 149 295.553 149 295.361C149 295.166 149.068 295 149.205 294.863C149.346 294.727 149.512 294.658 149.703 294.658C149.898 294.658 150.064 294.727 150.201 294.863C150.338 295 150.406 295.166 150.406 295.361C150.406 295.553 150.338 295.719 150.201 295.859C150.064 295.996 149.898 296.064 149.703 296.064ZM152.129 303.6V297.283H153.148V298.221H153.242C153.363 297.889 153.568 297.631 153.857 297.447C154.146 297.264 154.504 297.172 154.93 297.172C155.027 297.172 155.123 297.178 155.217 297.189C155.314 297.197 155.389 297.205 155.439 297.213V298.203C155.334 298.184 155.23 298.17 155.129 298.162C155.031 298.15 154.926 298.145 154.812 298.145C154.488 298.145 154.201 298.209 153.951 298.338C153.701 298.467 153.504 298.646 153.359 298.877C153.219 299.107 153.148 299.377 153.148 299.686V303.6H152.129ZM158.75 303.711C158.281 303.711 157.867 303.641 157.508 303.5C157.148 303.355 156.859 303.154 156.641 302.896C156.426 302.639 156.299 302.336 156.26 301.988H157.303C157.389 302.25 157.557 302.461 157.807 302.621C158.057 302.781 158.383 302.861 158.785 302.861C159.07 302.861 159.32 302.82 159.535 302.738C159.754 302.652 159.926 302.537 160.051 302.393C160.176 302.244 160.238 302.074 160.238 301.883V301.871C160.238 301.656 160.152 301.475 159.98 301.326C159.809 301.174 159.527 301.051 159.137 300.957L158.158 300.723C157.764 300.629 157.439 300.508 157.186 300.359C156.932 300.207 156.744 300.021 156.623 299.803C156.502 299.58 156.441 299.318 156.441 299.018V299.012C156.441 298.66 156.543 298.346 156.746 298.068C156.953 297.791 157.234 297.572 157.59 297.412C157.945 297.252 158.346 297.172 158.791 297.172C159.232 297.172 159.623 297.242 159.963 297.383C160.307 297.52 160.582 297.715 160.789 297.969C161 298.223 161.129 298.521 161.176 298.865H160.174C160.107 298.615 159.955 298.412 159.717 298.256C159.479 298.1 159.168 298.021 158.785 298.021C158.535 298.021 158.312 298.062 158.117 298.145C157.922 298.223 157.768 298.332 157.654 298.473C157.541 298.613 157.484 298.777 157.484 298.965V298.977C157.484 299.117 157.521 299.242 157.596 299.352C157.67 299.461 157.785 299.557 157.941 299.639C158.098 299.721 158.299 299.793 158.545 299.855L159.518 300.09C160.111 300.234 160.553 300.441 160.842 300.711C161.135 300.98 161.281 301.342 161.281 301.795V301.807C161.281 302.182 161.17 302.514 160.947 302.803C160.725 303.088 160.422 303.311 160.039 303.471C159.66 303.631 159.23 303.711 158.75 303.711ZM165.049 303.646C164.4 303.646 163.93 303.516 163.637 303.254C163.348 302.992 163.203 302.561 163.203 301.959V298.127H162.207V297.283H163.203V295.648H164.258V297.283H165.641V298.127H164.258V301.701C164.258 302.072 164.328 302.34 164.469 302.504C164.609 302.664 164.844 302.744 165.172 302.744C165.262 302.744 165.338 302.742 165.4 302.738C165.467 302.734 165.547 302.729 165.641 302.721V303.588C165.543 303.604 165.445 303.617 165.348 303.629C165.25 303.641 165.15 303.646 165.049 303.646ZM172.871 303.711C172.34 303.711 171.875 303.576 171.477 303.307C171.078 303.037 170.77 302.658 170.551 302.17C170.332 301.678 170.223 301.104 170.223 300.447V300.436C170.223 299.775 170.332 299.201 170.551 298.713C170.77 298.225 171.076 297.846 171.471 297.576C171.869 297.307 172.336 297.172 172.871 297.172C173.16 297.172 173.432 297.219 173.686 297.312C173.943 297.402 174.172 297.529 174.371 297.693C174.57 297.857 174.727 298.053 174.84 298.279H174.934V294.775H175.953V303.6H174.934V302.592H174.84C174.711 302.826 174.549 303.027 174.354 303.195C174.158 303.359 173.936 303.486 173.686 303.576C173.436 303.666 173.164 303.711 172.871 303.711ZM173.105 302.809C173.488 302.809 173.818 302.713 174.096 302.521C174.373 302.33 174.586 302.059 174.734 301.707C174.883 301.352 174.957 300.932 174.957 300.447V300.436C174.957 299.947 174.883 299.527 174.734 299.176C174.586 298.824 174.373 298.553 174.096 298.361C173.818 298.17 173.488 298.074 173.105 298.074C172.723 298.074 172.393 298.17 172.115 298.361C171.842 298.549 171.631 298.818 171.482 299.17C171.338 299.521 171.266 299.943 171.266 300.436V300.447C171.266 300.936 171.338 301.357 171.482 301.713C171.631 302.064 171.842 302.336 172.115 302.527C172.393 302.715 172.723 302.809 173.105 302.809ZM180.488 303.711C179.887 303.711 179.369 303.578 178.936 303.312C178.506 303.047 178.174 302.672 177.939 302.188C177.709 301.699 177.594 301.125 177.594 300.465V300.459C177.594 299.807 177.709 299.234 177.939 298.742C178.174 298.25 178.504 297.865 178.93 297.588C179.355 297.311 179.854 297.172 180.424 297.172C180.998 297.172 181.49 297.305 181.9 297.57C182.314 297.836 182.631 298.207 182.85 298.684C183.072 299.156 183.184 299.707 183.184 300.336V300.734H178.121V299.92H182.662L182.158 300.664V300.26C182.158 299.764 182.084 299.355 181.936 299.035C181.787 298.715 181.582 298.477 181.32 298.32C181.059 298.16 180.758 298.08 180.418 298.08C180.078 298.08 179.773 298.164 179.504 298.332C179.238 298.496 179.027 298.74 178.871 299.064C178.715 299.389 178.637 299.787 178.637 300.26V300.664C178.637 301.113 178.713 301.498 178.865 301.818C179.018 302.135 179.234 302.379 179.516 302.551C179.797 302.719 180.129 302.803 180.512 302.803C180.797 302.803 181.045 302.764 181.256 302.686C181.467 302.607 181.641 302.508 181.777 302.387C181.914 302.266 182.01 302.143 182.064 302.018L182.088 301.965H183.107L183.096 302.012C183.041 302.227 182.943 302.436 182.803 302.639C182.666 302.838 182.488 303.02 182.27 303.184C182.051 303.344 181.791 303.473 181.49 303.57C181.193 303.664 180.859 303.711 180.488 303.711ZM184.824 303.6V294.775H185.844V303.6H184.824ZM187.824 303.6V297.283H188.844V303.6H187.824ZM188.34 296.064C188.148 296.064 187.982 295.996 187.842 295.859C187.705 295.719 187.637 295.553 187.637 295.361C187.637 295.166 187.705 295 187.842 294.863C187.982 294.727 188.148 294.658 188.34 294.658C188.535 294.658 188.701 294.727 188.838 294.863C188.975 295 189.043 295.166 189.043 295.361C189.043 295.553 188.975 295.719 188.838 295.859C188.701 295.996 188.535 296.064 188.34 296.064ZM192.553 303.6L190.215 297.283H191.293L193.021 302.486H193.115L194.844 297.283H195.922L193.584 303.6H192.553ZM199.613 303.711C199.012 303.711 198.494 303.578 198.061 303.312C197.631 303.047 197.299 302.672 197.064 302.188C196.834 301.699 196.719 301.125 196.719 300.465V300.459C196.719 299.807 196.834 299.234 197.064 298.742C197.299 298.25 197.629 297.865 198.055 297.588C198.48 297.311 198.979 297.172 199.549 297.172C200.123 297.172 200.615 297.305 201.025 297.57C201.439 297.836 201.756 298.207 201.975 298.684C202.197 299.156 202.309 299.707 202.309 300.336V300.734H197.246V299.92H201.787L201.283 300.664V300.26C201.283 299.764 201.209 299.355 201.061 299.035C200.912 298.715 200.707 298.477 200.445 298.32C200.184 298.16 199.883 298.08 199.543 298.08C199.203 298.08 198.898 298.164 198.629 298.332C198.363 298.496 198.152 298.74 197.996 299.064C197.84 299.389 197.762 299.787 197.762 300.26V300.664C197.762 301.113 197.838 301.498 197.99 301.818C198.143 302.135 198.359 302.379 198.641 302.551C198.922 302.719 199.254 302.803 199.637 302.803C199.922 302.803 200.17 302.764 200.381 302.686C200.592 302.607 200.766 302.508 200.902 302.387C201.039 302.266 201.135 302.143 201.189 302.018L201.213 301.965H202.232L202.221 302.012C202.166 302.227 202.068 302.436 201.928 302.639C201.791 302.838 201.613 303.02 201.395 303.184C201.176 303.344 200.916 303.473 200.615 303.57C200.318 303.664 199.984 303.711 199.613 303.711ZM203.891 303.6V297.283H204.91V298.221H205.004C205.125 297.889 205.33 297.631 205.619 297.447C205.908 297.264 206.266 297.172 206.691 297.172C206.789 297.172 206.885 297.178 206.979 297.189C207.076 297.197 207.15 297.205 207.201 297.213V298.203C207.096 298.184 206.992 298.17 206.891 298.162C206.793 298.15 206.688 298.145 206.574 298.145C206.25 298.145 205.963 298.209 205.713 298.338C205.463 298.467 205.266 298.646 205.121 298.877C204.98 299.107 204.91 299.377 204.91 299.686V303.6H203.891ZM209.059 305.814C208.992 305.814 208.918 305.811 208.836 305.803C208.754 305.799 208.678 305.791 208.607 305.779V304.941C208.67 304.953 208.738 304.961 208.812 304.965C208.887 304.969 208.959 304.971 209.029 304.971C209.318 304.971 209.555 304.896 209.738 304.748C209.926 304.6 210.076 304.344 210.189 303.98L210.307 303.605L207.969 297.283H209.059L211.004 303.119L210.6 302.48H211.08L210.676 303.119L212.615 297.283H213.688L211.221 303.986C211.049 304.459 210.867 304.828 210.676 305.094C210.484 305.359 210.26 305.545 210.002 305.65C209.748 305.76 209.434 305.814 209.059 305.814ZM218.469 303.6V294.775H219.488V303.6H218.469ZM224.041 303.711C223.443 303.711 222.926 303.58 222.488 303.318C222.055 303.053 221.719 302.676 221.48 302.188C221.246 301.699 221.129 301.119 221.129 300.447V300.436C221.129 299.76 221.246 299.178 221.48 298.689C221.719 298.201 222.055 297.826 222.488 297.564C222.926 297.303 223.443 297.172 224.041 297.172C224.643 297.172 225.16 297.303 225.594 297.564C226.027 297.826 226.361 298.201 226.596 298.689C226.834 299.178 226.953 299.76 226.953 300.436V300.447C226.953 301.119 226.834 301.699 226.596 302.188C226.361 302.676 226.027 303.053 225.594 303.318C225.16 303.58 224.643 303.711 224.041 303.711ZM224.041 302.809C224.439 302.809 224.777 302.715 225.055 302.527C225.332 302.34 225.543 302.07 225.688 301.719C225.836 301.367 225.91 300.943 225.91 300.447V300.436C225.91 299.936 225.836 299.51 225.688 299.158C225.543 298.807 225.332 298.539 225.055 298.355C224.777 298.168 224.439 298.074 224.041 298.074C223.643 298.074 223.305 298.168 223.027 298.355C222.75 298.539 222.537 298.807 222.389 299.158C222.244 299.51 222.172 299.936 222.172 300.436V300.447C222.172 300.943 222.244 301.367 222.389 301.719C222.537 302.07 222.75 302.34 223.027 302.527C223.305 302.715 223.643 302.809 224.041 302.809ZM230.27 303.711C229.871 303.711 229.512 303.635 229.191 303.482C228.875 303.33 228.623 303.113 228.436 302.832C228.252 302.551 228.16 302.219 228.16 301.836V301.824C228.16 301.449 228.25 301.129 228.43 300.863C228.609 300.594 228.871 300.383 229.215 300.23C229.559 300.078 229.975 299.988 230.463 299.961L232.783 299.82V300.635L230.586 300.775C230.105 300.803 229.754 300.902 229.531 301.074C229.312 301.246 229.203 301.488 229.203 301.801V301.812C229.203 302.133 229.324 302.383 229.566 302.562C229.809 302.738 230.113 302.826 230.48 302.826C230.828 302.826 231.137 302.758 231.406 302.621C231.676 302.48 231.887 302.291 232.039 302.053C232.195 301.814 232.273 301.545 232.273 301.244V299.275C232.273 298.885 232.154 298.588 231.916 298.385C231.682 298.178 231.328 298.074 230.855 298.074C230.477 298.074 230.166 298.143 229.924 298.279C229.682 298.412 229.52 298.602 229.438 298.848L229.432 298.865H228.412L228.418 298.83C228.473 298.498 228.609 298.209 228.828 297.963C229.051 297.713 229.338 297.52 229.689 297.383C230.041 297.242 230.441 297.172 230.891 297.172C231.406 297.172 231.842 297.256 232.197 297.424C232.557 297.592 232.828 297.834 233.012 298.15C233.199 298.463 233.293 298.838 233.293 299.275V303.6H232.273V302.668H232.18C232.047 302.891 231.885 303.08 231.693 303.236C231.506 303.393 231.293 303.512 231.055 303.594C230.816 303.672 230.555 303.711 230.27 303.711ZM237.488 303.711C236.957 303.711 236.492 303.576 236.094 303.307C235.695 303.037 235.387 302.658 235.168 302.17C234.949 301.678 234.84 301.104 234.84 300.447V300.436C234.84 299.775 234.949 299.201 235.168 298.713C235.387 298.225 235.693 297.846 236.088 297.576C236.486 297.307 236.953 297.172 237.488 297.172C237.777 297.172 238.049 297.219 238.303 297.312C238.561 297.402 238.789 297.529 238.988 297.693C239.188 297.857 239.344 298.053 239.457 298.279H239.551V294.775H240.57V303.6H239.551V302.592H239.457C239.328 302.826 239.166 303.027 238.971 303.195C238.775 303.359 238.553 303.486 238.303 303.576C238.053 303.666 237.781 303.711 237.488 303.711ZM237.723 302.809C238.105 302.809 238.436 302.713 238.713 302.521C238.99 302.33 239.203 302.059 239.352 301.707C239.5 301.352 239.574 300.932 239.574 300.447V300.436C239.574 299.947 239.5 299.527 239.352 299.176C239.203 298.824 238.99 298.553 238.713 298.361C238.436 298.17 238.105 298.074 237.723 298.074C237.34 298.074 237.01 298.17 236.732 298.361C236.459 298.549 236.248 298.818 236.1 299.17C235.955 299.521 235.883 299.943 235.883 300.436V300.447C235.883 300.936 235.955 301.357 236.1 301.713C236.248 302.064 236.459 302.336 236.732 302.527C237.01 302.715 237.34 302.809 237.723 302.809ZM248.146 303.646C247.498 303.646 247.027 303.516 246.734 303.254C246.445 302.992 246.301 302.561 246.301 301.959V298.127H245.305V297.283H246.301V295.648H247.355V297.283H248.738V298.127H247.355V301.701C247.355 302.072 247.426 302.34 247.566 302.504C247.707 302.664 247.941 302.744 248.27 302.744C248.359 302.744 248.436 302.742 248.498 302.738C248.564 302.734 248.645 302.729 248.738 302.721V303.588C248.641 303.604 248.543 303.617 248.445 303.629C248.348 303.641 248.248 303.646 248.146 303.646ZM252.775 303.711C252.178 303.711 251.66 303.58 251.223 303.318C250.789 303.053 250.453 302.676 250.215 302.188C249.98 301.699 249.863 301.119 249.863 300.447V300.436C249.863 299.76 249.98 299.178 250.215 298.689C250.453 298.201 250.789 297.826 251.223 297.564C251.66 297.303 252.178 297.172 252.775 297.172C253.377 297.172 253.895 297.303 254.328 297.564C254.762 297.826 255.096 298.201 255.33 298.689C255.568 299.178 255.688 299.76 255.688 300.436V300.447C255.688 301.119 255.568 301.699 255.33 302.188C255.096 302.676 254.762 303.053 254.328 303.318C253.895 303.58 253.377 303.711 252.775 303.711ZM252.775 302.809C253.174 302.809 253.512 302.715 253.789 302.527C254.066 302.34 254.277 302.07 254.422 301.719C254.57 301.367 254.645 300.943 254.645 300.447V300.436C254.645 299.936 254.57 299.51 254.422 299.158C254.277 298.807 254.066 298.539 253.789 298.355C253.512 298.168 253.174 298.074 252.775 298.074C252.377 298.074 252.039 298.168 251.762 298.355C251.484 298.539 251.271 298.807 251.123 299.158C250.979 299.51 250.906 299.936 250.906 300.436V300.447C250.906 300.943 250.979 301.367 251.123 301.719C251.271 302.07 251.484 302.34 251.762 302.527C252.039 302.715 252.377 302.809 252.775 302.809ZM262.889 303.646C262.24 303.646 261.77 303.516 261.477 303.254C261.188 302.992 261.043 302.561 261.043 301.959V298.127H260.047V297.283H261.043V295.648H262.098V297.283H263.48V298.127H262.098V301.701C262.098 302.072 262.168 302.34 262.309 302.504C262.449 302.664 262.684 302.744 263.012 302.744C263.102 302.744 263.178 302.742 263.24 302.738C263.307 302.734 263.387 302.729 263.48 302.721V303.588C263.383 303.604 263.285 303.617 263.188 303.629C263.09 303.641 262.99 303.646 262.889 303.646ZM265.062 303.6V294.775H266.082V298.232H266.176C266.336 297.896 266.566 297.637 266.867 297.453C267.168 297.266 267.551 297.172 268.016 297.172C268.488 297.172 268.889 297.264 269.217 297.447C269.545 297.627 269.795 297.891 269.967 298.238C270.139 298.586 270.225 299.01 270.225 299.51V303.6H269.205V299.756C269.205 299.186 269.084 298.764 268.842 298.49C268.604 298.213 268.232 298.074 267.729 298.074C267.393 298.074 267.102 298.146 266.855 298.291C266.609 298.436 266.418 298.641 266.281 298.906C266.148 299.172 266.082 299.49 266.082 299.861V303.6H265.062ZM274.648 303.711C274.047 303.711 273.529 303.578 273.096 303.312C272.666 303.047 272.334 302.672 272.1 302.188C271.869 301.699 271.754 301.125 271.754 300.465V300.459C271.754 299.807 271.869 299.234 272.1 298.742C272.334 298.25 272.664 297.865 273.09 297.588C273.516 297.311 274.014 297.172 274.584 297.172C275.158 297.172 275.65 297.305 276.061 297.57C276.475 297.836 276.791 298.207 277.01 298.684C277.232 299.156 277.344 299.707 277.344 300.336V300.734H272.281V299.92H276.822L276.318 300.664V300.26C276.318 299.764 276.244 299.355 276.096 299.035C275.947 298.715 275.742 298.477 275.48 298.32C275.219 298.16 274.918 298.08 274.578 298.08C274.238 298.08 273.934 298.164 273.664 298.332C273.398 298.496 273.188 298.74 273.031 299.064C272.875 299.389 272.797 299.787 272.797 300.26V300.664C272.797 301.113 272.873 301.498 273.025 301.818C273.178 302.135 273.395 302.379 273.676 302.551C273.957 302.719 274.289 302.803 274.672 302.803C274.957 302.803 275.205 302.764 275.416 302.686C275.627 302.607 275.801 302.508 275.938 302.387C276.074 302.266 276.17 302.143 276.225 302.018L276.248 301.965H277.268L277.256 302.012C277.201 302.227 277.104 302.436 276.963 302.639C276.826 302.838 276.648 303.02 276.43 303.184C276.211 303.344 275.951 303.473 275.65 303.57C275.354 303.664 275.02 303.711 274.648 303.711ZM282.301 305.709V297.283H283.32V298.291H283.414C283.543 298.057 283.705 297.857 283.9 297.693C284.096 297.525 284.318 297.396 284.568 297.307C284.818 297.217 285.09 297.172 285.383 297.172C285.918 297.172 286.383 297.309 286.777 297.582C287.176 297.852 287.484 298.23 287.703 298.719C287.922 299.207 288.031 299.779 288.031 300.436V300.447C288.031 301.107 287.922 301.682 287.703 302.17C287.484 302.658 287.176 303.037 286.777 303.307C286.383 303.576 285.918 303.711 285.383 303.711C285.094 303.711 284.82 303.666 284.562 303.576C284.309 303.482 284.082 303.354 283.883 303.189C283.688 303.025 283.531 302.83 283.414 302.604H283.32V305.709H282.301ZM285.148 302.809C285.535 302.809 285.865 302.715 286.139 302.527C286.412 302.336 286.621 302.064 286.766 301.713C286.914 301.357 286.988 300.936 286.988 300.447V300.436C286.988 299.943 286.914 299.521 286.766 299.17C286.621 298.818 286.412 298.549 286.139 298.361C285.865 298.17 285.535 298.074 285.148 298.074C284.766 298.074 284.436 298.17 284.158 298.361C283.881 298.553 283.668 298.824 283.52 299.176C283.371 299.527 283.297 299.947 283.297 300.436V300.447C283.297 300.932 283.371 301.352 283.52 301.707C283.668 302.059 283.881 302.33 284.158 302.521C284.436 302.713 284.766 302.809 285.148 302.809ZM289.684 303.6V294.775H290.703V303.6H289.684ZM294.395 303.711C293.996 303.711 293.637 303.635 293.316 303.482C293 303.33 292.748 303.113 292.561 302.832C292.377 302.551 292.285 302.219 292.285 301.836V301.824C292.285 301.449 292.375 301.129 292.555 300.863C292.734 300.594 292.996 300.383 293.34 300.23C293.684 300.078 294.1 299.988 294.588 299.961L296.908 299.82V300.635L294.711 300.775C294.23 300.803 293.879 300.902 293.656 301.074C293.438 301.246 293.328 301.488 293.328 301.801V301.812C293.328 302.133 293.449 302.383 293.691 302.562C293.934 302.738 294.238 302.826 294.605 302.826C294.953 302.826 295.262 302.758 295.531 302.621C295.801 302.48 296.012 302.291 296.164 302.053C296.32 301.814 296.398 301.545 296.398 301.244V299.275C296.398 298.885 296.279 298.588 296.041 298.385C295.807 298.178 295.453 298.074 294.98 298.074C294.602 298.074 294.291 298.143 294.049 298.279C293.807 298.412 293.645 298.602 293.562 298.848L293.557 298.865H292.537L292.543 298.83C292.598 298.498 292.734 298.209 292.953 297.963C293.176 297.713 293.463 297.52 293.814 297.383C294.166 297.242 294.566 297.172 295.016 297.172C295.531 297.172 295.967 297.256 296.322 297.424C296.682 297.592 296.953 297.834 297.137 298.15C297.324 298.463 297.418 298.838 297.418 299.275V303.6H296.398V302.668H296.305C296.172 302.891 296.01 303.08 295.818 303.236C295.631 303.393 295.418 303.512 295.18 303.594C294.941 303.672 294.68 303.711 294.395 303.711ZM301.525 303.646C300.877 303.646 300.406 303.516 300.113 303.254C299.824 302.992 299.68 302.561 299.68 301.959V298.127H298.684V297.283H299.68V295.648H300.734V297.283H302.117V298.127H300.734V301.701C300.734 302.072 300.805 302.34 300.945 302.504C301.086 302.664 301.32 302.744 301.648 302.744C301.738 302.744 301.814 302.742 301.877 302.738C301.943 302.734 302.023 302.729 302.117 302.721V303.588C302.02 303.604 301.922 303.617 301.824 303.629C301.727 303.641 301.627 303.646 301.525 303.646ZM304.062 303.6V298.127H303.014V297.283H304.062V296.58C304.062 296.158 304.131 295.811 304.268 295.537C304.408 295.26 304.615 295.055 304.889 294.922C305.162 294.785 305.498 294.717 305.896 294.717C306.021 294.717 306.139 294.723 306.248 294.734C306.361 294.742 306.471 294.756 306.576 294.775V295.59C306.514 295.578 306.441 295.57 306.359 295.566C306.277 295.562 306.191 295.561 306.102 295.561C305.738 295.561 305.477 295.648 305.316 295.824C305.16 296 305.082 296.262 305.082 296.609V297.283H306.518V298.127H305.082V303.6H304.062ZM310.326 303.711C309.729 303.711 309.211 303.58 308.773 303.318C308.34 303.053 308.004 302.676 307.766 302.188C307.531 301.699 307.414 301.119 307.414 300.447V300.436C307.414 299.76 307.531 299.178 307.766 298.689C308.004 298.201 308.34 297.826 308.773 297.564C309.211 297.303 309.729 297.172 310.326 297.172C310.928 297.172 311.445 297.303 311.879 297.564C312.312 297.826 312.646 298.201 312.881 298.689C313.119 299.178 313.238 299.76 313.238 300.436V300.447C313.238 301.119 313.119 301.699 312.881 302.188C312.646 302.676 312.312 303.053 311.879 303.318C311.445 303.58 310.928 303.711 310.326 303.711ZM310.326 302.809C310.725 302.809 311.062 302.715 311.34 302.527C311.617 302.34 311.828 302.07 311.973 301.719C312.121 301.367 312.195 300.943 312.195 300.447V300.436C312.195 299.936 312.121 299.51 311.973 299.158C311.828 298.807 311.617 298.539 311.34 298.355C311.062 298.168 310.725 298.074 310.326 298.074C309.928 298.074 309.59 298.168 309.312 298.355C309.035 298.539 308.822 298.807 308.674 299.158C308.529 299.51 308.457 299.936 308.457 300.436V300.447C308.457 300.943 308.529 301.367 308.674 301.719C308.822 302.07 309.035 302.34 309.312 302.527C309.59 302.715 309.928 302.809 310.326 302.809ZM314.82 303.6V297.283H315.84V298.221H315.934C316.055 297.889 316.26 297.631 316.549 297.447C316.838 297.264 317.195 297.172 317.621 297.172C317.719 297.172 317.814 297.178 317.908 297.189C318.006 297.197 318.08 297.205 318.131 297.213V298.203C318.025 298.184 317.922 298.17 317.82 298.162C317.723 298.15 317.617 298.145 317.504 298.145C317.18 298.145 316.893 298.209 316.643 298.338C316.393 298.467 316.195 298.646 316.051 298.877C315.91 299.107 315.84 299.377 315.84 299.686V303.6H314.82ZM319.508 303.6V297.283H320.527V298.244H320.621C320.762 297.904 320.977 297.641 321.266 297.453C321.559 297.266 321.912 297.172 322.326 297.172C322.611 297.172 322.867 297.219 323.094 297.312C323.32 297.406 323.516 297.537 323.68 297.705C323.844 297.869 323.975 298.061 324.072 298.279H324.166C324.279 298.057 324.432 297.863 324.623 297.699C324.814 297.531 325.035 297.402 325.285 297.312C325.539 297.219 325.811 297.172 326.1 297.172C326.529 297.172 326.893 297.252 327.189 297.412C327.49 297.572 327.719 297.807 327.875 298.115C328.031 298.42 328.109 298.793 328.109 299.234V303.6H327.09V299.469C327.09 299.156 327.041 298.898 326.943 298.695C326.85 298.488 326.705 298.334 326.51 298.232C326.314 298.127 326.068 298.074 325.771 298.074C325.479 298.074 325.223 298.141 325.004 298.273C324.785 298.406 324.615 298.584 324.494 298.807C324.373 299.025 324.312 299.27 324.312 299.539V303.6H323.293V299.311C323.293 299.061 323.238 298.844 323.129 298.66C323.023 298.473 322.871 298.328 322.672 298.227C322.477 298.125 322.246 298.074 321.98 298.074C321.707 298.074 321.459 298.146 321.236 298.291C321.018 298.436 320.844 298.631 320.715 298.877C320.59 299.119 320.527 299.389 320.527 299.686V303.6H319.508ZM330.781 303.658C330.574 303.658 330.395 303.584 330.242 303.436C330.094 303.283 330.02 303.104 330.02 302.896C330.02 302.686 330.094 302.506 330.242 302.357C330.395 302.209 330.574 302.135 330.781 302.135C330.992 302.135 331.172 302.209 331.32 302.357C331.469 302.506 331.543 302.686 331.543 302.896C331.543 303.104 331.469 303.283 331.32 303.436C331.172 303.584 330.992 303.658 330.781 303.658Z" fill="#64748B"/>
<defs>
<filter id="filter0_f_177_4304" x="33.3999" y="0" width="291.2" height="291.2" filterUnits="userSpaceOnUse" color-interpolation-filters="sRGB">
<feFlood flood-opacity="0" result="BackgroundImageFix"/>
<feBlend mode="normal" in="SourceGraphic" in2="BackgroundImageFix" result="shape"/>
<feGaussianBlur stdDeviation="20" result="effect1_foregroundBlur_177_4304"/>
</filter>
<filter id="filter1_dd_177_4304" x="188" y="175.85" width="91" height="90" filterUnits="userSpaceOnUse" color-interpolation-filters="sRGB">
<feFlood flood-opacity="0" result="BackgroundImageFix"/>
<feColorMatrix in="SourceAlpha" type="matrix" values="0 0 0 0 0 0 0 0 0 0 0 0 0 0 0 0 0 0 127 0" result="hardAlpha"/>
<feMorphology radius="6" operator="erode" in="SourceAlpha" result="effect1_dropShadow_177_4304"/>
<feOffset dy="8"/>
<feGaussianBlur stdDeviation="5"/>
<feComposite in2="hardAlpha" operator="out"/>
<feColorMatrix type="matrix" values="0 0 0 0 0 0 0 0 0 0 0 0 0 0 0 0 0 0 0.1 0"/>
<feBlend mode="normal" in2="BackgroundImageFix" result="effect1_dropShadow_177_4304"/>
<feColorMatrix in="SourceAlpha" type="matrix" values="0 0 0 0 0 0 0 0 0 0 0 0 0 0 0 0 0 0 127 0" result="hardAlpha"/>
<feMorphology radius="5" operator="erode" in="SourceAlpha" result="effect2_dropShadow_177_4304"/>
<feOffset dy="20"/>
<feGaussianBlur stdDeviation="12.5"/>
<feComposite in2="hardAlpha" operator="out"/>
<feColorMatrix type="matrix" values="0 0 0 0 0 0 0 0 0 0 0 0 0 0 0 0 0 0 0.1 0"/>
<feBlend mode="normal" in2="effect1_dropShadow_177_4304" result="effect2_dropShadow_177_4304"/>
<feBlend mode="normal" in="SourceGraphic" in2="effect2_dropShadow_177_4304" result="shape"/>
</filter>
</defs>
</svg>
