<svg width="385" height="349" viewBox="0 0 385 349" fill="none" xmlns="http://www.w3.org/2000/svg">
<g opacity="0.5" filter="url(#filter0_f_68_984)">
<rect x="64" y="64" width="256.5" height="221" rx="147.333" fill="#DBEAFE"/>
</g>
<rect x="21.75" y="14.5" width="341" height="320" rx="31.5" fill="white"/>
<rect x="21.75" y="14.5" width="341" height="320" rx="31.5" stroke="#F1F5F9"/>
<rect x="21.25" y="14" width="342" height="321" rx="32" fill="white" fill-opacity="0.01"/>
<path d="M164.25 183C162.05 183 160.167 182.217 158.6 180.65C157.033 179.083 156.25 177.2 156.25 175V129.9C155.05 129.167 154.083 128.217 153.35 127.05C152.617 125.883 152.25 124.533 152.25 123V111C152.25 108.8 153.033 106.917 154.6 105.35C156.167 103.783 158.05 103 160.25 103H224.25C226.45 103 228.333 103.783 229.9 105.35C231.467 106.917 232.25 108.8 232.25 111V123C232.25 124.533 231.883 125.883 231.15 127.05C230.417 128.217 229.45 129.167 228.25 129.9V175C228.25 177.2 227.467 179.083 225.9 180.65C224.333 182.217 222.45 183 220.25 183H164.25ZM164.25 131V175H220.25V131H164.25ZM160.25 123H224.25V111H160.25V123ZM180.25 151H204.25V143H180.25V151Z" fill="#92B7EC"/>
<rect x="197.76" y="90.53" width="48" height="48" rx="16" transform="rotate(12 197.76 90.53)" fill="#1F3555"/>
<g filter="url(#filter1_dd_68_984)">
<rect x="197.76" y="90.53" width="48" height="48" rx="16" transform="rotate(12 197.76 90.53)" fill="white" fill-opacity="0.01" shape-rendering="crispEdges"/>
</g>
<path d="M221.808 129.379L216.956 121.907C216.384 122.194 215.755 122.384 215.071 122.477C214.387 122.57 213.686 122.541 212.969 122.388C211.192 122.01 209.819 121.075 208.849 119.583C207.88 118.09 207.584 116.456 207.962 114.679C208.34 112.902 209.275 111.529 210.767 110.559C212.26 109.59 213.895 109.295 215.672 109.672C217.449 110.05 218.822 110.985 219.791 112.477C220.76 113.97 221.056 115.605 220.678 117.382C220.526 118.099 220.268 118.751 219.904 119.339C219.541 119.926 219.112 120.422 218.616 120.828L223.469 128.3L221.808 129.379ZM213.385 120.432C214.607 120.692 215.737 120.485 216.775 119.811C217.813 119.137 218.462 118.188 218.722 116.966C218.982 115.743 218.775 114.613 218.101 113.575C217.427 112.537 216.478 111.888 215.256 111.629C214.033 111.369 212.903 111.576 211.865 112.25C210.827 112.924 210.178 113.872 209.918 115.095C209.659 116.317 209.866 117.448 210.54 118.485C211.214 119.523 212.162 120.172 213.385 120.432Z" fill="white"/>
<path d="M130.644 255V239.499H133.093L141.805 251.885L139.517 250.284H140.795V239.499H143.502V255H141.074L132.352 242.593L134.629 244.193H133.361V255H130.644ZM151.537 255.236C150.398 255.236 149.41 254.996 148.572 254.517C147.734 254.03 147.09 253.339 146.639 252.443C146.188 251.541 145.962 250.47 145.962 249.231V249.21C145.962 247.971 146.191 246.904 146.649 246.009C147.108 245.114 147.752 244.426 148.583 243.946C149.421 243.459 150.406 243.216 151.537 243.216C152.669 243.216 153.65 243.456 154.48 243.936C155.318 244.415 155.966 245.103 156.425 245.998C156.883 246.893 157.112 247.964 157.112 249.21V249.231C157.112 250.478 156.883 251.548 156.425 252.443C155.974 253.339 155.333 254.03 154.502 254.517C153.671 254.996 152.683 255.236 151.537 255.236ZM151.537 253.066C152.132 253.066 152.64 252.916 153.062 252.615C153.485 252.314 153.811 251.878 154.04 251.305C154.269 250.732 154.384 250.041 154.384 249.231V249.21C154.384 248.401 154.269 247.713 154.04 247.147C153.811 246.575 153.481 246.138 153.052 245.837C152.629 245.529 152.124 245.375 151.537 245.375C150.95 245.375 150.441 245.529 150.012 245.837C149.589 246.138 149.263 246.575 149.034 247.147C148.805 247.713 148.69 248.401 148.69 249.21V249.231C148.69 250.041 148.805 250.732 149.034 251.305C149.263 251.878 149.589 252.314 150.012 252.615C150.441 252.916 150.95 253.066 151.537 253.066ZM164.471 255V239.123H167.146V255H164.471ZM174.998 255.236C173.859 255.236 172.871 254.996 172.033 254.517C171.195 254.03 170.551 253.339 170.1 252.443C169.648 251.541 169.423 250.47 169.423 249.231V249.21C169.423 247.971 169.652 246.904 170.11 246.009C170.569 245.114 171.213 244.426 172.044 243.946C172.882 243.459 173.867 243.216 174.998 243.216C176.13 243.216 177.111 243.456 177.941 243.936C178.779 244.415 179.427 245.103 179.886 245.998C180.344 246.893 180.573 247.964 180.573 249.21V249.231C180.573 250.478 180.344 251.548 179.886 252.443C179.435 253.339 178.794 254.03 177.963 254.517C177.132 254.996 176.144 255.236 174.998 255.236ZM174.998 253.066C175.592 253.066 176.101 252.916 176.523 252.615C176.946 252.314 177.272 251.878 177.501 251.305C177.73 250.732 177.845 250.041 177.845 249.231V249.21C177.845 248.401 177.73 247.713 177.501 247.147C177.272 246.575 176.942 246.138 176.513 245.837C176.09 245.529 175.585 245.375 174.998 245.375C174.411 245.375 173.902 245.529 173.473 245.837C173.05 246.138 172.724 246.575 172.495 247.147C172.266 247.713 172.151 248.401 172.151 249.21V249.231C172.151 250.041 172.266 250.732 172.495 251.305C172.724 251.878 173.05 252.314 173.473 252.615C173.902 252.916 174.411 253.066 174.998 253.066ZM186.041 255.193C185.289 255.193 184.623 255.05 184.043 254.764C183.47 254.47 183.019 254.062 182.689 253.539C182.367 253.016 182.206 252.411 182.206 251.724V251.702C182.206 251.015 182.374 250.424 182.711 249.93C183.055 249.436 183.552 249.049 184.204 248.77C184.863 248.483 185.658 248.311 186.589 248.254L190.939 247.985V249.747L186.965 250.005C186.263 250.048 185.737 250.205 185.386 250.478C185.035 250.75 184.859 251.118 184.859 251.584V251.605C184.859 252.085 185.042 252.465 185.407 252.744C185.772 253.016 186.249 253.152 186.836 253.152C187.366 253.152 187.835 253.049 188.243 252.841C188.659 252.626 188.984 252.336 189.221 251.971C189.464 251.605 189.586 251.194 189.586 250.735V247.18C189.586 246.6 189.403 246.148 189.038 245.826C188.673 245.504 188.139 245.343 187.438 245.343C186.814 245.343 186.31 245.465 185.923 245.708C185.543 245.944 185.296 246.267 185.182 246.675L185.171 246.739H182.668L182.679 246.632C182.75 245.966 182.99 245.375 183.398 244.859C183.814 244.344 184.372 243.943 185.074 243.656C185.776 243.363 186.6 243.216 187.545 243.216C188.526 243.216 189.368 243.373 190.069 243.688C190.771 243.996 191.308 244.44 191.681 245.021C192.06 245.601 192.25 246.288 192.25 247.083V255H189.586V253.313H189.468C189.253 253.7 188.974 254.037 188.63 254.323C188.286 254.603 187.896 254.817 187.459 254.968C187.022 255.118 186.549 255.193 186.041 255.193ZM199.125 255.215C198.158 255.215 197.317 254.971 196.601 254.484C195.884 253.997 195.333 253.306 194.946 252.411C194.56 251.516 194.366 250.456 194.366 249.231V249.21C194.366 247.978 194.56 246.915 194.946 246.02C195.333 245.124 195.881 244.437 196.59 243.957C197.306 243.477 198.147 243.237 199.114 243.237C199.659 243.237 200.16 243.323 200.618 243.495C201.076 243.667 201.481 243.91 201.832 244.226C202.19 244.541 202.473 244.92 202.681 245.364H202.799V239.123H205.474V255H202.799V253.109H202.681C202.466 253.546 202.183 253.922 201.832 254.237C201.488 254.545 201.087 254.785 200.629 254.957C200.178 255.129 199.676 255.215 199.125 255.215ZM199.941 252.959C200.521 252.959 201.026 252.809 201.456 252.508C201.886 252.2 202.219 251.767 202.455 251.208C202.699 250.649 202.82 249.991 202.82 249.231V249.221C202.82 248.454 202.699 247.792 202.455 247.233C202.219 246.675 201.886 246.245 201.456 245.944C201.026 245.636 200.521 245.482 199.941 245.482C199.354 245.482 198.846 245.633 198.416 245.934C197.986 246.234 197.657 246.664 197.428 247.223C197.199 247.774 197.084 248.437 197.084 249.21V249.231C197.084 249.998 197.199 250.66 197.428 251.219C197.657 251.777 197.986 252.207 198.416 252.508C198.846 252.809 199.354 252.959 199.941 252.959ZM212.692 255.236C211.697 255.236 210.841 255.09 210.125 254.796C209.416 254.502 208.857 254.098 208.449 253.582C208.048 253.066 207.808 252.465 207.729 251.777L207.719 251.713H210.361L210.372 251.777C210.494 252.229 210.748 252.59 211.135 252.862C211.521 253.127 212.048 253.26 212.714 253.26C213.158 253.26 213.541 253.202 213.863 253.088C214.186 252.966 214.436 252.798 214.615 252.583C214.794 252.368 214.884 252.118 214.884 251.831V251.82C214.884 251.477 214.755 251.197 214.497 250.982C214.246 250.76 213.813 250.578 213.197 250.435L211.307 250.016C210.569 249.851 209.957 249.625 209.47 249.339C208.983 249.045 208.618 248.684 208.374 248.254C208.138 247.824 208.02 247.326 208.02 246.761V246.75C208.02 246.041 208.213 245.425 208.6 244.902C208.986 244.372 209.527 243.961 210.222 243.667C210.924 243.366 211.733 243.216 212.649 243.216C213.595 243.216 214.408 243.366 215.088 243.667C215.768 243.968 216.298 244.38 216.678 244.902C217.057 245.418 217.269 245.998 217.312 246.643V246.718H214.809L214.798 246.653C214.726 246.238 214.504 245.891 214.132 245.611C213.767 245.332 213.269 245.192 212.639 245.192C212.245 245.192 211.897 245.25 211.597 245.364C211.303 245.479 211.074 245.644 210.909 245.858C210.744 246.066 210.662 246.313 210.662 246.6V246.621C210.662 246.836 210.716 247.029 210.823 247.201C210.938 247.373 211.117 247.523 211.36 247.652C211.611 247.781 211.94 247.896 212.349 247.996L214.25 248.415C215.41 248.673 216.252 249.052 216.774 249.554C217.304 250.048 217.569 250.717 217.569 251.562V251.573C217.569 252.304 217.358 252.945 216.936 253.496C216.52 254.048 215.944 254.477 215.206 254.785C214.476 255.086 213.638 255.236 212.692 255.236ZM226.238 258.942C226.023 258.942 225.809 258.935 225.594 258.921C225.379 258.907 225.189 258.889 225.024 258.867V256.815C225.132 256.837 225.257 256.851 225.4 256.858C225.551 256.873 225.708 256.88 225.873 256.88C226.403 256.88 226.826 256.776 227.141 256.568C227.463 256.368 227.703 256.013 227.86 255.505L228.011 255.011L223.875 243.441H226.786L229.74 253.453L229.182 252.583H229.912L229.364 253.453L232.318 243.441H235.133L230.986 255.322C230.678 256.225 230.313 256.941 229.891 257.471C229.468 258.001 228.96 258.377 228.365 258.599C227.771 258.828 227.062 258.942 226.238 258.942ZM241.449 255.236C240.303 255.236 239.315 254.993 238.484 254.506C237.661 254.019 237.027 253.328 236.583 252.433C236.139 251.537 235.917 250.478 235.917 249.253V249.242C235.917 248.025 236.139 246.965 236.583 246.062C237.027 245.16 237.654 244.462 238.463 243.968C239.272 243.466 240.228 243.216 241.331 243.216C242.427 243.216 243.372 243.459 244.167 243.946C244.969 244.426 245.585 245.103 246.015 245.977C246.444 246.843 246.659 247.856 246.659 249.017V249.887H237.249V248.093H245.37L244.092 249.769V248.727C244.092 247.96 243.974 247.326 243.737 246.825C243.508 246.317 243.189 245.937 242.781 245.687C242.373 245.436 241.897 245.311 241.353 245.311C240.815 245.311 240.339 245.443 239.924 245.708C239.508 245.966 239.179 246.349 238.936 246.857C238.692 247.366 238.57 247.989 238.57 248.727V249.779C238.57 250.481 238.688 251.083 238.925 251.584C239.168 252.085 239.508 252.472 239.945 252.744C240.382 253.009 240.905 253.142 241.514 253.142C241.972 253.142 242.369 253.074 242.706 252.938C243.05 252.794 243.329 252.619 243.544 252.411C243.766 252.196 243.92 251.981 244.006 251.767L244.027 251.691L246.552 251.681L246.52 251.799C246.426 252.207 246.255 252.615 246.004 253.023C245.753 253.424 245.417 253.793 244.994 254.13C244.579 254.466 244.074 254.735 243.479 254.936C242.892 255.136 242.215 255.236 241.449 255.236ZM253.244 255.15C251.984 255.15 251.06 254.896 250.473 254.388C249.893 253.879 249.603 253.049 249.603 251.896V245.515H247.895V243.441H249.603V240.562H252.32V243.441H254.598V245.515H252.32V251.487C252.32 252.053 252.442 252.454 252.686 252.69C252.936 252.927 253.319 253.045 253.835 253.045C253.993 253.045 254.129 253.041 254.243 253.034C254.358 253.027 254.476 253.016 254.598 253.002V255.032C254.433 255.061 254.232 255.086 253.996 255.107C253.767 255.136 253.516 255.15 253.244 255.15Z" fill="#0F172A"/>
<path d="M47.8408 281V276.755L44.3408 271.136H45.7422L48.4014 275.518H48.5107L51.1699 271.136H52.5713L49.0713 276.755V281H47.8408ZM56.0166 281.13C55.3193 281.13 54.7155 280.977 54.2051 280.672C53.6992 280.362 53.3073 279.922 53.0293 279.353C52.7559 278.783 52.6191 278.106 52.6191 277.322V277.309C52.6191 276.52 52.7559 275.841 53.0293 275.271C53.3073 274.702 53.6992 274.264 54.2051 273.959C54.7155 273.654 55.3193 273.501 56.0166 273.501C56.7184 273.501 57.3223 273.654 57.8281 273.959C58.334 274.264 58.7236 274.702 58.9971 275.271C59.2751 275.841 59.4141 276.52 59.4141 277.309V277.322C59.4141 278.106 59.2751 278.783 58.9971 279.353C58.7236 279.922 58.334 280.362 57.8281 280.672C57.3223 280.977 56.7184 281.13 56.0166 281.13ZM56.0166 280.077C56.4814 280.077 56.8757 279.968 57.1992 279.749C57.5228 279.53 57.7689 279.216 57.9375 278.806C58.1107 278.396 58.1973 277.901 58.1973 277.322V277.309C58.1973 276.725 58.1107 276.229 57.9375 275.818C57.7689 275.408 57.5228 275.096 57.1992 274.882C56.8757 274.663 56.4814 274.554 56.0166 274.554C55.5518 274.554 55.1576 274.663 54.834 274.882C54.5104 275.096 54.262 275.408 54.0889 275.818C53.9202 276.229 53.8359 276.725 53.8359 277.309V277.322C53.8359 277.901 53.9202 278.396 54.0889 278.806C54.262 279.216 54.5104 279.53 54.834 279.749C55.1576 279.968 55.5518 280.077 56.0166 280.077ZM63.7275 281.13C63.1715 281.13 62.7044 281.025 62.3262 280.815C61.9479 280.601 61.6631 280.291 61.4717 279.886C61.2848 279.476 61.1914 278.981 61.1914 278.402V273.631H62.3809V278.115C62.3809 278.776 62.5085 279.268 62.7637 279.592C63.0234 279.915 63.4473 280.077 64.0352 280.077C64.3587 280.077 64.6436 280.029 64.8896 279.934C65.1403 279.838 65.3499 279.701 65.5186 279.523C65.6872 279.341 65.8125 279.122 65.8945 278.867C65.9811 278.607 66.0244 278.316 66.0244 277.992V273.631H67.2139V281H66.0244V279.899H65.915C65.7965 280.159 65.6348 280.382 65.4297 280.569C65.2246 280.752 64.9785 280.891 64.6914 280.986C64.4089 281.082 64.0876 281.13 63.7275 281.13ZM69.4355 281V273.631H70.625V274.725H70.7344C70.8757 274.337 71.1149 274.036 71.4521 273.822C71.7894 273.608 72.2064 273.501 72.7031 273.501C72.8171 273.501 72.9287 273.508 73.0381 273.521C73.152 273.531 73.2386 273.54 73.2979 273.549V274.704C73.1748 274.681 73.054 274.665 72.9355 274.656C72.8216 274.643 72.6986 274.636 72.5664 274.636C72.1882 274.636 71.8532 274.711 71.5615 274.861C71.2699 275.012 71.0397 275.221 70.8711 275.49C70.707 275.759 70.625 276.074 70.625 276.434V281H69.4355ZM81.4258 281.13C80.806 281.13 80.2637 280.973 79.7988 280.658C79.334 280.344 78.974 279.902 78.7188 279.332C78.4635 278.758 78.3359 278.088 78.3359 277.322V277.309C78.3359 276.538 78.4635 275.868 78.7188 275.299C78.974 274.729 79.3317 274.287 79.792 273.973C80.2568 273.658 80.8014 273.501 81.4258 273.501C81.763 273.501 82.0798 273.556 82.376 273.665C82.6768 273.77 82.9434 273.918 83.1758 274.109C83.4082 274.301 83.5905 274.529 83.7227 274.793H83.832V270.705H85.0215V281H83.832V279.824H83.7227C83.5723 280.098 83.3831 280.332 83.1553 280.528C82.9274 280.72 82.6676 280.868 82.376 280.973C82.0843 281.077 81.7676 281.13 81.4258 281.13ZM81.6992 280.077C82.1458 280.077 82.5309 279.965 82.8545 279.742C83.1781 279.519 83.4264 279.202 83.5996 278.792C83.7728 278.377 83.8594 277.887 83.8594 277.322V277.309C83.8594 276.739 83.7728 276.249 83.5996 275.839C83.4264 275.429 83.1781 275.112 82.8545 274.889C82.5309 274.665 82.1458 274.554 81.6992 274.554C81.2526 274.554 80.8675 274.665 80.5439 274.889C80.2249 275.107 79.9788 275.422 79.8057 275.832C79.637 276.242 79.5527 276.734 79.5527 277.309V277.322C79.5527 277.892 79.637 278.384 79.8057 278.799C79.9788 279.209 80.2249 279.526 80.5439 279.749C80.8675 279.968 81.2526 280.077 81.6992 280.077ZM89.3281 281.13C88.8633 281.13 88.444 281.041 88.0703 280.863C87.7012 280.686 87.4072 280.433 87.1885 280.104C86.9743 279.776 86.8672 279.389 86.8672 278.942V278.929C86.8672 278.491 86.972 278.118 87.1816 277.808C87.3913 277.493 87.6966 277.247 88.0977 277.069C88.4987 276.892 88.984 276.787 89.5537 276.755L92.2607 276.591V277.541L89.6973 277.705C89.1367 277.737 88.7266 277.853 88.4668 278.054C88.2116 278.254 88.084 278.537 88.084 278.901V278.915C88.084 279.289 88.2253 279.58 88.5078 279.79C88.7904 279.995 89.1458 280.098 89.5742 280.098C89.9798 280.098 90.3398 280.018 90.6543 279.858C90.9688 279.694 91.2148 279.473 91.3926 279.195C91.5749 278.917 91.666 278.603 91.666 278.252V275.955C91.666 275.499 91.527 275.153 91.249 274.916C90.9756 274.674 90.5632 274.554 90.0117 274.554C89.5697 274.554 89.2074 274.633 88.9248 274.793C88.6423 274.948 88.4531 275.169 88.3574 275.456L88.3506 275.477H87.1611L87.168 275.436C87.2318 275.048 87.3913 274.711 87.6465 274.424C87.9062 274.132 88.2412 273.907 88.6514 273.747C89.0615 273.583 89.5286 273.501 90.0527 273.501C90.6543 273.501 91.1624 273.599 91.5771 273.795C91.9964 273.991 92.3132 274.273 92.5273 274.643C92.7461 275.007 92.8555 275.445 92.8555 275.955V281H91.666V279.913H91.5566C91.4017 280.173 91.2126 280.394 90.9893 280.576C90.7705 280.758 90.5221 280.897 90.2441 280.993C89.9661 281.084 89.6608 281.13 89.3281 281.13ZM97.5586 281.13C97.0117 281.13 96.5286 281.048 96.1094 280.884C95.6901 280.715 95.3529 280.48 95.0977 280.18C94.847 279.879 94.6989 279.526 94.6533 279.12H95.8701C95.9704 279.425 96.1663 279.672 96.458 279.858C96.7497 280.045 97.1302 280.139 97.5996 280.139C97.9323 280.139 98.224 280.091 98.4746 279.995C98.7298 279.895 98.9303 279.76 99.0762 279.592C99.222 279.419 99.2949 279.22 99.2949 278.997V278.983C99.2949 278.733 99.1947 278.521 98.9941 278.348C98.7936 278.17 98.4655 278.026 98.0098 277.917L96.8682 277.644C96.4079 277.534 96.0296 277.393 95.7334 277.22C95.4372 277.042 95.2184 276.826 95.0771 276.57C94.9359 276.311 94.8652 276.005 94.8652 275.654V275.647C94.8652 275.237 94.9837 274.87 95.2207 274.547C95.4622 274.223 95.7904 273.968 96.2051 273.781C96.6198 273.594 97.0869 273.501 97.6064 273.501C98.1214 273.501 98.5771 273.583 98.9736 273.747C99.3747 273.907 99.696 274.134 99.9375 274.431C100.184 274.727 100.334 275.076 100.389 275.477H99.2197C99.1423 275.185 98.9645 274.948 98.6865 274.766C98.4085 274.583 98.0462 274.492 97.5996 274.492C97.3079 274.492 97.0482 274.54 96.8203 274.636C96.5924 274.727 96.4124 274.854 96.2803 275.019C96.1481 275.183 96.082 275.374 96.082 275.593V275.606C96.082 275.771 96.1253 275.916 96.2119 276.044C96.2985 276.172 96.4329 276.283 96.6152 276.379C96.7975 276.475 97.0322 276.559 97.3193 276.632L98.4541 276.905C99.1468 277.074 99.6618 277.315 99.999 277.63C100.341 277.944 100.512 278.366 100.512 278.895V278.908C100.512 279.346 100.382 279.733 100.122 280.07C99.8623 280.403 99.5091 280.663 99.0625 280.85C98.6204 281.036 98.1191 281.13 97.5586 281.13ZM102.426 281V270.705H103.615V274.738H103.725C103.911 274.346 104.18 274.043 104.531 273.829C104.882 273.61 105.329 273.501 105.871 273.501C106.423 273.501 106.89 273.608 107.272 273.822C107.655 274.032 107.947 274.34 108.147 274.745C108.348 275.151 108.448 275.645 108.448 276.229V281H107.259V276.516C107.259 275.85 107.118 275.358 106.835 275.039C106.557 274.715 106.124 274.554 105.536 274.554C105.144 274.554 104.805 274.638 104.518 274.807C104.23 274.975 104.007 275.215 103.848 275.524C103.693 275.834 103.615 276.206 103.615 276.639V281H102.426ZM114.266 281.13C113.924 281.13 113.607 281.077 113.315 280.973C113.024 280.868 112.764 280.72 112.536 280.528C112.308 280.332 112.119 280.098 111.969 279.824H111.859V281H110.67V270.705H111.859V274.793H111.969C112.105 274.529 112.288 274.301 112.516 274.109C112.748 273.918 113.012 273.77 113.309 273.665C113.609 273.556 113.928 273.501 114.266 273.501C114.89 273.501 115.432 273.658 115.893 273.973C116.357 274.287 116.717 274.729 116.973 275.299C117.228 275.868 117.355 276.538 117.355 277.309V277.322C117.355 278.088 117.228 278.758 116.973 279.332C116.717 279.902 116.357 280.344 115.893 280.658C115.432 280.973 114.89 281.13 114.266 281.13ZM113.992 280.077C114.443 280.077 114.828 279.968 115.147 279.749C115.466 279.526 115.71 279.209 115.879 278.799C116.052 278.384 116.139 277.892 116.139 277.322V277.309C116.139 276.734 116.052 276.242 115.879 275.832C115.71 275.422 115.466 275.107 115.147 274.889C114.828 274.665 114.443 274.554 113.992 274.554C113.546 274.554 113.16 274.665 112.837 274.889C112.513 275.112 112.265 275.429 112.092 275.839C111.919 276.249 111.832 276.739 111.832 277.309V277.322C111.832 277.887 111.919 278.377 112.092 278.792C112.265 279.202 112.513 279.519 112.837 279.742C113.16 279.965 113.546 280.077 113.992 280.077ZM122.229 281.13C121.532 281.13 120.928 280.977 120.418 280.672C119.912 280.362 119.52 279.922 119.242 279.353C118.969 278.783 118.832 278.106 118.832 277.322V277.309C118.832 276.52 118.969 275.841 119.242 275.271C119.52 274.702 119.912 274.264 120.418 273.959C120.928 273.654 121.532 273.501 122.229 273.501C122.931 273.501 123.535 273.654 124.041 273.959C124.547 274.264 124.937 274.702 125.21 275.271C125.488 275.841 125.627 276.52 125.627 277.309V277.322C125.627 278.106 125.488 278.783 125.21 279.353C124.937 279.922 124.547 280.362 124.041 280.672C123.535 280.977 122.931 281.13 122.229 281.13ZM122.229 280.077C122.694 280.077 123.089 279.968 123.412 279.749C123.736 279.53 123.982 279.216 124.15 278.806C124.324 278.396 124.41 277.901 124.41 277.322V277.309C124.41 276.725 124.324 276.229 124.15 275.818C123.982 275.408 123.736 275.096 123.412 274.882C123.089 274.663 122.694 274.554 122.229 274.554C121.765 274.554 121.37 274.663 121.047 274.882C120.723 275.096 120.475 275.408 120.302 275.818C120.133 276.229 120.049 276.725 120.049 277.309V277.322C120.049 277.901 120.133 278.396 120.302 278.806C120.475 279.216 120.723 279.53 121.047 279.749C121.37 279.968 121.765 280.077 122.229 280.077ZM129.496 281.13C129.031 281.13 128.612 281.041 128.238 280.863C127.869 280.686 127.575 280.433 127.356 280.104C127.142 279.776 127.035 279.389 127.035 278.942V278.929C127.035 278.491 127.14 278.118 127.35 277.808C127.559 277.493 127.865 277.247 128.266 277.069C128.667 276.892 129.152 276.787 129.722 276.755L132.429 276.591V277.541L129.865 277.705C129.305 277.737 128.895 277.853 128.635 278.054C128.38 278.254 128.252 278.537 128.252 278.901V278.915C128.252 279.289 128.393 279.58 128.676 279.79C128.958 279.995 129.314 280.098 129.742 280.098C130.148 280.098 130.508 280.018 130.822 279.858C131.137 279.694 131.383 279.473 131.561 279.195C131.743 278.917 131.834 278.603 131.834 278.252V275.955C131.834 275.499 131.695 275.153 131.417 274.916C131.144 274.674 130.731 274.554 130.18 274.554C129.738 274.554 129.375 274.633 129.093 274.793C128.81 274.948 128.621 275.169 128.525 275.456L128.519 275.477H127.329L127.336 275.436C127.4 275.048 127.559 274.711 127.814 274.424C128.074 274.132 128.409 273.907 128.819 273.747C129.229 273.583 129.697 273.501 130.221 273.501C130.822 273.501 131.33 273.599 131.745 273.795C132.164 273.991 132.481 274.273 132.695 274.643C132.914 275.007 133.023 275.445 133.023 275.955V281H131.834V279.913H131.725C131.57 280.173 131.381 280.394 131.157 280.576C130.938 280.758 130.69 280.897 130.412 280.993C130.134 281.084 129.829 281.13 129.496 281.13ZM135.197 281V273.631H136.387V274.725H136.496C136.637 274.337 136.877 274.036 137.214 273.822C137.551 273.608 137.968 273.501 138.465 273.501C138.579 273.501 138.69 273.508 138.8 273.521C138.914 273.531 139 273.54 139.06 273.549V274.704C138.937 274.681 138.816 274.665 138.697 274.656C138.583 274.643 138.46 274.636 138.328 274.636C137.95 274.636 137.615 274.711 137.323 274.861C137.032 275.012 136.801 275.221 136.633 275.49C136.469 275.759 136.387 276.074 136.387 276.434V281H135.197ZM143.045 281.13C142.425 281.13 141.883 280.973 141.418 280.658C140.953 280.344 140.593 279.902 140.338 279.332C140.083 278.758 139.955 278.088 139.955 277.322V277.309C139.955 276.538 140.083 275.868 140.338 275.299C140.593 274.729 140.951 274.287 141.411 273.973C141.876 273.658 142.421 273.501 143.045 273.501C143.382 273.501 143.699 273.556 143.995 273.665C144.296 273.77 144.562 273.918 144.795 274.109C145.027 274.301 145.21 274.529 145.342 274.793H145.451V270.705H146.641V281H145.451V279.824H145.342C145.191 280.098 145.002 280.332 144.774 280.528C144.547 280.72 144.287 280.868 143.995 280.973C143.703 281.077 143.387 281.13 143.045 281.13ZM143.318 280.077C143.765 280.077 144.15 279.965 144.474 279.742C144.797 279.519 145.046 279.202 145.219 278.792C145.392 278.377 145.479 277.887 145.479 277.322V277.309C145.479 276.739 145.392 276.249 145.219 275.839C145.046 275.429 144.797 275.112 144.474 274.889C144.15 274.665 143.765 274.554 143.318 274.554C142.872 274.554 142.487 274.665 142.163 274.889C141.844 275.107 141.598 275.422 141.425 275.832C141.256 276.242 141.172 276.734 141.172 277.309V277.322C141.172 277.892 141.256 278.384 141.425 278.799C141.598 279.209 141.844 279.526 142.163 279.749C142.487 279.968 142.872 280.077 143.318 280.077ZM152.889 281V273.631H154.078V281H152.889ZM153.49 272.209C153.267 272.209 153.073 272.129 152.909 271.97C152.75 271.806 152.67 271.612 152.67 271.389C152.67 271.161 152.75 270.967 152.909 270.808C153.073 270.648 153.267 270.568 153.49 270.568C153.718 270.568 153.912 270.648 154.071 270.808C154.231 270.967 154.311 271.161 154.311 271.389C154.311 271.612 154.231 271.806 154.071 271.97C153.912 272.129 153.718 272.209 153.49 272.209ZM158.85 281.13C158.303 281.13 157.82 281.048 157.4 280.884C156.981 280.715 156.644 280.48 156.389 280.18C156.138 279.879 155.99 279.526 155.944 279.12H157.161C157.261 279.425 157.457 279.672 157.749 279.858C158.041 280.045 158.421 280.139 158.891 280.139C159.223 280.139 159.515 280.091 159.766 279.995C160.021 279.895 160.221 279.76 160.367 279.592C160.513 279.419 160.586 279.22 160.586 278.997V278.983C160.586 278.733 160.486 278.521 160.285 278.348C160.085 278.17 159.757 278.026 159.301 277.917L158.159 277.644C157.699 277.534 157.321 277.393 157.024 277.22C156.728 277.042 156.509 276.826 156.368 276.57C156.227 276.311 156.156 276.005 156.156 275.654V275.647C156.156 275.237 156.275 274.87 156.512 274.547C156.753 274.223 157.081 273.968 157.496 273.781C157.911 273.594 158.378 273.501 158.897 273.501C159.412 273.501 159.868 273.583 160.265 273.747C160.666 273.907 160.987 274.134 161.229 274.431C161.475 274.727 161.625 275.076 161.68 275.477H160.511C160.433 275.185 160.256 274.948 159.978 274.766C159.7 274.583 159.337 274.492 158.891 274.492C158.599 274.492 158.339 274.54 158.111 274.636C157.883 274.727 157.703 274.854 157.571 275.019C157.439 275.183 157.373 275.374 157.373 275.593V275.606C157.373 275.771 157.416 275.916 157.503 276.044C157.59 276.172 157.724 276.283 157.906 276.379C158.089 276.475 158.323 276.559 158.61 276.632L159.745 276.905C160.438 277.074 160.953 277.315 161.29 277.63C161.632 277.944 161.803 278.366 161.803 278.895V278.908C161.803 279.346 161.673 279.733 161.413 280.07C161.153 280.403 160.8 280.663 160.354 280.85C159.911 281.036 159.41 281.13 158.85 281.13ZM170.594 281.13C169.892 281.13 169.288 280.975 168.782 280.665C168.281 280.355 167.894 279.918 167.62 279.353C167.351 278.783 167.217 278.113 167.217 277.343V277.336C167.217 276.575 167.351 275.907 167.62 275.333C167.894 274.759 168.279 274.31 168.775 273.986C169.272 273.663 169.853 273.501 170.519 273.501C171.188 273.501 171.763 273.656 172.241 273.966C172.724 274.276 173.093 274.709 173.349 275.265C173.608 275.816 173.738 276.459 173.738 277.192V277.657H167.832V276.707H173.13L172.542 277.575V277.104C172.542 276.525 172.455 276.049 172.282 275.675C172.109 275.301 171.87 275.023 171.564 274.841C171.259 274.654 170.908 274.561 170.512 274.561C170.115 274.561 169.76 274.659 169.445 274.854C169.135 275.046 168.889 275.331 168.707 275.709C168.525 276.087 168.434 276.552 168.434 277.104V277.575C168.434 278.099 168.522 278.548 168.7 278.922C168.878 279.291 169.131 279.576 169.459 279.776C169.787 279.972 170.174 280.07 170.621 280.07C170.954 280.07 171.243 280.025 171.489 279.934C171.735 279.842 171.938 279.726 172.098 279.585C172.257 279.444 172.369 279.3 172.433 279.154L172.46 279.093H173.649L173.636 279.147C173.572 279.398 173.458 279.642 173.294 279.879C173.134 280.111 172.927 280.323 172.672 280.515C172.417 280.701 172.114 280.852 171.763 280.966C171.416 281.075 171.027 281.13 170.594 281.13ZM175.584 281V273.631H176.773V274.752H176.883C177.047 274.355 177.298 274.048 177.635 273.829C177.977 273.61 178.389 273.501 178.872 273.501C179.205 273.501 179.503 273.556 179.768 273.665C180.032 273.774 180.26 273.927 180.451 274.123C180.643 274.314 180.795 274.538 180.909 274.793H181.019C181.151 274.533 181.328 274.308 181.552 274.116C181.775 273.92 182.033 273.77 182.324 273.665C182.62 273.556 182.937 273.501 183.274 273.501C183.776 273.501 184.2 273.594 184.546 273.781C184.897 273.968 185.163 274.242 185.346 274.602C185.528 274.957 185.619 275.392 185.619 275.907V281H184.43V276.181C184.43 275.816 184.373 275.515 184.259 275.278C184.149 275.037 183.981 274.857 183.753 274.738C183.525 274.615 183.238 274.554 182.892 274.554C182.55 274.554 182.251 274.631 181.996 274.786C181.741 274.941 181.543 275.148 181.401 275.408C181.26 275.663 181.189 275.948 181.189 276.263V281H180V275.996C180 275.704 179.936 275.451 179.809 275.237C179.686 275.019 179.508 274.85 179.275 274.731C179.048 274.613 178.779 274.554 178.469 274.554C178.15 274.554 177.86 274.638 177.601 274.807C177.345 274.975 177.143 275.203 176.992 275.49C176.846 275.773 176.773 276.087 176.773 276.434V281H175.584ZM187.766 283.461V273.631H188.955V274.807H189.064C189.215 274.533 189.404 274.301 189.632 274.109C189.86 273.913 190.119 273.763 190.411 273.658C190.703 273.553 191.02 273.501 191.361 273.501C191.986 273.501 192.528 273.66 192.988 273.979C193.453 274.294 193.813 274.736 194.068 275.306C194.324 275.875 194.451 276.543 194.451 277.309V277.322C194.451 278.092 194.324 278.762 194.068 279.332C193.813 279.902 193.453 280.344 192.988 280.658C192.528 280.973 191.986 281.13 191.361 281.13C191.024 281.13 190.705 281.077 190.404 280.973C190.108 280.863 189.844 280.713 189.611 280.521C189.383 280.33 189.201 280.102 189.064 279.838H188.955V283.461H187.766ZM191.088 280.077C191.539 280.077 191.924 279.968 192.243 279.749C192.562 279.526 192.806 279.209 192.975 278.799C193.148 278.384 193.234 277.892 193.234 277.322V277.309C193.234 276.734 193.148 276.242 192.975 275.832C192.806 275.422 192.562 275.107 192.243 274.889C191.924 274.665 191.539 274.554 191.088 274.554C190.641 274.554 190.256 274.665 189.933 274.889C189.609 275.112 189.361 275.429 189.188 275.839C189.014 276.249 188.928 276.739 188.928 277.309V277.322C188.928 277.887 189.014 278.377 189.188 278.792C189.361 279.202 189.609 279.519 189.933 279.742C190.256 279.965 190.641 280.077 191.088 280.077ZM198.929 281.055C198.172 281.055 197.623 280.902 197.281 280.597C196.944 280.291 196.775 279.788 196.775 279.086V274.615H195.613V273.631H196.775V271.724H198.006V273.631H199.619V274.615H198.006V278.785C198.006 279.218 198.088 279.53 198.252 279.722C198.416 279.909 198.689 280.002 199.072 280.002C199.177 280.002 199.266 280 199.339 279.995C199.416 279.991 199.51 279.984 199.619 279.975V280.986C199.505 281.005 199.391 281.021 199.277 281.034C199.163 281.048 199.047 281.055 198.929 281.055ZM202.025 283.584C201.948 283.584 201.861 283.579 201.766 283.57C201.67 283.566 201.581 283.557 201.499 283.543V282.565C201.572 282.579 201.652 282.588 201.738 282.593C201.825 282.597 201.909 282.6 201.991 282.6C202.328 282.6 202.604 282.513 202.818 282.34C203.037 282.167 203.213 281.868 203.345 281.444L203.481 281.007L200.754 273.631H202.025L204.295 280.439L203.823 279.694H204.384L203.912 280.439L206.175 273.631H207.426L204.548 281.451C204.347 282.003 204.135 282.433 203.912 282.743C203.689 283.053 203.427 283.27 203.126 283.393C202.83 283.52 202.463 283.584 202.025 283.584ZM208.943 281.068C208.702 281.068 208.492 280.982 208.314 280.809C208.141 280.631 208.055 280.421 208.055 280.18C208.055 279.934 208.141 279.724 208.314 279.551C208.492 279.378 208.702 279.291 208.943 279.291C209.189 279.291 209.399 279.378 209.572 279.551C209.745 279.724 209.832 279.934 209.832 280.18C209.832 280.421 209.745 280.631 209.572 280.809C209.399 280.982 209.189 281.068 208.943 281.068ZM216.217 281V271.136H219.983C220.617 271.136 221.168 271.259 221.638 271.505C222.112 271.746 222.479 272.086 222.738 272.523C222.998 272.961 223.128 273.476 223.128 274.068V274.082C223.128 274.766 222.952 275.358 222.602 275.859C222.251 276.361 221.765 276.709 221.146 276.905L223.429 281H221.986L219.874 277.097C219.865 277.097 219.854 277.097 219.84 277.097C219.826 277.097 219.815 277.097 219.806 277.097H217.447V281H216.217ZM217.447 276.003H219.874C220.507 276.003 220.995 275.841 221.337 275.518C221.683 275.189 221.856 274.725 221.856 274.123V274.109C221.856 273.521 221.676 273.061 221.316 272.729C220.956 272.396 220.457 272.229 219.819 272.229H217.447V276.003ZM228.016 281.13C227.314 281.13 226.71 280.975 226.204 280.665C225.703 280.355 225.315 279.918 225.042 279.353C224.773 278.783 224.639 278.113 224.639 277.343V277.336C224.639 276.575 224.773 275.907 225.042 275.333C225.315 274.759 225.701 274.31 226.197 273.986C226.694 273.663 227.275 273.501 227.94 273.501C228.61 273.501 229.185 273.656 229.663 273.966C230.146 274.276 230.515 274.709 230.771 275.265C231.03 275.816 231.16 276.459 231.16 277.192V277.657H225.254V276.707H230.552L229.964 277.575V277.104C229.964 276.525 229.877 276.049 229.704 275.675C229.531 275.301 229.292 275.023 228.986 274.841C228.681 274.654 228.33 274.561 227.934 274.561C227.537 274.561 227.182 274.659 226.867 274.854C226.557 275.046 226.311 275.331 226.129 275.709C225.947 276.087 225.855 276.552 225.855 277.104V277.575C225.855 278.099 225.944 278.548 226.122 278.922C226.3 279.291 226.553 279.576 226.881 279.776C227.209 279.972 227.596 280.07 228.043 280.07C228.376 280.07 228.665 280.025 228.911 279.934C229.157 279.842 229.36 279.726 229.52 279.585C229.679 279.444 229.791 279.3 229.854 279.154L229.882 279.093H231.071L231.058 279.147C230.994 279.398 230.88 279.642 230.716 279.879C230.556 280.111 230.349 280.323 230.094 280.515C229.839 280.701 229.535 280.852 229.185 280.966C228.838 281.075 228.449 281.13 228.016 281.13ZM235.029 281.13C234.564 281.13 234.145 281.041 233.771 280.863C233.402 280.686 233.108 280.433 232.89 280.104C232.675 279.776 232.568 279.389 232.568 278.942V278.929C232.568 278.491 232.673 278.118 232.883 277.808C233.092 277.493 233.398 277.247 233.799 277.069C234.2 276.892 234.685 276.787 235.255 276.755L237.962 276.591V277.541L235.398 277.705C234.838 277.737 234.428 277.853 234.168 278.054C233.913 278.254 233.785 278.537 233.785 278.901V278.915C233.785 279.289 233.926 279.58 234.209 279.79C234.492 279.995 234.847 280.098 235.275 280.098C235.681 280.098 236.041 280.018 236.355 279.858C236.67 279.694 236.916 279.473 237.094 279.195C237.276 278.917 237.367 278.603 237.367 278.252V275.955C237.367 275.499 237.228 275.153 236.95 274.916C236.677 274.674 236.264 274.554 235.713 274.554C235.271 274.554 234.909 274.633 234.626 274.793C234.343 274.948 234.154 275.169 234.059 275.456L234.052 275.477H232.862L232.869 275.436C232.933 275.048 233.092 274.711 233.348 274.424C233.607 274.132 233.942 273.907 234.353 273.747C234.763 273.583 235.23 273.501 235.754 273.501C236.355 273.501 236.864 273.599 237.278 273.795C237.698 273.991 238.014 274.273 238.229 274.643C238.447 275.007 238.557 275.445 238.557 275.955V281H237.367V279.913H237.258C237.103 280.173 236.914 280.394 236.69 280.576C236.472 280.758 236.223 280.897 235.945 280.993C235.667 281.084 235.362 281.13 235.029 281.13ZM243.451 281.13C242.831 281.13 242.289 280.973 241.824 280.658C241.359 280.344 240.999 279.902 240.744 279.332C240.489 278.758 240.361 278.088 240.361 277.322V277.309C240.361 276.538 240.489 275.868 240.744 275.299C240.999 274.729 241.357 274.287 241.817 273.973C242.282 273.658 242.827 273.501 243.451 273.501C243.788 273.501 244.105 273.556 244.401 273.665C244.702 273.77 244.969 273.918 245.201 274.109C245.434 274.301 245.616 274.529 245.748 274.793H245.857V270.705H247.047V281H245.857V279.824H245.748C245.598 280.098 245.409 280.332 245.181 280.528C244.953 280.72 244.693 280.868 244.401 280.973C244.11 281.077 243.793 281.13 243.451 281.13ZM243.725 280.077C244.171 280.077 244.556 279.965 244.88 279.742C245.203 279.519 245.452 279.202 245.625 278.792C245.798 278.377 245.885 277.887 245.885 277.322V277.309C245.885 276.739 245.798 276.249 245.625 275.839C245.452 275.429 245.203 275.112 244.88 274.889C244.556 274.665 244.171 274.554 243.725 274.554C243.278 274.554 242.893 274.665 242.569 274.889C242.25 275.107 242.004 275.422 241.831 275.832C241.662 276.242 241.578 276.734 241.578 277.309V277.322C241.578 277.892 241.662 278.384 241.831 278.799C242.004 279.209 242.25 279.526 242.569 279.749C242.893 279.968 243.278 280.077 243.725 280.077ZM249.959 283.584C249.882 283.584 249.795 283.579 249.699 283.57C249.604 283.566 249.515 283.557 249.433 283.543V282.565C249.506 282.579 249.585 282.588 249.672 282.593C249.758 282.597 249.843 282.6 249.925 282.6C250.262 282.6 250.538 282.513 250.752 282.34C250.971 282.167 251.146 281.868 251.278 281.444L251.415 281.007L248.688 273.631H249.959L252.229 280.439L251.757 279.694H252.317L251.846 280.439L254.108 273.631H255.359L252.481 281.451C252.281 282.003 252.069 282.433 251.846 282.743C251.622 283.053 251.36 283.27 251.06 283.393C250.763 283.52 250.396 283.584 249.959 283.584ZM263.487 281.055C262.731 281.055 262.182 280.902 261.84 280.597C261.503 280.291 261.334 279.788 261.334 279.086V274.615H260.172V273.631H261.334V271.724H262.564V273.631H264.178V274.615H262.564V278.785C262.564 279.218 262.646 279.53 262.811 279.722C262.975 279.909 263.248 280.002 263.631 280.002C263.736 280.002 263.825 280 263.897 279.995C263.975 279.991 264.068 279.984 264.178 279.975V280.986C264.064 281.005 263.95 281.021 263.836 281.034C263.722 281.048 263.606 281.055 263.487 281.055ZM268.888 281.13C268.19 281.13 267.587 280.977 267.076 280.672C266.57 280.362 266.178 279.922 265.9 279.353C265.627 278.783 265.49 278.106 265.49 277.322V277.309C265.49 276.52 265.627 275.841 265.9 275.271C266.178 274.702 266.57 274.264 267.076 273.959C267.587 273.654 268.19 273.501 268.888 273.501C269.59 273.501 270.193 273.654 270.699 273.959C271.205 274.264 271.595 274.702 271.868 275.271C272.146 275.841 272.285 276.52 272.285 277.309V277.322C272.285 278.106 272.146 278.783 271.868 279.353C271.595 279.922 271.205 280.362 270.699 280.672C270.193 280.977 269.59 281.13 268.888 281.13ZM268.888 280.077C269.353 280.077 269.747 279.968 270.07 279.749C270.394 279.53 270.64 279.216 270.809 278.806C270.982 278.396 271.068 277.901 271.068 277.322V277.309C271.068 276.725 270.982 276.229 270.809 275.818C270.64 275.408 270.394 275.096 270.07 274.882C269.747 274.663 269.353 274.554 268.888 274.554C268.423 274.554 268.029 274.663 267.705 274.882C267.382 275.096 267.133 275.408 266.96 275.818C266.791 276.229 266.707 276.725 266.707 277.309V277.322C266.707 277.901 266.791 278.396 266.96 278.806C267.133 279.216 267.382 279.53 267.705 279.749C268.029 279.968 268.423 280.077 268.888 280.077ZM280.598 281.13C280.051 281.13 279.568 281.048 279.148 280.884C278.729 280.715 278.392 280.48 278.137 280.18C277.886 279.879 277.738 279.526 277.692 279.12H278.909C279.009 279.425 279.205 279.672 279.497 279.858C279.789 280.045 280.169 280.139 280.639 280.139C280.971 280.139 281.263 280.091 281.514 279.995C281.769 279.895 281.969 279.76 282.115 279.592C282.261 279.419 282.334 279.22 282.334 278.997V278.983C282.334 278.733 282.234 278.521 282.033 278.348C281.833 278.17 281.505 278.026 281.049 277.917L279.907 277.644C279.447 277.534 279.069 277.393 278.772 277.22C278.476 277.042 278.257 276.826 278.116 276.57C277.975 276.311 277.904 276.005 277.904 275.654V275.647C277.904 275.237 278.023 274.87 278.26 274.547C278.501 274.223 278.829 273.968 279.244 273.781C279.659 273.594 280.126 273.501 280.646 273.501C281.16 273.501 281.616 273.583 282.013 273.747C282.414 273.907 282.735 274.134 282.977 274.431C283.223 274.727 283.373 275.076 283.428 275.477H282.259C282.181 275.185 282.004 274.948 281.726 274.766C281.448 274.583 281.085 274.492 280.639 274.492C280.347 274.492 280.087 274.54 279.859 274.636C279.632 274.727 279.451 274.854 279.319 275.019C279.187 275.183 279.121 275.374 279.121 275.593V275.606C279.121 275.771 279.164 275.916 279.251 276.044C279.338 276.172 279.472 276.283 279.654 276.379C279.837 276.475 280.071 276.559 280.358 276.632L281.493 276.905C282.186 277.074 282.701 277.315 283.038 277.63C283.38 277.944 283.551 278.366 283.551 278.895V278.908C283.551 279.346 283.421 279.733 283.161 280.07C282.901 280.403 282.548 280.663 282.102 280.85C281.66 281.036 281.158 281.13 280.598 281.13ZM287.946 281.055C287.19 281.055 286.641 280.902 286.299 280.597C285.962 280.291 285.793 279.788 285.793 279.086V274.615H284.631V273.631H285.793V271.724H287.023V273.631H288.637V274.615H287.023V278.785C287.023 279.218 287.105 279.53 287.27 279.722C287.434 279.909 287.707 280.002 288.09 280.002C288.195 280.002 288.284 280 288.356 279.995C288.434 279.991 288.527 279.984 288.637 279.975V280.986C288.523 281.005 288.409 281.021 288.295 281.034C288.181 281.048 288.065 281.055 287.946 281.055ZM292.438 281.13C291.973 281.13 291.553 281.041 291.18 280.863C290.811 280.686 290.517 280.433 290.298 280.104C290.084 279.776 289.977 279.389 289.977 278.942V278.929C289.977 278.491 290.081 278.118 290.291 277.808C290.501 277.493 290.806 277.247 291.207 277.069C291.608 276.892 292.093 276.787 292.663 276.755L295.37 276.591V277.541L292.807 277.705C292.246 277.737 291.836 277.853 291.576 278.054C291.321 278.254 291.193 278.537 291.193 278.901V278.915C291.193 279.289 291.335 279.58 291.617 279.79C291.9 279.995 292.255 280.098 292.684 280.098C293.089 280.098 293.449 280.018 293.764 279.858C294.078 279.694 294.324 279.473 294.502 279.195C294.684 278.917 294.775 278.603 294.775 278.252V275.955C294.775 275.499 294.636 275.153 294.358 274.916C294.085 274.674 293.673 274.554 293.121 274.554C292.679 274.554 292.317 274.633 292.034 274.793C291.752 274.948 291.562 275.169 291.467 275.456L291.46 275.477H290.271L290.277 275.436C290.341 275.048 290.501 274.711 290.756 274.424C291.016 274.132 291.351 273.907 291.761 273.747C292.171 273.583 292.638 273.501 293.162 273.501C293.764 273.501 294.272 273.599 294.687 273.795C295.106 273.991 295.423 274.273 295.637 274.643C295.855 275.007 295.965 275.445 295.965 275.955V281H294.775V279.913H294.666C294.511 280.173 294.322 280.394 294.099 280.576C293.88 280.758 293.632 280.897 293.354 280.993C293.076 281.084 292.77 281.13 292.438 281.13ZM298.139 281V273.631H299.328V274.725H299.438C299.579 274.337 299.818 274.036 300.155 273.822C300.493 273.608 300.91 273.501 301.406 273.501C301.52 273.501 301.632 273.508 301.741 273.521C301.855 273.531 301.942 273.54 302.001 273.549V274.704C301.878 274.681 301.757 274.665 301.639 274.656C301.525 274.643 301.402 274.636 301.27 274.636C300.891 274.636 300.556 274.711 300.265 274.861C299.973 275.012 299.743 275.221 299.574 275.49C299.41 275.759 299.328 276.074 299.328 276.434V281H298.139ZM306.226 281.055C305.469 281.055 304.92 280.902 304.578 280.597C304.241 280.291 304.072 279.788 304.072 279.086V274.615H302.91V273.631H304.072V271.724H305.303V273.631H306.916V274.615H305.303V278.785C305.303 279.218 305.385 279.53 305.549 279.722C305.713 279.909 305.986 280.002 306.369 280.002C306.474 280.002 306.563 280 306.636 279.995C306.713 279.991 306.807 279.984 306.916 279.975V280.986C306.802 281.005 306.688 281.021 306.574 281.034C306.46 281.048 306.344 281.055 306.226 281.055ZM313.26 283.584C313.182 283.584 313.096 283.579 313 283.57C312.904 283.566 312.815 283.557 312.733 283.543V282.565C312.806 282.579 312.886 282.588 312.973 282.593C313.059 282.597 313.144 282.6 313.226 282.6C313.563 282.6 313.839 282.513 314.053 282.34C314.271 282.167 314.447 281.868 314.579 281.444L314.716 281.007L311.988 273.631H313.26L315.529 280.439L315.058 279.694H315.618L315.146 280.439L317.409 273.631H318.66L315.782 281.451C315.582 282.003 315.37 282.433 315.146 282.743C314.923 283.053 314.661 283.27 314.36 283.393C314.064 283.52 313.697 283.584 313.26 283.584ZM322.987 281.13C322.29 281.13 321.686 280.977 321.176 280.672C320.67 280.362 320.278 279.922 320 279.353C319.727 278.783 319.59 278.106 319.59 277.322V277.309C319.59 276.52 319.727 275.841 320 275.271C320.278 274.702 320.67 274.264 321.176 273.959C321.686 273.654 322.29 273.501 322.987 273.501C323.689 273.501 324.293 273.654 324.799 273.959C325.305 274.264 325.694 274.702 325.968 275.271C326.246 275.841 326.385 276.52 326.385 277.309V277.322C326.385 278.106 326.246 278.783 325.968 279.353C325.694 279.922 325.305 280.362 324.799 280.672C324.293 280.977 323.689 281.13 322.987 281.13ZM322.987 280.077C323.452 280.077 323.846 279.968 324.17 279.749C324.493 279.53 324.74 279.216 324.908 278.806C325.081 278.396 325.168 277.901 325.168 277.322V277.309C325.168 276.725 325.081 276.229 324.908 275.818C324.74 275.408 324.493 275.096 324.17 274.882C323.846 274.663 323.452 274.554 322.987 274.554C322.522 274.554 322.128 274.663 321.805 274.882C321.481 275.096 321.233 275.408 321.06 275.818C320.891 276.229 320.807 276.725 320.807 277.309V277.322C320.807 277.901 320.891 278.396 321.06 278.806C321.233 279.216 321.481 279.53 321.805 279.749C322.128 279.968 322.522 280.077 322.987 280.077ZM330.698 281.13C330.142 281.13 329.675 281.025 329.297 280.815C328.919 280.601 328.634 280.291 328.442 279.886C328.256 279.476 328.162 278.981 328.162 278.402V273.631H329.352V278.115C329.352 278.776 329.479 279.268 329.734 279.592C329.994 279.915 330.418 280.077 331.006 280.077C331.329 280.077 331.614 280.029 331.86 279.934C332.111 279.838 332.321 279.701 332.489 279.523C332.658 279.341 332.783 279.122 332.865 278.867C332.952 278.607 332.995 278.316 332.995 277.992V273.631H334.185V281H332.995V279.899H332.886C332.767 280.159 332.605 280.382 332.4 280.569C332.195 280.752 331.949 280.891 331.662 280.986C331.38 281.082 331.058 281.13 330.698 281.13ZM336.406 281V273.631H337.596V274.725H337.705C337.846 274.337 338.086 274.036 338.423 273.822C338.76 273.608 339.177 273.501 339.674 273.501C339.788 273.501 339.899 273.508 340.009 273.521C340.123 273.531 340.209 273.54 340.269 273.549V274.704C340.146 274.681 340.025 274.665 339.906 274.656C339.792 274.643 339.669 274.636 339.537 274.636C339.159 274.636 338.824 274.711 338.532 274.861C338.241 275.012 338.01 275.221 337.842 275.49C337.678 275.759 337.596 276.074 337.596 276.434V281H336.406ZM42.1328 300.529C42.1009 300.529 42.069 300.529 42.0371 300.529C42.0007 300.529 41.9642 300.529 41.9277 300.529V299.477C41.9596 299.477 41.9893 299.477 42.0166 299.477C42.0439 299.477 42.0736 299.477 42.1055 299.477C42.5065 299.477 42.7891 299.395 42.9531 299.23C43.1217 299.071 43.2061 298.788 43.2061 298.383V290.631H44.3955V298.362C44.3955 299.119 44.2109 299.668 43.8418 300.01C43.4772 300.356 42.9076 300.529 42.1328 300.529ZM43.8008 289.209C43.5775 289.209 43.3838 289.129 43.2197 288.97C43.0602 288.806 42.9805 288.612 42.9805 288.389C42.9805 288.161 43.0602 287.967 43.2197 287.808C43.3838 287.648 43.5775 287.568 43.8008 287.568C44.0286 287.568 44.2223 287.648 44.3818 287.808C44.5413 287.967 44.6211 288.161 44.6211 288.389C44.6211 288.612 44.5413 288.806 44.3818 288.97C44.2223 289.129 44.0286 289.209 43.8008 289.209ZM49.6729 298.13C48.9756 298.13 48.3717 297.977 47.8613 297.672C47.3555 297.362 46.9635 296.922 46.6855 296.353C46.4121 295.783 46.2754 295.106 46.2754 294.322V294.309C46.2754 293.52 46.4121 292.841 46.6855 292.271C46.9635 291.702 47.3555 291.264 47.8613 290.959C48.3717 290.654 48.9756 290.501 49.6729 290.501C50.3747 290.501 50.9785 290.654 51.4844 290.959C51.9902 291.264 52.3799 291.702 52.6533 292.271C52.9313 292.841 53.0703 293.52 53.0703 294.309V294.322C53.0703 295.106 52.9313 295.783 52.6533 296.353C52.3799 296.922 51.9902 297.362 51.4844 297.672C50.9785 297.977 50.3747 298.13 49.6729 298.13ZM49.6729 297.077C50.1377 297.077 50.5319 296.968 50.8555 296.749C51.179 296.53 51.4251 296.216 51.5938 295.806C51.7669 295.396 51.8535 294.901 51.8535 294.322V294.309C51.8535 293.725 51.7669 293.229 51.5938 292.818C51.4251 292.408 51.179 292.096 50.8555 291.882C50.5319 291.663 50.1377 291.554 49.6729 291.554C49.208 291.554 48.8138 291.663 48.4902 291.882C48.1667 292.096 47.9183 292.408 47.7451 292.818C47.5765 293.229 47.4922 293.725 47.4922 294.309V294.322C47.4922 294.901 47.5765 295.396 47.7451 295.806C47.9183 296.216 48.1667 296.53 48.4902 296.749C48.8138 296.968 49.208 297.077 49.6729 297.077ZM57.3838 298.13C56.8278 298.13 56.3607 298.025 55.9824 297.815C55.6042 297.601 55.3193 297.291 55.1279 296.886C54.9411 296.476 54.8477 295.981 54.8477 295.402V290.631H56.0371V295.115C56.0371 295.776 56.1647 296.268 56.4199 296.592C56.6797 296.915 57.1035 297.077 57.6914 297.077C58.015 297.077 58.2998 297.029 58.5459 296.934C58.7965 296.838 59.0062 296.701 59.1748 296.523C59.3434 296.341 59.4688 296.122 59.5508 295.867C59.6374 295.607 59.6807 295.316 59.6807 294.992V290.631H60.8701V298H59.6807V296.899H59.5713C59.4528 297.159 59.291 297.382 59.0859 297.569C58.8809 297.752 58.6348 297.891 58.3477 297.986C58.0651 298.082 57.7438 298.13 57.3838 298.13ZM63.0918 298V290.631H64.2812V291.725H64.3906C64.5319 291.337 64.7712 291.036 65.1084 290.822C65.4456 290.608 65.8626 290.501 66.3594 290.501C66.4733 290.501 66.585 290.508 66.6943 290.521C66.8083 290.531 66.8949 290.54 66.9541 290.549V291.704C66.8311 291.681 66.7103 291.665 66.5918 291.656C66.4779 291.643 66.3548 291.636 66.2227 291.636C65.8444 291.636 65.5094 291.711 65.2178 291.861C64.9261 292.012 64.696 292.221 64.5273 292.49C64.3633 292.759 64.2812 293.074 64.2812 293.434V298H63.0918ZM68.5605 298V290.631H69.75V291.738H69.8594C70.0462 291.346 70.3151 291.043 70.666 290.829C71.0169 290.61 71.4635 290.501 72.0059 290.501C72.8353 290.501 73.471 290.738 73.9131 291.212C74.3597 291.681 74.583 292.354 74.583 293.229V298H73.3936V293.516C73.3936 292.85 73.2523 292.358 72.9697 292.039C72.6917 291.715 72.2588 291.554 71.6709 291.554C71.279 291.554 70.9395 291.638 70.6523 291.807C70.3652 291.975 70.1419 292.215 69.9824 292.524C69.8275 292.834 69.75 293.206 69.75 293.639V298H68.5605ZM79.7441 298.13C79.0423 298.13 78.4385 297.975 77.9326 297.665C77.4313 297.355 77.0439 296.918 76.7705 296.353C76.5016 295.783 76.3672 295.113 76.3672 294.343V294.336C76.3672 293.575 76.5016 292.907 76.7705 292.333C77.0439 291.759 77.429 291.31 77.9258 290.986C78.4225 290.663 79.0036 290.501 79.6689 290.501C80.3389 290.501 80.9131 290.656 81.3916 290.966C81.8747 291.276 82.2438 291.709 82.499 292.265C82.7588 292.816 82.8887 293.459 82.8887 294.192V294.657H76.9824V293.707H82.2803L81.6924 294.575V294.104C81.6924 293.525 81.6058 293.049 81.4326 292.675C81.2594 292.301 81.0202 292.023 80.7148 291.841C80.4095 291.654 80.0586 291.561 79.6621 291.561C79.2656 291.561 78.9102 291.659 78.5957 291.854C78.2858 292.046 78.0397 292.331 77.8574 292.709C77.6751 293.087 77.584 293.552 77.584 294.104V294.575C77.584 295.099 77.6729 295.548 77.8506 295.922C78.0283 296.291 78.2812 296.576 78.6094 296.776C78.9375 296.972 79.3249 297.07 79.7715 297.07C80.1042 297.07 80.3936 297.025 80.6396 296.934C80.8857 296.842 81.0885 296.726 81.248 296.585C81.4076 296.444 81.5192 296.3 81.583 296.154L81.6104 296.093H82.7998L82.7861 296.147C82.7223 296.398 82.6084 296.642 82.4443 296.879C82.2848 297.111 82.0775 297.323 81.8223 297.515C81.5671 297.701 81.264 297.852 80.9131 297.966C80.5667 298.075 80.1771 298.13 79.7441 298.13ZM85.2266 300.584C85.1491 300.584 85.0625 300.579 84.9668 300.57C84.8711 300.566 84.7822 300.557 84.7002 300.543V299.565C84.7731 299.579 84.8529 299.588 84.9395 299.593C85.026 299.597 85.1104 299.6 85.1924 299.6C85.5296 299.6 85.8053 299.513 86.0195 299.34C86.2383 299.167 86.4137 298.868 86.5459 298.444L86.6826 298.007L83.9551 290.631H85.2266L87.4961 297.439L87.0244 296.694H87.585L87.1133 297.439L89.376 290.631H90.627L87.749 298.451C87.5485 299.003 87.3366 299.433 87.1133 299.743C86.89 300.053 86.6279 300.27 86.3271 300.393C86.0309 300.52 85.6641 300.584 85.2266 300.584ZM98.666 298.13C98.1191 298.13 97.6361 298.048 97.2168 297.884C96.7975 297.715 96.4603 297.48 96.2051 297.18C95.9544 296.879 95.8063 296.526 95.7607 296.12H96.9775C97.0778 296.425 97.2738 296.672 97.5654 296.858C97.8571 297.045 98.2376 297.139 98.707 297.139C99.0397 297.139 99.3314 297.091 99.582 296.995C99.8372 296.895 100.038 296.76 100.184 296.592C100.329 296.419 100.402 296.22 100.402 295.997V295.983C100.402 295.733 100.302 295.521 100.102 295.348C99.901 295.17 99.5729 295.026 99.1172 294.917L97.9756 294.644C97.5153 294.534 97.137 294.393 96.8408 294.22C96.5446 294.042 96.3258 293.826 96.1846 293.57C96.0433 293.311 95.9727 293.005 95.9727 292.654V292.647C95.9727 292.237 96.0911 291.87 96.3281 291.547C96.5697 291.223 96.8978 290.968 97.3125 290.781C97.7272 290.594 98.1943 290.501 98.7139 290.501C99.2288 290.501 99.6846 290.583 100.081 290.747C100.482 290.907 100.803 291.134 101.045 291.431C101.291 291.727 101.441 292.076 101.496 292.477H100.327C100.25 292.185 100.072 291.948 99.7939 291.766C99.516 291.583 99.1536 291.492 98.707 291.492C98.4154 291.492 98.1556 291.54 97.9277 291.636C97.6999 291.727 97.5199 291.854 97.3877 292.019C97.2555 292.183 97.1895 292.374 97.1895 292.593V292.606C97.1895 292.771 97.2327 292.916 97.3193 293.044C97.4059 293.172 97.5404 293.283 97.7227 293.379C97.9049 293.475 98.1396 293.559 98.4268 293.632L99.5615 293.905C100.254 294.074 100.769 294.315 101.106 294.63C101.448 294.944 101.619 295.366 101.619 295.895V295.908C101.619 296.346 101.489 296.733 101.229 297.07C100.97 297.403 100.617 297.663 100.17 297.85C99.7279 298.036 99.2266 298.13 98.666 298.13ZM106.479 298.13C105.791 298.13 105.194 297.973 104.688 297.658C104.183 297.344 103.791 296.899 103.513 296.325C103.235 295.751 103.096 295.074 103.096 294.295V294.281C103.096 293.516 103.232 292.85 103.506 292.285C103.784 291.72 104.176 291.283 104.682 290.973C105.188 290.658 105.785 290.501 106.473 290.501C107.07 290.501 107.585 290.606 108.018 290.815C108.451 291.025 108.797 291.308 109.057 291.663C109.316 292.014 109.483 292.408 109.556 292.846L109.562 292.887H108.38L108.373 292.866C108.282 292.502 108.075 292.192 107.751 291.937C107.427 291.681 107.001 291.554 106.473 291.554C106.031 291.554 105.648 291.665 105.324 291.889C105.001 292.112 104.75 292.429 104.572 292.839C104.399 293.244 104.312 293.725 104.312 294.281V294.295C104.312 294.86 104.401 295.352 104.579 295.771C104.757 296.186 105.007 296.507 105.331 296.735C105.655 296.963 106.035 297.077 106.473 297.077C106.969 297.077 107.375 296.97 107.689 296.756C108.004 296.542 108.229 296.229 108.366 295.819L108.38 295.778L109.556 295.771L109.542 295.847C109.442 296.289 109.264 296.683 109.009 297.029C108.754 297.371 108.416 297.64 107.997 297.836C107.578 298.032 107.072 298.13 106.479 298.13ZM113.322 298.13C112.857 298.13 112.438 298.041 112.064 297.863C111.695 297.686 111.401 297.433 111.183 297.104C110.968 296.776 110.861 296.389 110.861 295.942V295.929C110.861 295.491 110.966 295.118 111.176 294.808C111.385 294.493 111.691 294.247 112.092 294.069C112.493 293.892 112.978 293.787 113.548 293.755L116.255 293.591V294.541L113.691 294.705C113.131 294.737 112.721 294.853 112.461 295.054C112.206 295.254 112.078 295.537 112.078 295.901V295.915C112.078 296.289 112.219 296.58 112.502 296.79C112.785 296.995 113.14 297.098 113.568 297.098C113.974 297.098 114.334 297.018 114.648 296.858C114.963 296.694 115.209 296.473 115.387 296.195C115.569 295.917 115.66 295.603 115.66 295.252V292.955C115.66 292.499 115.521 292.153 115.243 291.916C114.97 291.674 114.557 291.554 114.006 291.554C113.564 291.554 113.201 291.633 112.919 291.793C112.636 291.948 112.447 292.169 112.352 292.456L112.345 292.477H111.155L111.162 292.436C111.226 292.048 111.385 291.711 111.641 291.424C111.9 291.132 112.235 290.907 112.646 290.747C113.056 290.583 113.523 290.501 114.047 290.501C114.648 290.501 115.157 290.599 115.571 290.795C115.991 290.991 116.307 291.273 116.521 291.643C116.74 292.007 116.85 292.445 116.85 292.955V298H115.66V296.913H115.551C115.396 297.173 115.207 297.394 114.983 297.576C114.765 297.758 114.516 297.897 114.238 297.993C113.96 298.084 113.655 298.13 113.322 298.13ZM119.023 298V290.631H120.213V291.738H120.322C120.509 291.346 120.778 291.043 121.129 290.829C121.48 290.61 121.926 290.501 122.469 290.501C123.298 290.501 123.934 290.738 124.376 291.212C124.823 291.681 125.046 292.354 125.046 293.229V298H123.856V293.516C123.856 292.85 123.715 292.358 123.433 292.039C123.155 291.715 122.722 291.554 122.134 291.554C121.742 291.554 121.402 291.638 121.115 291.807C120.828 291.975 120.605 292.215 120.445 292.524C120.29 292.834 120.213 293.206 120.213 293.639V298H119.023ZM133.16 298.13C132.695 298.13 132.276 298.041 131.902 297.863C131.533 297.686 131.239 297.433 131.021 297.104C130.806 296.776 130.699 296.389 130.699 295.942V295.929C130.699 295.491 130.804 295.118 131.014 294.808C131.223 294.493 131.529 294.247 131.93 294.069C132.331 293.892 132.816 293.787 133.386 293.755L136.093 293.591V294.541L133.529 294.705C132.969 294.737 132.559 294.853 132.299 295.054C132.044 295.254 131.916 295.537 131.916 295.901V295.915C131.916 296.289 132.057 296.58 132.34 296.79C132.622 296.995 132.978 297.098 133.406 297.098C133.812 297.098 134.172 297.018 134.486 296.858C134.801 296.694 135.047 296.473 135.225 296.195C135.407 295.917 135.498 295.603 135.498 295.252V292.955C135.498 292.499 135.359 292.153 135.081 291.916C134.808 291.674 134.395 291.554 133.844 291.554C133.402 291.554 133.039 291.633 132.757 291.793C132.474 291.948 132.285 292.169 132.189 292.456L132.183 292.477H130.993L131 292.436C131.064 292.048 131.223 291.711 131.479 291.424C131.738 291.132 132.073 290.907 132.483 290.747C132.894 290.583 133.361 290.501 133.885 290.501C134.486 290.501 134.994 290.599 135.409 290.795C135.828 290.991 136.145 291.273 136.359 291.643C136.578 292.007 136.688 292.445 136.688 292.955V298H135.498V296.913H135.389C135.234 297.173 135.045 297.394 134.821 297.576C134.603 297.758 134.354 297.897 134.076 297.993C133.798 298.084 133.493 298.13 133.16 298.13ZM143.564 298V296.913H146.613C147.356 296.913 147.919 296.765 148.302 296.469C148.685 296.173 148.876 295.742 148.876 295.177V295.163C148.876 294.785 148.787 294.468 148.609 294.213C148.432 293.958 148.165 293.766 147.81 293.639C147.459 293.511 147.021 293.447 146.497 293.447H143.564V292.388H146.148C146.896 292.388 147.456 292.256 147.83 291.991C148.208 291.727 148.397 291.335 148.397 290.815V290.802C148.397 290.3 148.227 289.913 147.885 289.64C147.548 289.362 147.074 289.223 146.463 289.223H143.564V288.136H146.723C147.329 288.136 147.848 288.236 148.281 288.437C148.719 288.637 149.054 288.922 149.286 289.291C149.523 289.656 149.642 290.089 149.642 290.59V290.604C149.642 290.945 149.564 291.267 149.409 291.567C149.259 291.868 149.056 292.121 148.801 292.326C148.546 292.531 148.258 292.663 147.939 292.723V292.832C148.391 292.887 148.78 293.021 149.108 293.235C149.437 293.45 149.689 293.728 149.867 294.069C150.049 294.407 150.141 294.792 150.141 295.225V295.238C150.141 295.812 150.006 296.307 149.737 296.722C149.473 297.132 149.092 297.449 148.596 297.672C148.099 297.891 147.5 298 146.798 298H143.564ZM142.949 298V288.136H144.18V298H142.949ZM152.027 298V290.631H153.217V298H152.027ZM152.629 289.209C152.406 289.209 152.212 289.129 152.048 288.97C151.888 288.806 151.809 288.612 151.809 288.389C151.809 288.161 151.888 287.967 152.048 287.808C152.212 287.648 152.406 287.568 152.629 287.568C152.857 287.568 153.05 287.648 153.21 287.808C153.369 287.967 153.449 288.161 153.449 288.389C153.449 288.612 153.369 288.806 153.21 288.97C153.05 289.129 152.857 289.209 152.629 289.209ZM155.527 298V287.705H156.717V298H155.527ZM159.068 298V287.705H160.258V298H159.068ZM169.507 298.13C168.81 298.13 168.206 297.977 167.695 297.672C167.189 297.362 166.798 296.922 166.52 296.353C166.246 295.783 166.109 295.106 166.109 294.322V294.309C166.109 293.52 166.246 292.841 166.52 292.271C166.798 291.702 167.189 291.264 167.695 290.959C168.206 290.654 168.81 290.501 169.507 290.501C170.209 290.501 170.812 290.654 171.318 290.959C171.824 291.264 172.214 291.702 172.487 292.271C172.765 292.841 172.904 293.52 172.904 294.309V294.322C172.904 295.106 172.765 295.783 172.487 296.353C172.214 296.922 171.824 297.362 171.318 297.672C170.812 297.977 170.209 298.13 169.507 298.13ZM169.507 297.077C169.972 297.077 170.366 296.968 170.689 296.749C171.013 296.53 171.259 296.216 171.428 295.806C171.601 295.396 171.688 294.901 171.688 294.322V294.309C171.688 293.725 171.601 293.229 171.428 292.818C171.259 292.408 171.013 292.096 170.689 291.882C170.366 291.663 169.972 291.554 169.507 291.554C169.042 291.554 168.648 291.663 168.324 291.882C168.001 292.096 167.752 292.408 167.579 292.818C167.41 293.229 167.326 293.725 167.326 294.309V294.322C167.326 294.901 167.41 295.396 167.579 295.806C167.752 296.216 168.001 296.53 168.324 296.749C168.648 296.968 169.042 297.077 169.507 297.077ZM175.242 298V291.615H174.019V290.631H175.242V289.811C175.242 289.318 175.322 288.913 175.481 288.594C175.646 288.27 175.887 288.031 176.206 287.876C176.525 287.716 176.917 287.637 177.382 287.637C177.528 287.637 177.664 287.644 177.792 287.657C177.924 287.666 178.052 287.682 178.175 287.705V288.655C178.102 288.642 178.018 288.632 177.922 288.628C177.826 288.623 177.726 288.621 177.621 288.621C177.197 288.621 176.892 288.724 176.705 288.929C176.523 289.134 176.432 289.439 176.432 289.845V290.631H178.106V291.615H176.432V298H175.242ZM183.828 298V287.705H185.018V298H183.828ZM189.324 298.13C188.859 298.13 188.44 298.041 188.066 297.863C187.697 297.686 187.403 297.433 187.185 297.104C186.97 296.776 186.863 296.389 186.863 295.942V295.929C186.863 295.491 186.968 295.118 187.178 294.808C187.387 294.493 187.693 294.247 188.094 294.069C188.495 293.892 188.98 293.787 189.55 293.755L192.257 293.591V294.541L189.693 294.705C189.133 294.737 188.723 294.853 188.463 295.054C188.208 295.254 188.08 295.537 188.08 295.901V295.915C188.08 296.289 188.221 296.58 188.504 296.79C188.786 296.995 189.142 297.098 189.57 297.098C189.976 297.098 190.336 297.018 190.65 296.858C190.965 296.694 191.211 296.473 191.389 296.195C191.571 295.917 191.662 295.603 191.662 295.252V292.955C191.662 292.499 191.523 292.153 191.245 291.916C190.972 291.674 190.559 291.554 190.008 291.554C189.566 291.554 189.203 291.633 188.921 291.793C188.638 291.948 188.449 292.169 188.354 292.456L188.347 292.477H187.157L187.164 292.436C187.228 292.048 187.387 291.711 187.643 291.424C187.902 291.132 188.237 290.907 188.647 290.747C189.058 290.583 189.525 290.501 190.049 290.501C190.65 290.501 191.159 290.599 191.573 290.795C191.993 290.991 192.309 291.273 192.523 291.643C192.742 292.007 192.852 292.445 192.852 292.955V298H191.662V296.913H191.553C191.398 297.173 191.209 297.394 190.985 297.576C190.767 297.758 190.518 297.897 190.24 297.993C189.962 298.084 189.657 298.13 189.324 298.13ZM197.746 298.13C197.126 298.13 196.584 297.973 196.119 297.658C195.654 297.344 195.294 296.902 195.039 296.332C194.784 295.758 194.656 295.088 194.656 294.322V294.309C194.656 293.538 194.784 292.868 195.039 292.299C195.294 291.729 195.652 291.287 196.112 290.973C196.577 290.658 197.122 290.501 197.746 290.501C198.083 290.501 198.4 290.556 198.696 290.665C198.997 290.77 199.264 290.918 199.496 291.109C199.729 291.301 199.911 291.529 200.043 291.793H200.152V287.705H201.342V298H200.152V296.824H200.043C199.893 297.098 199.703 297.332 199.476 297.528C199.248 297.72 198.988 297.868 198.696 297.973C198.405 298.077 198.088 298.13 197.746 298.13ZM198.02 297.077C198.466 297.077 198.851 296.965 199.175 296.742C199.498 296.519 199.747 296.202 199.92 295.792C200.093 295.377 200.18 294.887 200.18 294.322V294.309C200.18 293.739 200.093 293.249 199.92 292.839C199.747 292.429 199.498 292.112 199.175 291.889C198.851 291.665 198.466 291.554 198.02 291.554C197.573 291.554 197.188 291.665 196.864 291.889C196.545 292.107 196.299 292.422 196.126 292.832C195.957 293.242 195.873 293.734 195.873 294.309V294.322C195.873 294.892 195.957 295.384 196.126 295.799C196.299 296.209 196.545 296.526 196.864 296.749C197.188 296.968 197.573 297.077 198.02 297.077ZM203.652 298V290.631H204.842V298H203.652ZM204.254 289.209C204.031 289.209 203.837 289.129 203.673 288.97C203.513 288.806 203.434 288.612 203.434 288.389C203.434 288.161 203.513 287.967 203.673 287.808C203.837 287.648 204.031 287.568 204.254 287.568C204.482 287.568 204.675 287.648 204.835 287.808C204.994 287.967 205.074 288.161 205.074 288.389C205.074 288.612 204.994 288.806 204.835 288.97C204.675 289.129 204.482 289.209 204.254 289.209ZM207.084 298V290.631H208.273V291.738H208.383C208.57 291.346 208.839 291.043 209.189 290.829C209.54 290.61 209.987 290.501 210.529 290.501C211.359 290.501 211.994 290.738 212.437 291.212C212.883 291.681 213.106 292.354 213.106 293.229V298H211.917V293.516C211.917 292.85 211.776 292.358 211.493 292.039C211.215 291.715 210.782 291.554 210.194 291.554C209.802 291.554 209.463 291.638 209.176 291.807C208.889 291.975 208.665 292.215 208.506 292.524C208.351 292.834 208.273 293.206 208.273 293.639V298H207.084ZM218.295 300.598C217.702 300.598 217.185 300.513 216.743 300.345C216.301 300.181 215.948 299.946 215.684 299.641C215.424 299.34 215.262 298.989 215.198 298.588L215.212 298.581H216.442L216.449 298.588C216.513 298.866 216.704 299.094 217.023 299.271C217.342 299.454 217.766 299.545 218.295 299.545C218.956 299.545 219.471 299.395 219.84 299.094C220.214 298.798 220.4 298.378 220.4 297.836V296.346H220.291C220.136 296.615 219.942 296.845 219.71 297.036C219.478 297.228 219.215 297.373 218.924 297.474C218.632 297.569 218.318 297.617 217.98 297.617C217.347 297.617 216.798 297.467 216.333 297.166C215.873 296.861 215.517 296.441 215.267 295.908C215.016 295.375 214.891 294.764 214.891 294.076V294.062C214.891 293.374 215.016 292.764 215.267 292.23C215.522 291.693 215.882 291.271 216.347 290.966C216.812 290.656 217.365 290.501 218.008 290.501C218.354 290.501 218.673 290.556 218.965 290.665C219.257 290.774 219.514 290.929 219.737 291.13C219.965 291.33 220.154 291.57 220.305 291.848H220.387V290.631H221.576V297.897C221.576 298.444 221.442 298.921 221.173 299.326C220.909 299.732 220.53 300.044 220.038 300.263C219.546 300.486 218.965 300.598 218.295 300.598ZM218.24 296.564C218.696 296.564 219.086 296.46 219.409 296.25C219.737 296.036 219.988 295.742 220.161 295.368C220.339 294.994 220.428 294.564 220.428 294.076V294.062C220.428 293.575 220.339 293.142 220.161 292.764C219.988 292.385 219.737 292.089 219.409 291.875C219.086 291.661 218.696 291.554 218.24 291.554C217.785 291.554 217.397 291.661 217.078 291.875C216.764 292.089 216.522 292.385 216.354 292.764C216.189 293.142 216.107 293.575 216.107 294.062V294.076C216.107 294.564 216.189 294.994 216.354 295.368C216.522 295.742 216.764 296.036 217.078 296.25C217.397 296.46 217.785 296.564 218.24 296.564ZM230.347 298.055C229.59 298.055 229.041 297.902 228.699 297.597C228.362 297.291 228.193 296.788 228.193 296.086V291.615H227.031V290.631H228.193V288.724H229.424V290.631H231.037V291.615H229.424V295.785C229.424 296.218 229.506 296.53 229.67 296.722C229.834 296.909 230.107 297.002 230.49 297.002C230.595 297.002 230.684 297 230.757 296.995C230.834 296.991 230.928 296.984 231.037 296.975V297.986C230.923 298.005 230.809 298.021 230.695 298.034C230.581 298.048 230.465 298.055 230.347 298.055ZM235.747 298.13C235.05 298.13 234.446 297.977 233.936 297.672C233.43 297.362 233.038 296.922 232.76 296.353C232.486 295.783 232.35 295.106 232.35 294.322V294.309C232.35 293.52 232.486 292.841 232.76 292.271C233.038 291.702 233.43 291.264 233.936 290.959C234.446 290.654 235.05 290.501 235.747 290.501C236.449 290.501 237.053 290.654 237.559 290.959C238.064 291.264 238.454 291.702 238.728 292.271C239.006 292.841 239.145 293.52 239.145 294.309V294.322C239.145 295.106 239.006 295.783 238.728 296.353C238.454 296.922 238.064 297.362 237.559 297.672C237.053 297.977 236.449 298.13 235.747 298.13ZM235.747 297.077C236.212 297.077 236.606 296.968 236.93 296.749C237.253 296.53 237.499 296.216 237.668 295.806C237.841 295.396 237.928 294.901 237.928 294.322V294.309C237.928 293.725 237.841 293.229 237.668 292.818C237.499 292.408 237.253 292.096 236.93 291.882C236.606 291.663 236.212 291.554 235.747 291.554C235.282 291.554 234.888 291.663 234.564 291.882C234.241 292.096 233.993 292.408 233.819 292.818C233.651 293.229 233.566 293.725 233.566 294.309V294.322C233.566 294.901 233.651 295.396 233.819 295.806C233.993 296.216 234.241 296.53 234.564 296.749C234.888 296.968 235.282 297.077 235.747 297.077ZM248.592 298.13C248.25 298.13 247.933 298.077 247.642 297.973C247.35 297.868 247.09 297.72 246.862 297.528C246.634 297.332 246.445 297.098 246.295 296.824H246.186V298H244.996V287.705H246.186V291.793H246.295C246.432 291.529 246.614 291.301 246.842 291.109C247.074 290.918 247.339 290.77 247.635 290.665C247.936 290.556 248.255 290.501 248.592 290.501C249.216 290.501 249.758 290.658 250.219 290.973C250.684 291.287 251.044 291.729 251.299 292.299C251.554 292.868 251.682 293.538 251.682 294.309V294.322C251.682 295.088 251.554 295.758 251.299 296.332C251.044 296.902 250.684 297.344 250.219 297.658C249.758 297.973 249.216 298.13 248.592 298.13ZM248.318 297.077C248.77 297.077 249.155 296.968 249.474 296.749C249.793 296.526 250.036 296.209 250.205 295.799C250.378 295.384 250.465 294.892 250.465 294.322V294.309C250.465 293.734 250.378 293.242 250.205 292.832C250.036 292.422 249.793 292.107 249.474 291.889C249.155 291.665 248.77 291.554 248.318 291.554C247.872 291.554 247.487 291.665 247.163 291.889C246.84 292.112 246.591 292.429 246.418 292.839C246.245 293.249 246.158 293.739 246.158 294.309V294.322C246.158 294.887 246.245 295.377 246.418 295.792C246.591 296.202 246.84 296.519 247.163 296.742C247.487 296.965 247.872 297.077 248.318 297.077ZM256.535 298.13C255.833 298.13 255.229 297.975 254.724 297.665C254.222 297.355 253.835 296.918 253.562 296.353C253.293 295.783 253.158 295.113 253.158 294.343V294.336C253.158 293.575 253.293 292.907 253.562 292.333C253.835 291.759 254.22 291.31 254.717 290.986C255.214 290.663 255.795 290.501 256.46 290.501C257.13 290.501 257.704 290.656 258.183 290.966C258.666 291.276 259.035 291.709 259.29 292.265C259.55 292.816 259.68 293.459 259.68 294.192V294.657H253.773V293.707H259.071L258.483 294.575V294.104C258.483 293.525 258.397 293.049 258.224 292.675C258.05 292.301 257.811 292.023 257.506 291.841C257.201 291.654 256.85 291.561 256.453 291.561C256.057 291.561 255.701 291.659 255.387 291.854C255.077 292.046 254.831 292.331 254.648 292.709C254.466 293.087 254.375 293.552 254.375 294.104V294.575C254.375 295.099 254.464 295.548 254.642 295.922C254.819 296.291 255.072 296.576 255.4 296.776C255.729 296.972 256.116 297.07 256.562 297.07C256.895 297.07 257.185 297.025 257.431 296.934C257.677 296.842 257.88 296.726 258.039 296.585C258.199 296.444 258.31 296.3 258.374 296.154L258.401 296.093H259.591L259.577 296.147C259.513 296.398 259.399 296.642 259.235 296.879C259.076 297.111 258.868 297.323 258.613 297.515C258.358 297.701 258.055 297.852 257.704 297.966C257.358 298.075 256.968 298.13 256.535 298.13ZM264.561 300.598C263.968 300.598 263.451 300.513 263.009 300.345C262.567 300.181 262.214 299.946 261.949 299.641C261.689 299.34 261.528 298.989 261.464 298.588L261.478 298.581H262.708L262.715 298.588C262.779 298.866 262.97 299.094 263.289 299.271C263.608 299.454 264.032 299.545 264.561 299.545C265.221 299.545 265.736 299.395 266.105 299.094C266.479 298.798 266.666 298.378 266.666 297.836V296.346H266.557C266.402 296.615 266.208 296.845 265.976 297.036C265.743 297.228 265.481 297.373 265.189 297.474C264.898 297.569 264.583 297.617 264.246 297.617C263.613 297.617 263.063 297.467 262.599 297.166C262.138 296.861 261.783 296.441 261.532 295.908C261.282 295.375 261.156 294.764 261.156 294.076V294.062C261.156 293.374 261.282 292.764 261.532 292.23C261.787 291.693 262.147 291.271 262.612 290.966C263.077 290.656 263.631 290.501 264.273 290.501C264.62 290.501 264.939 290.556 265.23 290.665C265.522 290.774 265.78 290.929 266.003 291.13C266.231 291.33 266.42 291.57 266.57 291.848H266.652V290.631H267.842V297.897C267.842 298.444 267.707 298.921 267.438 299.326C267.174 299.732 266.796 300.044 266.304 300.263C265.812 300.486 265.23 300.598 264.561 300.598ZM264.506 296.564C264.962 296.564 265.351 296.46 265.675 296.25C266.003 296.036 266.254 295.742 266.427 295.368C266.604 294.994 266.693 294.564 266.693 294.076V294.062C266.693 293.575 266.604 293.142 266.427 292.764C266.254 292.385 266.003 292.089 265.675 291.875C265.351 291.661 264.962 291.554 264.506 291.554C264.05 291.554 263.663 291.661 263.344 291.875C263.029 292.089 262.788 292.385 262.619 292.764C262.455 293.142 262.373 293.575 262.373 294.062V294.076C262.373 294.564 262.455 294.994 262.619 295.368C262.788 295.742 263.029 296.036 263.344 296.25C263.663 296.46 264.05 296.564 264.506 296.564ZM270.084 298V290.631H271.273V298H270.084ZM270.686 289.209C270.462 289.209 270.269 289.129 270.104 288.97C269.945 288.806 269.865 288.612 269.865 288.389C269.865 288.161 269.945 287.967 270.104 287.808C270.269 287.648 270.462 287.568 270.686 287.568C270.913 287.568 271.107 287.648 271.267 287.808C271.426 287.967 271.506 288.161 271.506 288.389C271.506 288.612 271.426 288.806 271.267 288.97C271.107 289.129 270.913 289.209 270.686 289.209ZM273.516 298V290.631H274.705V291.738H274.814C275.001 291.346 275.27 291.043 275.621 290.829C275.972 290.61 276.419 290.501 276.961 290.501C277.79 290.501 278.426 290.738 278.868 291.212C279.315 291.681 279.538 292.354 279.538 293.229V298H278.349V293.516C278.349 292.85 278.207 292.358 277.925 292.039C277.647 291.715 277.214 291.554 276.626 291.554C276.234 291.554 275.895 291.638 275.607 291.807C275.32 291.975 275.097 292.215 274.938 292.524C274.783 292.834 274.705 293.206 274.705 293.639V298H273.516ZM288.247 298.055C287.491 298.055 286.941 297.902 286.6 297.597C286.262 297.291 286.094 296.788 286.094 296.086V291.615H284.932V290.631H286.094V288.724H287.324V290.631H288.938V291.615H287.324V295.785C287.324 296.218 287.406 296.53 287.57 296.722C287.734 296.909 288.008 297.002 288.391 297.002C288.495 297.002 288.584 297 288.657 296.995C288.735 296.991 288.828 296.984 288.938 296.975V297.986C288.824 298.005 288.71 298.021 288.596 298.034C288.482 298.048 288.366 298.055 288.247 298.055ZM290.715 298V290.631H291.904V291.725H292.014C292.155 291.337 292.394 291.036 292.731 290.822C293.069 290.608 293.486 290.501 293.982 290.501C294.096 290.501 294.208 290.508 294.317 290.521C294.431 290.531 294.518 290.54 294.577 290.549V291.704C294.454 291.681 294.333 291.665 294.215 291.656C294.101 291.643 293.978 291.636 293.846 291.636C293.467 291.636 293.132 291.711 292.841 291.861C292.549 292.012 292.319 292.221 292.15 292.49C291.986 292.759 291.904 293.074 291.904 293.434V298H290.715ZM298.07 298.13C297.605 298.13 297.186 298.041 296.812 297.863C296.443 297.686 296.149 297.433 295.931 297.104C295.716 296.776 295.609 296.389 295.609 295.942V295.929C295.609 295.491 295.714 295.118 295.924 294.808C296.133 294.493 296.439 294.247 296.84 294.069C297.241 293.892 297.726 293.787 298.296 293.755L301.003 293.591V294.541L298.439 294.705C297.879 294.737 297.469 294.853 297.209 295.054C296.954 295.254 296.826 295.537 296.826 295.901V295.915C296.826 296.289 296.967 296.58 297.25 296.79C297.533 296.995 297.888 297.098 298.316 297.098C298.722 297.098 299.082 297.018 299.396 296.858C299.711 296.694 299.957 296.473 300.135 296.195C300.317 295.917 300.408 295.603 300.408 295.252V292.955C300.408 292.499 300.269 292.153 299.991 291.916C299.718 291.674 299.305 291.554 298.754 291.554C298.312 291.554 297.95 291.633 297.667 291.793C297.384 291.948 297.195 292.169 297.1 292.456L297.093 292.477H295.903L295.91 292.436C295.974 292.048 296.133 291.711 296.389 291.424C296.648 291.132 296.983 290.907 297.394 290.747C297.804 290.583 298.271 290.501 298.795 290.501C299.396 290.501 299.905 290.599 300.319 290.795C300.739 290.991 301.055 291.273 301.27 291.643C301.488 292.007 301.598 292.445 301.598 292.955V298H300.408V296.913H300.299C300.144 297.173 299.955 297.394 299.731 297.576C299.513 297.758 299.264 297.897 298.986 297.993C298.708 298.084 298.403 298.13 298.07 298.13ZM306.786 298.13C306.098 298.13 305.501 297.973 304.995 297.658C304.489 297.344 304.097 296.899 303.819 296.325C303.541 295.751 303.402 295.074 303.402 294.295V294.281C303.402 293.516 303.539 292.85 303.812 292.285C304.09 291.72 304.482 291.283 304.988 290.973C305.494 290.658 306.091 290.501 306.779 290.501C307.376 290.501 307.891 290.606 308.324 290.815C308.757 291.025 309.104 291.308 309.363 291.663C309.623 292.014 309.789 292.408 309.862 292.846L309.869 292.887H308.687L308.68 292.866C308.589 292.502 308.381 292.192 308.058 291.937C307.734 291.681 307.308 291.554 306.779 291.554C306.337 291.554 305.954 291.665 305.631 291.889C305.307 292.112 305.057 292.429 304.879 292.839C304.706 293.244 304.619 293.725 304.619 294.281V294.295C304.619 294.86 304.708 295.352 304.886 295.771C305.063 296.186 305.314 296.507 305.638 296.735C305.961 296.963 306.342 297.077 306.779 297.077C307.276 297.077 307.682 296.97 307.996 296.756C308.311 296.542 308.536 296.229 308.673 295.819L308.687 295.778L309.862 295.771L309.849 295.847C309.748 296.289 309.571 296.683 309.315 297.029C309.06 297.371 308.723 297.64 308.304 297.836C307.884 298.032 307.379 298.13 306.786 298.13ZM311.674 298V287.705H312.863V298H311.674ZM316.315 298L313.438 294.391L314.312 293.632L317.812 298H316.315ZM312.713 295.348L312.658 293.851H312.973L316.158 290.631H317.601L314.101 294.008L313.813 294.288L312.713 295.348ZM319.234 298V290.631H320.424V298H319.234ZM319.836 289.209C319.613 289.209 319.419 289.129 319.255 288.97C319.095 288.806 319.016 288.612 319.016 288.389C319.016 288.161 319.095 287.967 319.255 287.808C319.419 287.648 319.613 287.568 319.836 287.568C320.064 287.568 320.257 287.648 320.417 287.808C320.576 287.967 320.656 288.161 320.656 288.389C320.656 288.612 320.576 288.806 320.417 288.97C320.257 289.129 320.064 289.209 319.836 289.209ZM322.666 298V290.631H323.855V291.738H323.965C324.152 291.346 324.421 291.043 324.771 290.829C325.122 290.61 325.569 290.501 326.111 290.501C326.941 290.501 327.576 290.738 328.019 291.212C328.465 291.681 328.688 292.354 328.688 293.229V298H327.499V293.516C327.499 292.85 327.358 292.358 327.075 292.039C326.797 291.715 326.364 291.554 325.776 291.554C325.384 291.554 325.045 291.638 324.758 291.807C324.471 291.975 324.247 292.215 324.088 292.524C323.933 292.834 323.855 293.206 323.855 293.639V298H322.666ZM333.877 300.598C333.285 300.598 332.767 300.513 332.325 300.345C331.883 300.181 331.53 299.946 331.266 299.641C331.006 299.34 330.844 298.989 330.78 298.588L330.794 298.581H332.024L332.031 298.588C332.095 298.866 332.286 299.094 332.605 299.271C332.924 299.454 333.348 299.545 333.877 299.545C334.538 299.545 335.053 299.395 335.422 299.094C335.796 298.798 335.982 298.378 335.982 297.836V296.346H335.873C335.718 296.615 335.524 296.845 335.292 297.036C335.06 297.228 334.798 297.373 334.506 297.474C334.214 297.569 333.9 297.617 333.562 297.617C332.929 297.617 332.38 297.467 331.915 297.166C331.455 296.861 331.099 296.441 330.849 295.908C330.598 295.375 330.473 294.764 330.473 294.076V294.062C330.473 293.374 330.598 292.764 330.849 292.23C331.104 291.693 331.464 291.271 331.929 290.966C332.394 290.656 332.947 290.501 333.59 290.501C333.936 290.501 334.255 290.556 334.547 290.665C334.839 290.774 335.096 290.929 335.319 291.13C335.547 291.33 335.736 291.57 335.887 291.848H335.969V290.631H337.158V297.897C337.158 298.444 337.024 298.921 336.755 299.326C336.491 299.732 336.112 300.044 335.62 300.263C335.128 300.486 334.547 300.598 333.877 300.598ZM333.822 296.564C334.278 296.564 334.668 296.46 334.991 296.25C335.319 296.036 335.57 295.742 335.743 295.368C335.921 294.994 336.01 294.564 336.01 294.076V294.062C336.01 293.575 335.921 293.142 335.743 292.764C335.57 292.385 335.319 292.089 334.991 291.875C334.668 291.661 334.278 291.554 333.822 291.554C333.367 291.554 332.979 291.661 332.66 291.875C332.346 292.089 332.104 292.385 331.936 292.764C331.771 293.142 331.689 293.575 331.689 294.062V294.076C331.689 294.564 331.771 294.994 331.936 295.368C332.104 295.742 332.346 296.036 332.66 296.25C332.979 296.46 333.367 296.564 333.822 296.564ZM340.344 298.068C340.102 298.068 339.893 297.982 339.715 297.809C339.542 297.631 339.455 297.421 339.455 297.18C339.455 296.934 339.542 296.724 339.715 296.551C339.893 296.378 340.102 296.291 340.344 296.291C340.59 296.291 340.799 296.378 340.973 296.551C341.146 296.724 341.232 296.934 341.232 297.18C341.232 297.421 341.146 297.631 340.973 297.809C340.799 297.982 340.59 298.068 340.344 298.068Z" fill="#64748B"/>
<defs>
<filter id="filter0_f_68_984" x="0" y="0" width="384.5" height="349" filterUnits="userSpaceOnUse" color-interpolation-filters="sRGB">
<feFlood flood-opacity="0" result="BackgroundImageFix"/>
<feBlend mode="normal" in="SourceGraphic" in2="BackgroundImageFix" result="shape"/>
<feGaussianBlur stdDeviation="32" result="effect1_foregroundBlur_68_984"/>
</filter>
<filter id="filter1_dd_68_984" x="178.754" y="91.5037" width="74.9835" height="74.9836" filterUnits="userSpaceOnUse" color-interpolation-filters="sRGB">
<feFlood flood-opacity="0" result="BackgroundImageFix"/>
<feColorMatrix in="SourceAlpha" type="matrix" values="0 0 0 0 0 0 0 0 0 0 0 0 0 0 0 0 0 0 127 0" result="hardAlpha"/>
<feMorphology radius="4" operator="erode" in="SourceAlpha" result="effect1_dropShadow_68_984"/>
<feOffset dy="4"/>
<feGaussianBlur stdDeviation="3"/>
<feComposite in2="hardAlpha" operator="out"/>
<feColorMatrix type="matrix" values="0 0 0 0 0 0 0 0 0 0 0 0 0 0 0 0 0 0 0.1 0"/>
<feBlend mode="normal" in2="BackgroundImageFix" result="effect1_dropShadow_68_984"/>
<feColorMatrix in="SourceAlpha" type="matrix" values="0 0 0 0 0 0 0 0 0 0 0 0 0 0 0 0 0 0 127 0" result="hardAlpha"/>
<feMorphology radius="3" operator="erode" in="SourceAlpha" result="effect2_dropShadow_68_984"/>
<feOffset dy="10"/>
<feGaussianBlur stdDeviation="7.5"/>
<feComposite in2="hardAlpha" operator="out"/>
<feColorMatrix type="matrix" values="0 0 0 0 0 0 0 0 0 0 0 0 0 0 0 0 0 0 0.1 0"/>
<feBlend mode="normal" in2="effect1_dropShadow_68_984" result="effect2_dropShadow_68_984"/>
<feBlend mode="normal" in="SourceGraphic" in2="effect2_dropShadow_68_984" result="shape"/>
</filter>
</defs>
</svg>
