<svg width="269" height="160" viewBox="0 0 269 160" fill="none" xmlns="http://www.w3.org/2000/svg">
<path d="M1.73367 13.2799V8.69438H23.3382V13.2799H15.2847V35H9.7872V13.2799H1.73367ZM38.3631 26.5611C37.5154 26.5611 36.7875 26.2614 36.1795 25.662C35.5801 25.054 35.2804 24.3262 35.2804 23.4784C35.2804 22.6393 35.5801 21.92 36.1795 21.3206C36.7875 20.7211 37.5154 20.4214 38.3631 20.4214C39.1851 20.4214 39.9044 20.7211 40.521 21.3206C41.1375 21.92 41.4458 22.6393 41.4458 23.4784C41.4458 24.0436 41.3002 24.5617 41.0091 25.0326C40.7265 25.495 40.354 25.8675 39.8916 26.1501C39.4292 26.4241 38.9197 26.5611 38.3631 26.5611ZM58.9465 35H52.9866L62.0677 8.69438H69.235L78.3032 35H72.3433L65.7541 14.7056H65.5486L58.9465 35ZM58.574 24.6601H72.6516V29.0016H58.574V24.6601ZM92.9363 26.5611C92.0886 26.5611 91.3607 26.2614 90.7528 25.662C90.1534 25.054 89.8537 24.3262 89.8537 23.4784C89.8537 22.6393 90.1534 21.92 90.7528 21.3206C91.3607 20.7211 92.0886 20.4214 92.9363 20.4214C93.7584 20.4214 94.4777 20.7211 95.0942 21.3206C95.7108 21.92 96.019 22.6393 96.019 23.4784C96.019 24.0436 95.8735 24.5617 95.5823 25.0326C95.2997 25.495 94.9272 25.8675 94.4648 26.1501C94.0024 26.4241 93.4929 26.5611 92.9363 26.5611ZM126.428 17.1975C126.249 16.5724 125.996 16.02 125.671 15.5405C125.345 15.0524 124.947 14.6414 124.476 14.3074C124.014 13.9649 123.483 13.7037 122.883 13.5239C122.293 13.3441 121.637 13.2542 120.918 13.2542C119.574 13.2542 118.392 13.5881 117.373 14.2561C116.363 14.924 115.575 15.8959 115.01 17.1718C114.445 18.4391 114.162 19.989 114.162 21.8215C114.162 23.654 114.44 25.2125 114.997 26.4969C115.553 27.7814 116.341 28.7618 117.36 29.4383C118.379 30.1062 119.582 30.4402 120.97 30.4402C122.228 30.4402 123.303 30.2175 124.194 29.7723C125.093 29.3184 125.778 28.6805 126.249 27.8584C126.728 27.0364 126.968 26.0645 126.968 24.9427L128.098 25.1097H121.316V20.9224H132.324V24.2363C132.324 26.5483 131.836 28.5349 130.86 30.1961C129.884 31.8488 128.539 33.1247 126.827 34.0238C125.114 34.9144 123.153 35.3596 120.944 35.3596C118.478 35.3596 116.311 34.8159 114.445 33.7284C112.578 32.6323 111.122 31.0781 110.077 29.0658C109.041 27.0449 108.523 24.6473 108.523 21.8729C108.523 19.7407 108.831 17.8397 109.448 16.1699C110.073 14.4915 110.947 13.0701 112.068 11.9055C113.19 10.7409 114.496 9.85467 115.986 9.24669C117.476 8.63872 119.09 8.33473 120.828 8.33473C122.318 8.33473 123.705 8.55309 124.99 8.9898C126.274 9.41795 127.413 10.0259 128.407 10.8137C129.408 11.6015 130.226 12.5392 130.86 13.6267C131.494 14.7056 131.9 15.8959 132.08 17.1975H126.428Z" fill="#1F3555"/>
<path d="M1.20104 56.76V55.2315H8.40255V56.76H5.71804V64H3.88555V56.76H1.20104ZM9.58853 64V55.2315H13.048C13.7102 55.2315 14.2754 55.3499 14.7435 55.5868C15.2144 55.8209 15.5727 56.1534 15.8181 56.5844C16.0665 57.0126 16.1906 57.5164 16.1906 58.0958C16.1906 58.6781 16.065 59.179 15.8138 59.5986C15.5627 60.0153 15.1987 60.335 14.7221 60.5577C14.2482 60.7803 13.6745 60.8916 13.0009 60.8916H10.6846V59.4017H12.7012C13.0551 59.4017 13.3491 59.3531 13.5832 59.2561C13.8172 59.159 13.9913 59.0135 14.1055 58.8194C14.2226 58.6253 14.2811 58.3841 14.2811 58.0958C14.2811 57.8046 14.2226 57.5592 14.1055 57.3594C13.9913 57.1596 13.8158 57.0083 13.5789 56.9055C13.3448 56.7999 13.0494 56.7471 12.6926 56.7471H11.4424V64H9.58853ZM14.3239 60.0096L16.5032 64H14.4566L12.3244 60.0096H14.3239ZM22.9169 55.2315H24.7708V60.9259C24.7708 61.5652 24.6181 62.1247 24.3127 62.6042C24.0101 63.0838 23.5862 63.4577 23.041 63.726C22.4959 63.9914 21.8608 64.1242 21.1358 64.1242C20.4079 64.1242 19.7714 63.9914 19.2262 63.726C18.681 63.4577 18.2572 63.0838 17.9546 62.6042C17.652 62.1247 17.5008 61.5652 17.5008 60.9259V55.2315H19.3547V60.7675C19.3547 61.1014 19.4274 61.3983 19.573 61.658C19.7214 61.9178 19.9298 62.1218 20.1981 62.2703C20.4664 62.4187 20.779 62.4929 21.1358 62.4929C21.4954 62.4929 21.808 62.4187 22.0734 62.2703C22.3417 62.1218 22.5487 61.9178 22.6942 61.658C22.8427 61.3983 22.9169 61.1014 22.9169 60.7675V55.2315ZM34.0328 58.3013H32.1575C32.1232 58.0587 32.0533 57.8432 31.9477 57.6548C31.8421 57.4636 31.7065 57.3009 31.5409 57.1667C31.3754 57.0325 31.1841 56.9298 30.9672 56.8584C30.7531 56.7871 30.5205 56.7514 30.2693 56.7514C29.8155 56.7514 29.4201 56.8641 29.0833 57.0896C28.7465 57.3123 28.4853 57.6377 28.2998 58.0658C28.1143 58.4911 28.0215 59.0078 28.0215 59.6157C28.0215 60.2408 28.1143 60.766 28.2998 61.1913C28.4882 61.6166 28.7508 61.9377 29.0876 62.1547C29.4244 62.3716 29.814 62.4801 30.2565 62.4801C30.5048 62.4801 30.7346 62.4472 30.9458 62.3816C31.1599 62.3159 31.3497 62.2203 31.5152 62.0947C31.6808 61.9663 31.8178 61.8107 31.9263 61.628C32.0376 61.4454 32.1146 61.237 32.1575 61.0029L34.0328 61.0115C33.9842 61.414 33.8629 61.8022 33.6688 62.1761C33.4776 62.5471 33.2193 62.8797 32.8939 63.1737C32.5713 63.4648 32.186 63.696 31.7379 63.8673C31.2926 64.0357 30.7888 64.1199 30.2265 64.1199C29.4444 64.1199 28.7451 63.9429 28.1286 63.589C27.5149 63.235 27.0296 62.7227 26.6728 62.0519C26.3189 61.3811 26.1419 60.5691 26.1419 59.6157C26.1419 58.6595 26.3218 57.846 26.6814 57.1753C27.041 56.5045 27.5291 55.9936 28.1457 55.6425C28.7622 55.2885 29.4558 55.1116 30.2265 55.1116C30.7346 55.1116 31.2055 55.1829 31.6394 55.3257C32.0761 55.4684 32.4629 55.6767 32.7997 55.9508C33.1365 56.2219 33.4105 56.5544 33.6217 56.9483C33.8358 57.3422 33.9728 57.7932 34.0328 58.3013ZM35.3622 64V55.2315H37.2161V59.0977H37.3317L40.4871 55.2315H42.7092L39.4553 59.1576L42.7478 64H40.53L38.128 60.395L37.2161 61.5082V64H35.3622ZM45.5286 55.2315V64H43.6747V55.2315H45.5286ZM54.3881 55.2315V64H52.7869L48.972 58.4811H48.9078V64H47.0539V55.2315H48.6809L52.4657 60.746H52.5428V55.2315H54.3881ZM61.7342 58.0658C61.6742 57.8575 61.59 57.6733 61.4815 57.5135C61.3731 57.3508 61.2404 57.2138 61.0834 57.1025C60.9292 56.9883 60.7523 56.9012 60.5525 56.8413C60.3555 56.7814 60.1372 56.7514 59.8974 56.7514C59.4493 56.7514 59.0554 56.8627 58.7157 57.0854C58.3789 57.308 58.1163 57.632 57.9279 58.0573C57.7395 58.4797 57.6453 58.9963 57.6453 59.6072C57.6453 60.218 57.7381 60.7375 57.9236 61.1656C58.1091 61.5938 58.3717 61.9206 58.7114 62.1461C59.0511 62.3687 59.4521 62.4801 59.9145 62.4801C60.3341 62.4801 60.6923 62.4058 60.9892 62.2574C61.2889 62.1061 61.5172 61.8935 61.6742 61.6195C61.8341 61.3455 61.914 61.0215 61.914 60.6476L62.2908 60.7032H60.0301V59.3075H63.6994V60.4121C63.6994 61.1828 63.5367 61.845 63.2113 62.3987C62.8859 62.9496 62.4378 63.3749 61.8669 63.6746C61.296 63.9715 60.6424 64.1199 59.9059 64.1199C59.0839 64.1199 58.3617 63.9386 57.7395 63.5761C57.1173 63.2108 56.632 62.6927 56.2838 62.0219C55.9384 61.3483 55.7657 60.5491 55.7657 59.6243C55.7657 58.9136 55.8685 58.2799 56.074 57.7233C56.2824 57.1638 56.5735 56.69 56.9474 56.3018C57.3213 55.9136 57.7566 55.6182 58.2533 55.4156C58.7499 55.2129 59.288 55.1116 59.8674 55.1116C60.3641 55.1116 60.8265 55.1844 61.2546 55.3299C61.6828 55.4727 62.0624 55.6753 62.3935 55.9379C62.7275 56.2005 63.0001 56.5131 63.2113 56.8756C63.4225 57.2352 63.5581 57.632 63.618 58.0658H61.7342ZM69.3938 64H67.4072L70.4342 55.2315H72.8233L75.846 64H73.8594L71.663 57.2352H71.5945L69.3938 64ZM69.2696 60.5534H73.9622V62.0005H69.2696V60.5534ZM84.226 58.3013H82.3507C82.3165 58.0587 82.2465 57.8432 82.1409 57.6548C82.0353 57.4636 81.8997 57.3009 81.7342 57.1667C81.5686 57.0325 81.3774 56.9298 81.1605 56.8584C80.9464 56.7871 80.7137 56.7514 80.4626 56.7514C80.0087 56.7514 79.6134 56.8641 79.2766 57.0896C78.9398 57.3123 78.6786 57.6377 78.4931 58.0658C78.3075 58.4911 78.2148 59.0078 78.2148 59.6157C78.2148 60.2408 78.3075 60.766 78.4931 61.1913C78.6815 61.6166 78.9441 61.9377 79.2809 62.1547C79.6177 62.3716 80.0073 62.4801 80.4497 62.4801C80.698 62.4801 80.9278 62.4472 81.139 62.3816C81.3531 62.3159 81.5429 62.2203 81.7085 62.0947C81.874 61.9663 82.011 61.8107 82.1195 61.628C82.2308 61.4454 82.3079 61.237 82.3507 61.0029L84.226 61.0115C84.1775 61.414 84.0562 61.8022 83.8621 62.1761C83.6708 62.5471 83.4125 62.8797 83.0871 63.1737C82.7646 63.4648 82.3793 63.696 81.9311 63.8673C81.4858 64.0357 80.9821 64.1199 80.4198 64.1199C79.6377 64.1199 78.9383 63.9429 78.3218 63.589C77.7081 63.235 77.2229 62.7227 76.8661 62.0519C76.5122 61.3811 76.3352 60.5691 76.3352 59.6157C76.3352 58.6595 76.515 57.846 76.8747 57.1753C77.2343 56.5045 77.7224 55.9936 78.3389 55.6425C78.9555 55.2885 79.6491 55.1116 80.4198 55.1116C80.9278 55.1116 81.3988 55.1829 81.8327 55.3257C82.2694 55.4684 82.6561 55.6767 82.9929 55.9508C83.3298 56.2219 83.6038 56.5544 83.815 56.9483C84.0291 57.3422 84.1661 57.7932 84.226 58.3013ZM93.2921 58.3013H91.4168C91.3826 58.0587 91.3126 57.8432 91.207 57.6548C91.1014 57.4636 90.9658 57.3009 90.8003 57.1667C90.6347 57.0325 90.4435 56.9298 90.2266 56.8584C90.0125 56.7871 89.7799 56.7514 89.5287 56.7514C89.0748 56.7514 88.6795 56.8641 88.3427 57.0896C88.0059 57.3123 87.7447 57.6377 87.5592 58.0658C87.3736 58.4911 87.2809 59.0078 87.2809 59.6157C87.2809 60.2408 87.3736 60.766 87.5592 61.1913C87.7476 61.6166 88.0102 61.9377 88.347 62.1547C88.6838 62.3716 89.0734 62.4801 89.5158 62.4801C89.7642 62.4801 89.9939 62.4472 90.2052 62.3816C90.4192 62.3159 90.609 62.2203 90.7746 62.0947C90.9401 61.9663 91.0772 61.8107 91.1856 61.628C91.2969 61.4454 91.374 61.237 91.4168 61.0029L93.2921 61.0115C93.2436 61.414 93.1223 61.8022 92.9282 62.1761C92.737 62.5471 92.4786 62.8797 92.1532 63.1737C91.8307 63.4648 91.4454 63.696 90.9972 63.8673C90.552 64.0357 90.0482 64.1199 89.4859 64.1199C88.7038 64.1199 88.0045 63.9429 87.3879 63.589C86.7742 63.235 86.289 62.7227 85.9322 62.0519C85.5783 61.3811 85.4013 60.5691 85.4013 59.6157C85.4013 58.6595 85.5811 57.846 85.9408 57.1753C86.3004 56.5045 86.7885 55.9936 87.405 55.6425C88.0216 55.2885 88.7152 55.1116 89.4859 55.1116C89.9939 55.1116 90.4649 55.1829 90.8988 55.3257C91.3355 55.4684 91.7222 55.6767 92.059 55.9508C92.3959 56.2219 92.6699 56.5544 92.8811 56.9483C93.0952 57.3422 93.2322 57.7932 93.2921 58.3013ZM102.679 59.6157C102.679 60.5719 102.498 61.3854 102.136 62.0562C101.776 62.727 101.285 63.2393 100.663 63.5933C100.043 63.9443 99.3469 64.1199 98.5734 64.1199C97.7941 64.1199 97.0948 63.9429 96.4754 63.589C95.856 63.235 95.3665 62.7227 95.0069 62.0519C94.6472 61.3811 94.4674 60.5691 94.4674 59.6157C94.4674 58.6595 94.6472 57.846 95.0069 57.1753C95.3665 56.5045 95.856 55.9936 96.4754 55.6425C97.0948 55.2885 97.7941 55.1116 98.5734 55.1116C99.3469 55.1116 100.043 55.2885 100.663 55.6425C101.285 55.9936 101.776 56.5045 102.136 57.1753C102.498 57.846 102.679 58.6595 102.679 59.6157ZM100.8 59.6157C100.8 58.9963 100.707 58.474 100.521 58.0487C100.339 57.6234 100.08 57.3009 99.7465 57.0811C99.4126 56.8613 99.0215 56.7514 98.5734 56.7514C98.1252 56.7514 97.7342 56.8613 97.4002 57.0811C97.0663 57.3009 96.8065 57.6234 96.621 58.0487C96.4383 58.474 96.347 58.9963 96.347 59.6157C96.347 60.2351 96.4383 60.7575 96.621 61.1828C96.8065 61.6081 97.0663 61.9306 97.4002 62.1504C97.7342 62.3702 98.1252 62.4801 98.5734 62.4801C99.0215 62.4801 99.4126 62.3702 99.7465 62.1504C100.08 61.9306 100.339 61.6081 100.521 61.1828C100.707 60.7575 100.8 60.2351 100.8 59.6157ZM109.469 55.2315H111.323V60.9259C111.323 61.5652 111.17 62.1247 110.865 62.6042C110.562 63.0838 110.138 63.4577 109.593 63.726C109.048 63.9914 108.413 64.1242 107.688 64.1242C106.96 64.1242 106.323 63.9914 105.778 63.726C105.233 63.4577 104.809 63.0838 104.506 62.6042C104.204 62.1247 104.053 61.5652 104.053 60.9259V55.2315H105.907V60.7675C105.907 61.1014 105.979 61.3983 106.125 61.658C106.273 61.9178 106.482 62.1218 106.75 62.2703C107.018 62.4187 107.331 62.4929 107.688 62.4929C108.047 62.4929 108.36 62.4187 108.625 62.2703C108.894 62.1218 109.101 61.9178 109.246 61.658C109.395 61.3983 109.469 61.1014 109.469 60.7675V55.2315ZM120.182 55.2315V64H118.581L114.766 58.4811H114.702V64H112.848V55.2315H114.475L118.26 60.746H118.337V55.2315H120.182ZM121.38 56.76V55.2315H128.581V56.76H125.897V64H124.064V56.76H121.38ZM131.621 55.2315V64H129.767V55.2315H131.621ZM140.481 55.2315V64H138.88L135.065 58.4811H135V64H133.147V55.2315H134.774L138.558 60.746H138.636V55.2315H140.481ZM147.827 58.0658C147.767 57.8575 147.683 57.6733 147.574 57.5135C147.466 57.3508 147.333 57.2138 147.176 57.1025C147.022 56.9883 146.845 56.9012 146.645 56.8413C146.448 56.7814 146.23 56.7514 145.99 56.7514C145.542 56.7514 145.148 56.8627 144.808 57.0854C144.472 57.308 144.209 57.632 144.021 58.0573C143.832 58.4797 143.738 58.9963 143.738 59.6072C143.738 60.218 143.831 60.7375 144.016 61.1656C144.202 61.5938 144.464 61.9206 144.804 62.1461C145.144 62.3687 145.545 62.4801 146.007 62.4801C146.427 62.4801 146.785 62.4058 147.082 62.2574C147.382 62.1061 147.61 61.8935 147.767 61.6195C147.927 61.3455 148.007 61.0215 148.007 60.6476L148.383 60.7032H146.123V59.3075H149.792V60.4121C149.792 61.1828 149.629 61.845 149.304 62.3987C148.979 62.9496 148.53 63.3749 147.96 63.6746C147.389 63.9715 146.735 64.1199 145.999 64.1199C145.177 64.1199 144.454 63.9386 143.832 63.5761C143.21 63.2108 142.725 62.6927 142.376 62.0219C142.031 61.3483 141.858 60.5491 141.858 59.6243C141.858 58.9136 141.961 58.2799 142.167 57.7233C142.375 57.1638 142.666 56.69 143.04 56.3018C143.414 55.9136 143.849 55.6182 144.346 55.4156C144.843 55.2129 145.381 55.1116 145.96 55.1116C146.457 55.1116 146.919 55.1844 147.347 55.3299C147.775 55.4727 148.155 55.6753 148.486 55.9379C148.82 56.2005 149.093 56.5131 149.304 56.8756C149.515 57.2352 149.651 57.632 149.711 58.0658H147.827ZM162.033 59.6157C162.033 60.5719 161.852 61.3854 161.489 62.0562C161.13 62.727 160.639 63.2393 160.016 63.5933C159.397 63.9443 158.7 64.1199 157.927 64.1199C157.148 64.1199 156.448 63.9429 155.829 63.589C155.21 63.235 154.72 62.7227 154.36 62.0519C154.001 61.3811 153.821 60.5691 153.821 59.6157C153.821 58.6595 154.001 57.846 154.36 57.1753C154.72 56.5045 155.21 55.9936 155.829 55.6425C156.448 55.2885 157.148 55.1116 157.927 55.1116C158.7 55.1116 159.397 55.2885 160.016 55.6425C160.639 55.9936 161.13 56.5045 161.489 57.1753C161.852 57.846 162.033 58.6595 162.033 59.6157ZM160.153 59.6157C160.153 58.9963 160.061 58.474 159.875 58.0487C159.692 57.6234 159.434 57.3009 159.1 57.0811C158.766 56.8613 158.375 56.7514 157.927 56.7514C157.479 56.7514 157.088 56.8613 156.754 57.0811C156.42 57.3009 156.16 57.6234 155.975 58.0487C155.792 58.474 155.701 58.9963 155.701 59.6157C155.701 60.2351 155.792 60.7575 155.975 61.1828C156.16 61.6081 156.42 61.9306 156.754 62.1504C157.088 62.3702 157.479 62.4801 157.927 62.4801C158.375 62.4801 158.766 62.3702 159.1 62.1504C159.434 61.9306 159.692 61.6081 159.875 61.1828C160.061 60.7575 160.153 60.2351 160.153 59.6157ZM170.74 55.2315V64H169.139L165.324 58.4811H165.26V64H163.406V55.2315H165.033L168.818 60.746H168.895V55.2315H170.74ZM174.729 56.76V55.2315H181.93V56.76H179.246V64H177.413V56.76H174.729ZM183.116 64V55.2315H184.97V58.8493H188.733V55.2315H190.583V64H188.733V60.3778H184.97V64H183.116ZM192.112 64V55.2315H198.02V56.76H193.966V58.8493H197.716V60.3778H193.966V62.4715H198.037V64H192.112ZM208.099 58.0658C208.039 57.8575 207.955 57.6733 207.846 57.5135C207.738 57.3508 207.605 57.2138 207.448 57.1025C207.294 56.9883 207.117 56.9012 206.917 56.8413C206.72 56.7814 206.502 56.7514 206.262 56.7514C205.814 56.7514 205.42 56.8627 205.08 57.0854C204.743 57.308 204.481 57.632 204.293 58.0573C204.104 58.4797 204.01 58.9963 204.01 59.6072C204.01 60.218 204.103 60.7375 204.288 61.1656C204.474 61.5938 204.736 61.9206 205.076 62.1461C205.416 62.3687 205.817 62.4801 206.279 62.4801C206.699 62.4801 207.057 62.4058 207.354 62.2574C207.653 62.1061 207.882 61.8935 208.039 61.6195C208.199 61.3455 208.279 61.0215 208.279 60.6476L208.655 60.7032H206.395V59.3075H210.064V60.4121C210.064 61.1828 209.901 61.845 209.576 62.3987C209.251 62.9496 208.802 63.3749 208.232 63.6746C207.661 63.9715 207.007 64.1199 206.271 64.1199C205.449 64.1199 204.726 63.9386 204.104 63.5761C203.482 63.2108 202.997 62.6927 202.648 62.0219C202.303 61.3483 202.13 60.5491 202.13 59.6243C202.13 58.9136 202.233 58.2799 202.439 57.7233C202.647 57.1638 202.938 56.69 203.312 56.3018C203.686 55.9136 204.121 55.6182 204.618 55.4156C205.115 55.2129 205.653 55.1116 206.232 55.1116C206.729 55.1116 207.191 55.1844 207.619 55.3299C208.047 55.4727 208.427 55.6753 208.758 55.9379C209.092 56.2005 209.365 56.5131 209.576 56.8756C209.787 57.2352 209.923 57.632 209.983 58.0658H208.099ZM219.514 59.6157C219.514 60.5719 219.333 61.3854 218.971 62.0562C218.611 62.727 218.12 63.2393 217.498 63.5933C216.878 63.9443 216.182 64.1199 215.408 64.1199C214.629 64.1199 213.93 63.9429 213.31 63.589C212.691 63.235 212.202 62.7227 211.842 62.0519C211.482 61.3811 211.302 60.5691 211.302 59.6157C211.302 58.6595 211.482 57.846 211.842 57.1753C212.202 56.5045 212.691 55.9936 213.31 55.6425C213.93 55.2885 214.629 55.1116 215.408 55.1116C216.182 55.1116 216.878 55.2885 217.498 55.6425C218.12 55.9936 218.611 56.5045 218.971 57.1753C219.333 57.846 219.514 58.6595 219.514 59.6157ZM217.635 59.6157C217.635 58.9963 217.542 58.474 217.356 58.0487C217.174 57.6234 216.915 57.3009 216.582 57.0811C216.248 56.8613 215.857 56.7514 215.408 56.7514C214.96 56.7514 214.569 56.8613 214.235 57.0811C213.901 57.3009 213.642 57.6234 213.456 58.0487C213.273 58.474 213.182 58.9963 213.182 59.6157C213.182 60.2351 213.273 60.7575 213.456 61.1828C213.642 61.6081 213.901 61.9306 214.235 62.1504C214.569 62.3702 214.96 62.4801 215.408 62.4801C215.857 62.4801 216.248 62.3702 216.582 62.1504C216.915 61.9306 217.174 61.6081 217.356 61.1828C217.542 60.7575 217.635 60.2351 217.635 59.6157Z" fill="#C89B3C"/>
<path d="M73.6863 81H3.9367C2.01062 81 0.449219 82.5614 0.449219 84.4875V105.412C0.449219 107.338 2.01062 108.9 3.9367 108.9H73.6863C75.6124 108.9 77.1738 107.338 77.1738 105.412V84.4875C77.1738 82.5614 75.6124 81 73.6863 81Z" fill="#1F3555"/>
<path d="M102.284 87.9749H79.9638C78.4229 87.9749 77.1738 89.224 77.1738 90.7648V106.11C77.1738 107.651 78.4229 108.9 79.9638 108.9H102.284C103.825 108.9 105.074 107.651 105.074 106.11V90.7648C105.074 89.224 103.825 87.9749 102.284 87.9749Z" fill="#1F3555"/>
<path d="M21.3741 122.152C24.8411 122.152 27.6516 119.342 27.6516 115.875C27.6516 112.408 24.8411 109.597 21.3741 109.597C17.9072 109.597 15.0967 112.408 15.0967 115.875C15.0967 119.342 17.9072 122.152 21.3741 122.152Z" fill="#111111"/>
<path d="M56.2489 122.152C59.7158 122.152 62.5264 119.342 62.5264 115.875C62.5264 112.408 59.7158 109.597 56.2489 109.597C52.782 109.597 49.9714 112.408 49.9714 115.875C49.9714 119.342 52.782 122.152 56.2489 122.152Z" fill="#111111"/>
<path d="M87.6361 122.152C91.1031 122.152 93.9136 119.342 93.9136 115.875C93.9136 112.408 91.1031 109.597 87.6361 109.597C84.1692 109.597 81.3586 112.408 81.3586 115.875C81.3586 119.342 84.1692 122.152 87.6361 122.152Z" fill="#111111"/>
<path d="M157.386 85.1851H108.561C106.635 85.1851 105.073 86.7465 105.073 88.6725V106.11C105.073 108.036 106.635 109.597 108.561 109.597H157.386C159.312 109.597 160.873 108.036 160.873 106.11V88.6725C160.873 86.7465 159.312 85.1851 157.386 85.1851Z" fill="#1F3555"/>
<path d="M182.495 92.1602H163.663C162.122 92.1602 160.873 93.4093 160.873 94.9501V106.808C160.873 108.348 162.122 109.598 163.663 109.598H182.495C184.036 109.598 185.285 108.348 185.285 106.808V94.9501C185.285 93.4093 184.036 92.1602 182.495 92.1602Z" fill="#1F3555"/>
<path d="M119.023 122.152C122.105 122.152 124.603 119.654 124.603 116.572C124.603 113.491 122.105 110.992 119.023 110.992C115.942 110.992 113.443 113.491 113.443 116.572C113.443 119.654 115.942 122.152 119.023 122.152Z" fill="#111111"/>
<path d="M150.411 122.152C153.493 122.152 155.991 119.654 155.991 116.572C155.991 113.491 153.493 110.992 150.411 110.992C147.329 110.992 144.831 113.491 144.831 116.572C144.831 119.654 147.329 122.152 150.411 122.152Z" fill="#111111"/>
<path d="M245.968 96.345H187.378C186.222 96.345 185.286 97.2818 185.286 98.4375V104.715C185.286 105.871 186.222 106.807 187.378 106.807H245.968C247.123 106.807 248.06 105.871 248.06 104.715V98.4375C248.06 97.2818 247.123 96.345 245.968 96.345Z" fill="#1F3555"/>
<path d="M266.195 92.8574H250.85C249.309 92.8574 248.06 94.1065 248.06 95.6474V107.505C248.06 109.046 249.309 110.295 250.85 110.295H266.195C267.736 110.295 268.985 109.046 268.985 107.505V95.6474C268.985 94.1065 267.736 92.8574 266.195 92.8574Z" fill="#1F3555"/>
<path d="M199.235 122.152C201.932 122.152 204.118 119.966 204.118 117.27C204.118 114.573 201.932 112.387 199.235 112.387C196.539 112.387 194.353 114.573 194.353 117.27C194.353 119.966 196.539 122.152 199.235 122.152Z" fill="#111111"/>
<path d="M227.135 122.152C229.832 122.152 232.018 119.966 232.018 117.27C232.018 114.573 229.832 112.387 227.135 112.387C224.439 112.387 222.253 114.573 222.253 117.27C222.253 119.966 224.439 122.152 227.135 122.152Z" fill="#111111"/>
<path d="M0.449219 132.631C70.1988 114.031 151.573 114.031 244.573 132.631" stroke="#C89B3C" stroke-width="3.48748"/>
<path d="M53.7576 149.391V147.863H60.9592V149.391H58.2746V156.631H56.4422V149.391H53.7576ZM61.428 156.631V150.055H63.1962V151.202H63.2648C63.3846 150.794 63.5859 150.486 63.8684 150.277C64.151 150.066 64.4764 149.961 64.8446 149.961C64.936 149.961 65.0344 149.966 65.1401 149.978C65.2457 149.989 65.3384 150.005 65.4184 150.025V151.643C65.3327 151.617 65.2143 151.595 65.063 151.575C64.9117 151.555 64.7733 151.545 64.6477 151.545C64.3794 151.545 64.1396 151.603 63.9284 151.72C63.72 151.834 63.5545 151.994 63.4317 152.2C63.3119 152.405 63.2519 152.642 63.2519 152.91V156.631H61.428ZM68.0483 156.755C67.6287 156.755 67.2548 156.682 66.9265 156.537C66.5983 156.388 66.3385 156.17 66.1473 155.882C65.9589 155.591 65.8647 155.228 65.8647 154.794C65.8647 154.429 65.9318 154.122 66.0659 153.874C66.2001 153.625 66.3828 153.426 66.614 153.274C66.8452 153.123 67.1078 153.009 67.4018 152.932C67.6986 152.855 68.0097 152.801 68.3351 152.769C68.7176 152.729 69.0259 152.692 69.2599 152.658C69.494 152.621 69.6638 152.567 69.7694 152.495C69.8751 152.424 69.9279 152.318 69.9279 152.178V152.153C69.9279 151.881 69.8422 151.672 69.671 151.523C69.5026 151.375 69.2628 151.301 68.9517 151.301C68.6234 151.301 68.3623 151.373 68.1682 151.519C67.9741 151.662 67.8456 151.842 67.7828 152.058L66.0959 151.921C66.1815 151.522 66.3499 151.176 66.6011 150.885C66.8523 150.591 67.1763 150.366 67.573 150.209C67.9726 150.049 68.435 149.969 68.9602 149.969C69.3256 149.969 69.6753 150.012 70.0092 150.098C70.346 150.183 70.6443 150.316 70.904 150.496C71.1666 150.676 71.3736 150.907 71.5249 151.189C71.6761 151.469 71.7518 151.804 71.7518 152.195V156.631H70.0221V155.719H69.9707C69.8651 155.925 69.7238 156.106 69.5468 156.263C69.3698 156.417 69.1572 156.538 68.9089 156.627C68.6605 156.712 68.3737 156.755 68.0483 156.755ZM68.5706 155.497C68.8389 155.497 69.0758 155.444 69.2814 155.338C69.4869 155.23 69.6481 155.084 69.7652 154.901C69.8822 154.719 69.9407 154.512 69.9407 154.281V153.583C69.8836 153.62 69.8051 153.654 69.7052 153.685C69.6082 153.714 69.4983 153.741 69.3755 153.767C69.2528 153.79 69.1301 153.811 69.0073 153.831C68.8846 153.848 68.7733 153.864 68.6734 153.878C68.4593 153.909 68.2723 153.959 68.1125 154.028C67.9527 154.096 67.8285 154.189 67.74 154.306C67.6515 154.42 67.6073 154.563 67.6073 154.734C67.6073 154.983 67.6972 155.173 67.877 155.304C68.0597 155.432 68.2909 155.497 68.5706 155.497ZM76.1382 156.76C75.4646 156.76 74.8851 156.617 74.3999 156.331C73.9175 156.043 73.5464 155.644 73.2867 155.133C73.0298 154.622 72.9014 154.034 72.9014 153.369C72.9014 152.695 73.0312 152.104 73.291 151.596C73.5536 151.085 73.9261 150.687 74.4085 150.402C74.8908 150.113 75.4646 149.969 76.1296 149.969C76.7034 149.969 77.2057 150.073 77.6367 150.282C78.0677 150.49 78.4088 150.783 78.66 151.159C78.9112 151.536 79.0496 151.979 79.0753 152.487H77.3541C77.3056 152.158 77.1772 151.894 76.9688 151.695C76.7633 151.492 76.4936 151.391 76.1596 151.391C75.877 151.391 75.6301 151.468 75.4189 151.622C75.2105 151.773 75.0478 151.994 74.9308 152.285C74.8138 152.577 74.7553 152.929 74.7553 153.343C74.7553 153.762 74.8124 154.119 74.9265 154.413C75.0436 154.707 75.2077 154.931 75.4189 155.085C75.6301 155.24 75.877 155.317 76.1596 155.317C76.368 155.317 76.5549 155.274 76.7205 155.188C76.8889 155.103 77.0273 154.978 77.1358 154.816C77.2471 154.65 77.3199 154.452 77.3541 154.221H79.0753C79.0468 154.723 78.9098 155.165 78.6643 155.548C78.4217 155.928 78.0863 156.224 77.6581 156.438C77.23 156.653 76.7233 156.76 76.1382 156.76ZM81.8958 154.739L81.9 152.551H82.1655L84.272 150.055H86.3657L83.5356 153.36H83.1031L81.8958 154.739ZM80.2431 156.631V147.863H82.067V156.631H80.2431ZM84.3533 156.631L82.4181 153.767L83.6341 152.478L86.4898 156.631H84.3533ZM90.0852 156.631V147.863H95.9937V149.391H91.9391V151.48H95.6897V153.009H91.9391V155.103H96.0108V156.631H90.0852ZM103.565 150.055L101.265 156.631H99.2102L96.911 150.055H98.8377L100.204 154.76H100.272L101.634 150.055H103.565ZM107.283 156.76C106.607 156.76 106.024 156.623 105.536 156.349C105.051 156.072 104.677 155.681 104.414 155.175C104.152 154.667 104.02 154.066 104.02 153.373C104.02 152.696 104.152 152.103 104.414 151.592C104.677 151.081 105.047 150.683 105.523 150.397C106.003 150.112 106.565 149.969 107.21 149.969C107.644 149.969 108.048 150.039 108.422 150.179C108.799 150.316 109.127 150.523 109.407 150.8C109.689 151.077 109.909 151.425 110.066 151.844C110.223 152.261 110.301 152.749 110.301 153.309V153.81H104.748V152.679H108.585C108.585 152.417 108.527 152.184 108.413 151.981C108.299 151.779 108.141 151.62 107.938 151.506C107.738 151.389 107.506 151.331 107.24 151.331C106.963 151.331 106.718 151.395 106.504 151.523C106.293 151.649 106.127 151.819 106.007 152.033C105.887 152.244 105.826 152.479 105.823 152.739V153.814C105.823 154.139 105.883 154.42 106.003 154.657C106.126 154.894 106.298 155.077 106.521 155.205C106.744 155.334 107.008 155.398 107.313 155.398C107.516 155.398 107.701 155.369 107.87 155.312C108.038 155.255 108.182 155.17 108.302 155.056C108.422 154.941 108.513 154.801 108.576 154.636L110.263 154.747C110.177 155.153 110.002 155.506 109.736 155.809C109.474 156.109 109.134 156.343 108.717 156.511C108.303 156.677 107.825 156.76 107.283 156.76ZM111.492 156.631V150.055H113.26V151.202H113.328C113.448 150.794 113.65 150.486 113.932 150.277C114.215 150.066 114.54 149.961 114.908 149.961C115 149.961 115.098 149.966 115.204 149.978C115.309 149.989 115.402 150.005 115.482 150.025V151.643C115.396 151.617 115.278 151.595 115.127 151.575C114.975 151.555 114.837 151.545 114.711 151.545C114.443 151.545 114.203 151.603 113.992 151.72C113.784 151.834 113.618 151.994 113.495 152.2C113.376 152.405 113.316 152.642 113.316 152.91V156.631H111.492ZM117.751 159.097C117.52 159.097 117.303 159.079 117.101 159.042C116.901 159.007 116.735 158.963 116.604 158.909L117.015 157.547C117.229 157.613 117.422 157.649 117.593 157.654C117.767 157.66 117.917 157.62 118.042 157.535C118.171 157.449 118.275 157.303 118.355 157.098L118.462 156.819L116.103 150.055H118.021L119.383 154.884H119.451L120.825 150.055H122.756L120.2 157.342C120.078 157.696 119.911 158.004 119.699 158.267C119.491 158.532 119.227 158.736 118.907 158.879C118.588 159.024 118.202 159.097 117.751 159.097ZM126.514 147.863H128.801L131.216 153.754H131.318L133.733 147.863H136.019V156.631H134.221V150.924H134.148L131.879 156.588H130.655L128.386 150.902H128.313V156.631H126.514V147.863ZM137.513 156.631V150.055H139.337V156.631H137.513ZM138.429 149.207C138.158 149.207 137.925 149.117 137.731 148.937C137.54 148.755 137.444 148.536 137.444 148.282C137.444 148.031 137.54 147.815 137.731 147.636C137.925 147.453 138.158 147.362 138.429 147.362C138.7 147.362 138.931 147.453 139.122 147.636C139.317 147.815 139.414 148.031 139.414 148.282C139.414 148.536 139.317 148.755 139.122 148.937C138.931 149.117 138.7 149.207 138.429 149.207ZM142.622 147.863V156.631H140.798V147.863H142.622ZM147.08 156.76C146.403 156.76 145.821 156.623 145.333 156.349C144.848 156.072 144.474 155.681 144.211 155.175C143.948 154.667 143.817 154.066 143.817 153.373C143.817 152.696 143.948 152.103 144.211 151.592C144.474 151.081 144.843 150.683 145.32 150.397C145.799 150.112 146.362 149.969 147.007 149.969C147.441 149.969 147.845 150.039 148.219 150.179C148.595 150.316 148.924 150.523 149.203 150.8C149.486 151.077 149.706 151.425 149.863 151.844C150.02 152.261 150.098 152.749 150.098 153.309V153.81H144.545V152.679H148.381C148.381 152.417 148.324 152.184 148.21 151.981C148.096 151.779 147.937 151.62 147.735 151.506C147.535 151.389 147.302 151.331 147.037 151.331C146.76 151.331 146.515 151.395 146.3 151.523C146.089 151.649 145.924 151.819 145.804 152.033C145.684 152.244 145.623 152.479 145.62 152.739V153.814C145.62 154.139 145.68 154.42 145.799 154.657C145.922 154.894 146.095 155.077 146.318 155.205C146.54 155.334 146.804 155.398 147.11 155.398C147.312 155.398 147.498 155.369 147.666 155.312C147.835 155.255 147.979 155.17 148.099 155.056C148.219 154.941 148.31 154.801 148.373 154.636L150.06 154.747C149.974 155.153 149.798 155.506 149.533 155.809C149.27 156.109 148.931 156.343 148.514 156.511C148.1 156.677 147.622 156.76 147.08 156.76ZM152.355 156.742C152.072 156.742 151.829 156.643 151.627 156.443C151.427 156.24 151.327 155.997 151.327 155.715C151.327 155.435 151.427 155.195 151.627 154.996C151.829 154.796 152.072 154.696 152.355 154.696C152.629 154.696 152.868 154.796 153.074 154.996C153.279 155.195 153.382 155.435 153.382 155.715C153.382 155.903 153.334 156.076 153.236 156.233C153.142 156.387 153.018 156.511 152.864 156.605C152.71 156.697 152.54 156.742 152.355 156.742ZM165.029 150.932H163.154C163.119 150.69 163.049 150.474 162.944 150.286C162.838 150.095 162.703 149.932 162.537 149.798C162.371 149.664 162.18 149.561 161.963 149.49C161.749 149.418 161.517 149.383 161.265 149.383C160.812 149.383 160.416 149.495 160.079 149.721C159.743 149.943 159.481 150.269 159.296 150.697C159.11 151.122 159.018 151.639 159.018 152.247C159.018 152.872 159.11 153.397 159.296 153.822C159.484 154.248 159.747 154.569 160.084 154.786C160.421 155.003 160.81 155.111 161.253 155.111C161.501 155.111 161.731 155.078 161.942 155.013C162.156 154.947 162.346 154.851 162.511 154.726C162.677 154.597 162.814 154.442 162.922 154.259C163.034 154.076 163.111 153.868 163.154 153.634L165.029 153.643C164.98 154.045 164.859 154.433 164.665 154.807C164.474 155.178 164.215 155.511 163.89 155.805C163.567 156.096 163.182 156.327 162.734 156.498C162.289 156.667 161.785 156.751 161.223 156.751C160.44 156.751 159.741 156.574 159.125 156.22C158.511 155.866 158.026 155.354 157.669 154.683C157.315 154.012 157.138 153.2 157.138 152.247C157.138 151.291 157.318 150.477 157.677 149.806C158.037 149.136 158.525 148.625 159.142 148.274C159.758 147.92 160.452 147.743 161.223 147.743C161.731 147.743 162.202 147.814 162.635 147.957C163.072 148.099 163.459 148.308 163.796 148.582C164.133 148.853 164.407 149.186 164.618 149.579C164.832 149.973 164.969 150.424 165.029 150.932ZM169.295 156.76C168.63 156.76 168.055 156.618 167.57 156.336C167.088 156.05 166.715 155.653 166.452 155.145C166.19 154.634 166.059 154.042 166.059 153.369C166.059 152.689 166.19 152.096 166.452 151.587C166.715 151.077 167.088 150.68 167.57 150.397C168.055 150.112 168.63 149.969 169.295 149.969C169.96 149.969 170.534 150.112 171.017 150.397C171.502 150.68 171.876 151.077 172.138 151.587C172.401 152.096 172.532 152.689 172.532 153.369C172.532 154.042 172.401 154.634 172.138 155.145C171.876 155.653 171.502 156.05 171.017 156.336C170.534 156.618 169.96 156.76 169.295 156.76ZM169.304 155.347C169.606 155.347 169.859 155.261 170.062 155.09C170.264 154.916 170.417 154.679 170.52 154.379C170.625 154.079 170.678 153.738 170.678 153.356C170.678 152.973 170.625 152.632 170.52 152.332C170.417 152.033 170.264 151.796 170.062 151.622C169.859 151.448 169.606 151.361 169.304 151.361C168.999 151.361 168.742 151.448 168.533 151.622C168.328 151.796 168.172 152.033 168.067 152.332C167.964 152.632 167.912 152.973 167.912 153.356C167.912 153.738 167.964 154.079 168.067 154.379C168.172 154.679 168.328 154.916 168.533 155.09C168.742 155.261 168.999 155.347 169.304 155.347ZM177.935 153.831V150.055H179.759V156.631H178.008V155.437H177.94C177.791 155.822 177.544 156.132 177.199 156.366C176.857 156.6 176.438 156.717 175.945 156.717C175.505 156.717 175.118 156.617 174.784 156.417C174.45 156.217 174.189 155.933 174.001 155.565C173.815 155.197 173.721 154.756 173.718 154.242V150.055H175.542V153.917C175.545 154.305 175.649 154.612 175.855 154.837C176.06 155.063 176.336 155.175 176.681 155.175C176.901 155.175 177.106 155.125 177.298 155.026C177.489 154.923 177.643 154.771 177.76 154.572C177.88 154.372 177.938 154.125 177.935 153.831ZM183.042 152.829V156.631H181.218V150.055H182.957V151.215H183.034C183.179 150.833 183.423 150.53 183.766 150.307C184.108 150.082 184.524 149.969 185.012 149.969C185.468 149.969 185.867 150.069 186.206 150.269C186.546 150.469 186.81 150.754 186.998 151.125C187.187 151.493 187.281 151.933 187.281 152.444V156.631H185.457V152.769C185.46 152.367 185.357 152.053 185.149 151.827C184.94 151.599 184.654 151.485 184.288 151.485C184.043 151.485 183.826 151.538 183.637 151.643C183.452 151.749 183.306 151.903 183.201 152.106C183.098 152.305 183.045 152.547 183.042 152.829ZM192.216 150.055V151.425H188.256V150.055H192.216ZM189.155 148.479H190.979V154.61C190.979 154.779 191.005 154.91 191.056 155.004C191.108 155.095 191.179 155.16 191.27 155.197C191.364 155.234 191.473 155.252 191.596 155.252C191.681 155.252 191.767 155.245 191.853 155.231C191.938 155.214 192.004 155.201 192.049 155.193L192.336 156.55C192.245 156.578 192.117 156.611 191.951 156.648C191.785 156.688 191.584 156.712 191.347 156.721C190.908 156.738 190.522 156.68 190.191 156.545C189.863 156.411 189.608 156.203 189.425 155.92C189.242 155.638 189.152 155.281 189.155 154.85V148.479ZM196.229 156.631V147.863H202.138V149.391H198.083V151.48H201.834V153.009H198.083V155.103H202.155V156.631H196.229ZM209.709 150.055L207.409 156.631H205.354L203.055 150.055H204.982L206.348 154.76H206.416L207.778 150.055H209.709ZM213.427 156.76C212.751 156.76 212.168 156.623 211.68 156.349C211.195 156.072 210.821 155.681 210.558 155.175C210.296 154.667 210.165 154.066 210.165 153.373C210.165 152.696 210.296 152.103 210.558 151.592C210.821 151.081 211.191 150.683 211.667 150.397C212.147 150.112 212.709 149.969 213.354 149.969C213.788 149.969 214.192 150.039 214.566 150.179C214.943 150.316 215.271 150.523 215.551 150.8C215.833 151.077 216.053 151.425 216.21 151.844C216.367 152.261 216.446 152.749 216.446 153.309V153.81H210.892V152.679H214.729C214.729 152.417 214.672 152.184 214.557 151.981C214.443 151.779 214.285 151.62 214.082 151.506C213.882 151.389 213.65 151.331 213.384 151.331C213.107 151.331 212.862 151.395 212.648 151.523C212.437 151.649 212.271 151.819 212.151 152.033C212.031 152.244 211.97 152.479 211.967 152.739V153.814C211.967 154.139 212.027 154.42 212.147 154.657C212.27 154.894 212.442 155.077 212.665 155.205C212.888 155.334 213.152 155.398 213.457 155.398C213.66 155.398 213.845 155.369 214.014 155.312C214.182 155.255 214.326 155.17 214.446 155.056C214.566 154.941 214.657 154.801 214.72 154.636L216.407 154.747C216.321 155.153 216.146 155.506 215.88 155.809C215.618 156.109 215.278 156.343 214.861 156.511C214.448 156.677 213.969 156.76 213.427 156.76ZM217.636 156.631V150.055H219.404V151.202H219.473C219.592 150.794 219.794 150.486 220.076 150.277C220.359 150.066 220.684 149.961 221.052 149.961C221.144 149.961 221.242 149.966 221.348 149.978C221.453 149.989 221.546 150.005 221.626 150.025V151.643C221.541 151.617 221.422 151.595 221.271 151.575C221.12 151.555 220.981 151.545 220.856 151.545C220.587 151.545 220.347 151.603 220.136 151.72C219.928 151.834 219.762 151.994 219.64 152.2C219.52 152.405 219.46 152.642 219.46 152.91V156.631H217.636ZM223.895 159.097C223.664 159.097 223.447 159.079 223.245 159.042C223.045 159.007 222.879 158.963 222.748 158.909L223.159 157.547C223.373 157.613 223.566 157.649 223.737 157.654C223.911 157.66 224.061 157.62 224.187 157.535C224.315 157.449 224.419 157.303 224.499 157.098L224.606 156.819L222.247 150.055H224.165L225.527 154.884H225.595L226.97 150.055H228.9L226.344 157.342C226.222 157.696 226.055 158.004 225.843 158.267C225.635 158.532 225.371 158.736 225.051 158.879C224.732 159.024 224.346 159.097 223.895 159.097ZM235.767 156.631H232.659V147.863H235.793C236.675 147.863 237.434 148.038 238.07 148.389C238.707 148.737 239.196 149.238 239.539 149.892C239.884 150.546 240.057 151.328 240.057 152.238C240.057 153.152 239.884 153.937 239.539 154.593C239.196 155.25 238.704 155.753 238.062 156.104C237.422 156.456 236.658 156.631 235.767 156.631ZM234.512 155.043H235.69C236.238 155.043 236.699 154.946 237.073 154.752C237.45 154.555 237.732 154.251 237.921 153.84C238.112 153.426 238.207 152.892 238.207 152.238C238.207 151.59 238.112 151.061 237.921 150.65C237.732 150.239 237.451 149.936 237.077 149.742C236.703 149.548 236.242 149.451 235.694 149.451H234.512V155.043ZM244.367 156.76C243.702 156.76 243.127 156.618 242.642 156.336C242.16 156.05 241.787 155.653 241.525 155.145C241.262 154.634 241.131 154.042 241.131 153.369C241.131 152.689 241.262 152.096 241.525 151.587C241.787 151.077 242.16 150.68 242.642 150.397C243.127 150.112 243.702 149.969 244.367 149.969C245.033 149.969 245.606 150.112 246.089 150.397C246.574 150.68 246.948 151.077 247.21 151.587C247.473 152.096 247.604 152.689 247.604 153.369C247.604 154.042 247.473 154.634 247.21 155.145C246.948 155.653 246.574 156.05 246.089 156.336C245.606 156.618 245.033 156.76 244.367 156.76ZM244.376 155.347C244.679 155.347 244.931 155.261 245.134 155.09C245.336 154.916 245.489 154.679 245.592 154.379C245.698 154.079 245.75 153.738 245.75 153.356C245.75 152.973 245.698 152.632 245.592 152.332C245.489 152.033 245.336 151.796 245.134 151.622C244.931 151.448 244.679 151.361 244.376 151.361C244.071 151.361 243.814 151.448 243.605 151.622C243.4 151.796 243.244 152.033 243.139 152.332C243.036 152.632 242.985 152.973 242.985 153.356C242.985 153.738 243.036 154.079 243.139 154.379C243.244 154.679 243.4 154.916 243.605 155.09C243.814 155.261 244.071 155.347 244.376 155.347ZM250.614 147.863V156.631H248.79V147.863H250.614ZM253.899 147.863V156.631H252.075V147.863H253.899ZM257.236 156.755C256.816 156.755 256.442 156.682 256.114 156.537C255.786 156.388 255.526 156.17 255.335 155.882C255.146 155.591 255.052 155.228 255.052 154.794C255.052 154.429 255.119 154.122 255.253 153.874C255.387 153.625 255.57 153.426 255.801 153.274C256.032 153.123 256.295 153.009 256.589 152.932C256.886 152.855 257.197 152.801 257.522 152.769C257.905 152.729 258.213 152.692 258.447 152.658C258.681 152.621 258.851 152.567 258.957 152.495C259.062 152.424 259.115 152.318 259.115 152.178V152.153C259.115 151.881 259.029 151.672 258.858 151.523C258.69 151.375 258.45 151.301 258.139 151.301C257.811 151.301 257.55 151.373 257.355 151.519C257.161 151.662 257.033 151.842 256.97 152.058L255.283 151.921C255.369 151.522 255.537 151.176 255.788 150.885C256.04 150.591 256.364 150.366 256.76 150.209C257.16 150.049 257.622 149.969 258.147 149.969C258.513 149.969 258.863 150.012 259.196 150.098C259.533 150.183 259.832 150.316 260.091 150.496C260.354 150.676 260.561 150.907 260.712 151.189C260.863 151.469 260.939 151.804 260.939 152.195V156.631H259.209V155.719H259.158C259.052 155.925 258.911 156.106 258.734 156.263C258.557 156.417 258.344 156.538 258.096 156.627C257.848 156.712 257.561 156.755 257.236 156.755ZM257.758 155.497C258.026 155.497 258.263 155.444 258.469 155.338C258.674 155.23 258.835 155.084 258.952 154.901C259.069 154.719 259.128 154.512 259.128 154.281V153.583C259.071 153.62 258.992 153.654 258.892 153.685C258.795 153.714 258.686 153.741 258.563 153.767C258.44 153.79 258.317 153.811 258.195 153.831C258.072 153.848 257.961 153.864 257.861 153.878C257.647 153.909 257.46 153.959 257.3 154.028C257.14 154.096 257.016 154.189 256.927 154.306C256.839 154.42 256.795 154.563 256.795 154.734C256.795 154.983 256.884 155.173 257.064 155.304C257.247 155.432 257.478 155.497 257.758 155.497ZM262.354 156.631V150.055H264.122V151.202H264.191C264.311 150.794 264.512 150.486 264.795 150.277C265.077 150.066 265.403 149.961 265.771 149.961C265.862 149.961 265.961 149.966 266.066 149.978C266.172 149.989 266.265 150.005 266.344 150.025V151.643C266.259 151.617 266.14 151.595 265.989 151.575C265.838 151.555 265.699 151.545 265.574 151.545C265.305 151.545 265.066 151.603 264.854 151.72C264.646 151.834 264.481 151.994 264.358 152.2C264.238 152.405 264.178 152.642 264.178 152.91V156.631H262.354ZM267.6 156.742C267.317 156.742 267.075 156.643 266.872 156.443C266.672 156.24 266.572 155.997 266.572 155.715C266.572 155.435 266.672 155.195 266.872 154.996C267.075 154.796 267.317 154.696 267.6 154.696C267.874 154.696 268.114 154.796 268.319 154.996C268.525 155.195 268.628 155.435 268.628 155.715C268.628 155.903 268.579 156.076 268.482 156.233C268.388 156.387 268.264 156.511 268.11 156.605C267.955 156.697 267.786 156.742 267.6 156.742Z" fill="#1F3555"/>
</svg>
