<svg width="134" height="56" viewBox="0 0 134 56" fill="none" xmlns="http://www.w3.org/2000/svg">
<g filter="url(#filter0_d_174_3123)">
<rect x="2" y="1" width="129.29" height="52" rx="8" fill="#E2E8F0" shape-rendering="crispEdges"/>
<path d="M20 30.3333C20 30.9533 20 31.2633 20.0681 31.5176C20.2531 32.2077 20.7922 32.7469 21.4824 32.9318C21.7367 32.9999 22.0467 32.9999 22.6667 32.9999H29.3333C29.9533 32.9999 30.2633 32.9999 30.5176 32.9318C31.2078 32.7469 31.7469 32.2077 31.9318 31.5176C32 31.2633 32 30.9533 32 30.3333" stroke="#0F172A" stroke-width="1.5" stroke-linecap="round" stroke-linejoin="round"/>
<path d="M29 24C29 24 26.7905 21 26 21C25.2094 21 23 24 23 24M26 21.6667V29.6667" stroke="#0F172A" stroke-width="1.5" stroke-linecap="round" stroke-linejoin="round"/>
<path d="M57.4736 23.2563C56.5898 23.2563 55.8281 23.0928 55.1885 22.7656C54.5488 22.4385 54.0557 21.9844 53.709 21.4033C53.3623 20.8174 53.189 20.1362 53.189 19.3599V12.4312H54.8369V19.2354C54.8369 19.7432 54.9395 20.1899 55.1445 20.5757C55.3545 20.9614 55.6548 21.2617 56.0454 21.4766C56.4409 21.6914 56.917 21.7988 57.4736 21.7988C58.0352 21.7988 58.5112 21.6914 58.9019 21.4766C59.2925 21.2617 59.5903 20.9614 59.7954 20.5757C60.0005 20.1899 60.103 19.7432 60.103 19.2354V12.4312H61.751V19.3599C61.751 20.1362 61.5776 20.8174 61.231 21.4033C60.8892 21.9844 60.3984 22.4385 59.7588 22.7656C59.124 23.0928 58.3623 23.2563 57.4736 23.2563ZM64.2119 25.6514V15.0459H65.8013V16.2983H65.9258C66.0771 16.0054 66.2725 15.7563 66.5117 15.5513C66.7559 15.3462 67.0342 15.1875 67.3467 15.0752C67.6592 14.9629 68.001 14.9067 68.3721 14.9067C69.041 14.9067 69.6221 15.0776 70.1152 15.4194C70.6084 15.7563 70.9893 16.2324 71.2578 16.8477C71.5312 17.458 71.668 18.1807 71.668 19.0156V19.0303C71.668 19.8701 71.5337 20.5977 71.2651 21.2129C70.9966 21.8232 70.6157 22.2969 70.1226 22.6338C69.6294 22.9658 69.0459 23.1318 68.3721 23.1318C68.0059 23.1318 67.6641 23.0757 67.3467 22.9634C67.0293 22.8462 66.7485 22.6851 66.5044 22.48C66.2603 22.2749 66.0674 22.0283 65.9258 21.7402H65.8013V25.6514H64.2119ZM67.918 21.7695C68.3623 21.7695 68.7432 21.6597 69.0605 21.4399C69.3779 21.2202 69.6196 20.9053 69.7856 20.4951C69.9565 20.085 70.042 19.5967 70.042 19.0303V19.0156C70.042 18.4443 69.9565 17.9536 69.7856 17.5435C69.6196 17.1333 69.3779 16.8184 69.0605 16.5986C68.7432 16.3789 68.3623 16.269 67.918 16.269C67.4785 16.269 67.0977 16.3813 66.7754 16.606C66.4531 16.8257 66.2065 17.1406 66.0356 17.5508C65.8647 17.9561 65.7793 18.4443 65.7793 19.0156V19.0303C65.7793 19.5918 65.8647 20.0776 66.0356 20.4878C66.2065 20.8979 66.4531 21.2153 66.7754 21.4399C67.0977 21.6597 67.4785 21.7695 67.918 21.7695ZM73.6455 23V11.9258H75.2349V23H73.6455ZM80.9697 23.1538C80.1934 23.1538 79.522 22.9878 78.9556 22.6558C78.394 22.3237 77.9619 21.8501 77.6592 21.2349C77.3564 20.6147 77.2051 19.8799 77.2051 19.0303V19.0156C77.2051 18.1611 77.3564 17.4263 77.6592 16.811C77.9668 16.1958 78.4014 15.7222 78.9629 15.3901C79.5293 15.0581 80.1982 14.8921 80.9697 14.8921C81.7461 14.8921 82.415 15.0581 82.9766 15.3901C83.5381 15.7173 83.9702 16.1909 84.2729 16.811C84.5806 17.4263 84.7344 18.1611 84.7344 19.0156V19.0303C84.7344 19.8799 84.5806 20.6147 84.2729 21.2349C83.9702 21.8501 83.5381 22.3237 82.9766 22.6558C82.4199 22.9878 81.751 23.1538 80.9697 23.1538ZM80.9697 21.8208C81.4238 21.8208 81.8096 21.7109 82.127 21.4912C82.4443 21.2666 82.686 20.9468 82.8521 20.5317C83.0181 20.1167 83.1011 19.6162 83.1011 19.0303V19.0156C83.1011 18.4248 83.0181 17.9219 82.8521 17.5068C82.686 17.0918 82.4443 16.7744 82.127 16.5547C81.8096 16.3301 81.4238 16.2178 80.9697 16.2178C80.5156 16.2178 80.1299 16.3301 79.8125 16.5547C79.4951 16.7744 79.251 17.0918 79.0801 17.5068C78.9141 17.9219 78.8311 18.4248 78.8311 19.0156V19.0303C78.8311 19.6162 78.9141 20.1167 79.0801 20.5317C79.251 20.9468 79.4951 21.2666 79.8125 21.4912C80.1299 21.7109 80.5156 21.8208 80.9697 21.8208ZM88.8066 23.1318C88.3037 23.1318 87.8521 23.0366 87.4517 22.8462C87.0562 22.6509 86.7437 22.375 86.5142 22.0186C86.2847 21.6621 86.1699 21.2446 86.1699 20.7661V20.7515C86.1699 20.2729 86.2847 19.8652 86.5142 19.5283C86.7485 19.1914 87.0854 18.9277 87.5249 18.7373C87.9692 18.542 88.5063 18.4248 89.1362 18.3857L92.0732 18.21V19.3306L89.356 19.5063C88.8091 19.5405 88.4062 19.6577 88.1475 19.8579C87.8887 20.0532 87.7593 20.3291 87.7593 20.6855V20.7002C87.7593 21.0615 87.8984 21.3472 88.1768 21.5571C88.4551 21.7622 88.8066 21.8647 89.2314 21.8647C89.627 21.8647 89.9785 21.7866 90.2861 21.6304C90.5986 21.4692 90.8428 21.2544 91.0186 20.9858C91.1943 20.7124 91.2822 20.4048 91.2822 20.063V17.5581C91.2822 17.1187 91.1455 16.7842 90.8721 16.5547C90.6035 16.3203 90.2031 16.2031 89.6709 16.2031C89.2266 16.2031 88.8628 16.2812 88.5796 16.4375C88.3013 16.5938 88.1157 16.8135 88.0229 17.0967L88.0083 17.1187H86.4775L86.4849 17.0674C86.5483 16.6279 86.7217 16.2471 87.0049 15.9248C87.293 15.5977 87.6689 15.3438 88.1328 15.1631C88.6016 14.9824 89.1362 14.8921 89.7368 14.8921C90.4058 14.8921 90.9722 14.9995 91.436 15.2144C91.9048 15.4243 92.2588 15.7295 92.498 16.1299C92.7422 16.5254 92.8643 17.0015 92.8643 17.5581V23H91.2822V21.8721H91.165C91.0088 22.1406 90.8135 22.3701 90.5791 22.5605C90.3447 22.7461 90.0786 22.8877 89.7808 22.9854C89.4829 23.083 89.1582 23.1318 88.8066 23.1318ZM98.0059 23.1318C97.3418 23.1318 96.7607 22.9658 96.2627 22.6338C95.7695 22.2969 95.3862 21.8208 95.1128 21.2056C94.8442 20.5903 94.71 19.8652 94.71 19.0303V19.0156C94.71 18.1758 94.8442 17.4482 95.1128 16.833C95.3813 16.2178 95.7622 15.7441 96.2554 15.4121C96.7485 15.0752 97.332 14.9067 98.0059 14.9067C98.3721 14.9067 98.7139 14.9653 99.0312 15.0825C99.3486 15.1948 99.6294 15.356 99.8735 15.5659C100.118 15.771 100.311 16.0176 100.452 16.3057H100.569V11.9258H102.166V23H100.569V21.7476H100.452C100.296 22.0356 100.098 22.2847 99.8589 22.4946C99.6196 22.6997 99.3438 22.8584 99.0312 22.9707C98.7188 23.0781 98.377 23.1318 98.0059 23.1318ZM98.46 21.7695C98.8994 21.7695 99.2803 21.6597 99.6025 21.4399C99.9248 21.2202 100.171 20.9053 100.342 20.4951C100.513 20.0801 100.599 19.5918 100.599 19.0303V19.0156C100.599 18.4492 100.511 17.9609 100.335 17.5508C100.164 17.1406 99.9175 16.8257 99.5952 16.606C99.2778 16.3813 98.8994 16.269 98.46 16.269C98.0205 16.269 97.6396 16.3813 97.3174 16.606C97 16.8257 96.7559 17.1406 96.585 17.5508C96.4189 17.9561 96.3359 18.4443 96.3359 19.0156V19.0303C96.3359 19.5967 96.4189 20.085 96.585 20.4951C96.7559 20.9053 97 21.2202 97.3174 21.4399C97.6396 21.6597 98.0205 21.7695 98.46 21.7695ZM64.5781 41V39.6597H67.7715C68.5137 39.6597 69.0752 39.5107 69.4561 39.2129C69.8369 38.915 70.0273 38.4829 70.0273 37.9165V37.9019C70.0273 37.521 69.9395 37.2036 69.7637 36.9497C69.5879 36.6958 69.3242 36.5054 68.9727 36.3784C68.626 36.2466 68.1938 36.1807 67.6763 36.1807H64.5781V34.9282H67.3467C68.0742 34.9282 68.6235 34.7964 68.9946 34.5327C69.3657 34.2642 69.5513 33.8735 69.5513 33.3608V33.3462C69.5513 32.8481 69.3828 32.4624 69.0459 32.189C68.709 31.9106 68.2354 31.7715 67.625 31.7715H64.5781V30.4312H68.0132C68.6724 30.4312 69.2388 30.5386 69.7124 30.7534C70.1909 30.9683 70.5571 31.2734 70.811 31.6689C71.0649 32.0596 71.1919 32.5234 71.1919 33.0605V33.0752C71.1919 33.4463 71.1089 33.793 70.9429 34.1152C70.7769 34.4326 70.5547 34.7012 70.2764 34.9209C69.998 35.1406 69.6831 35.2798 69.3315 35.3384V35.4629C69.8101 35.5117 70.2275 35.6509 70.584 35.8804C70.9404 36.1099 71.2188 36.4077 71.4189 36.7739C71.6191 37.1353 71.7192 37.5454 71.7192 38.0044V38.019C71.7192 38.6343 71.5728 39.1665 71.2798 39.6157C70.9917 40.0601 70.5791 40.4019 70.042 40.6411C69.5049 40.8804 68.8604 41 68.1084 41H64.5781ZM63.7578 41V30.4312H65.3984V41H63.7578ZM78.3257 41.2563C77.3003 41.2563 76.4189 41.0317 75.6816 40.5825C74.9443 40.1284 74.3779 39.4863 73.9824 38.6562C73.5869 37.8262 73.3892 36.8472 73.3892 35.7192V35.7046C73.3892 34.5669 73.5894 33.5854 73.9897 32.7603C74.3901 31.9351 74.959 31.2979 75.6963 30.8486C76.4385 30.3994 77.3149 30.1748 78.3257 30.1748C79.3413 30.1748 80.2178 30.3994 80.9551 30.8486C81.6924 31.2979 82.2588 31.9375 82.6543 32.7676C83.0547 33.5928 83.2549 34.5718 83.2549 35.7046V35.7192C83.2549 36.8472 83.0571 37.8262 82.6616 38.6562C82.2661 39.4814 81.6973 40.1211 80.9551 40.5752C80.2178 41.0293 79.3413 41.2563 78.3257 41.2563ZM78.3257 39.7988C78.9897 39.7988 79.5659 39.6304 80.0542 39.2935C80.5425 38.9565 80.9185 38.4829 81.1821 37.8726C81.4458 37.2573 81.5776 36.5396 81.5776 35.7192V35.7046C81.5776 34.8745 81.4458 34.1543 81.1821 33.5439C80.9185 32.9336 80.5425 32.4624 80.0542 32.1304C79.5659 31.7983 78.9897 31.6323 78.3257 31.6323C77.6616 31.6323 77.0854 31.7983 76.5972 32.1304C76.1138 32.4624 75.7378 32.9336 75.4692 33.5439C75.2007 34.1543 75.0664 34.8745 75.0664 35.7046V35.7192C75.0664 36.5396 75.1958 37.2573 75.4546 37.8726C75.7183 38.4829 76.0918 38.9565 76.5752 39.2935C77.0635 39.6304 77.647 39.7988 78.3257 39.7988ZM85.4814 41V30.4312H87.1221V39.5791H92.0806V41H85.4814Z" fill="#0F172A"/>
</g>
<defs>
<filter id="filter0_d_174_3123" x="0" y="0" width="133.29" height="56" filterUnits="userSpaceOnUse" color-interpolation-filters="sRGB">
<feFlood flood-opacity="0" result="BackgroundImageFix"/>
<feColorMatrix in="SourceAlpha" type="matrix" values="0 0 0 0 0 0 0 0 0 0 0 0 0 0 0 0 0 0 127 0" result="hardAlpha"/>
<feOffset dy="1"/>
<feGaussianBlur stdDeviation="1"/>
<feComposite in2="hardAlpha" operator="out"/>
<feColorMatrix type="matrix" values="0 0 0 0 0 0 0 0 0 0 0 0 0 0 0 0 0 0 0.05 0"/>
<feBlend mode="normal" in2="BackgroundImageFix" result="effect1_dropShadow_174_3123"/>
<feBlend mode="normal" in="SourceGraphic" in2="effect1_dropShadow_174_3123" result="shape"/>
</filter>
</defs>
</svg>
