<svg width="32" height="32" viewBox="0 0 32 32" fill="none" xmlns="http://www.w3.org/2000/svg">
<rect width="32" height="32" rx="8" fill="#EFF6FF"/>
<path d="M16 16C14.9 16 13.9583 15.6083 13.175 14.825C12.3917 14.0417 12 13.1 12 12C12 10.9 12.3917 9.95833 13.175 9.175C13.9583 8.39167 14.9 8 16 8C17.1 8 18.0417 8.39167 18.825 9.175C19.6083 9.95833 20 10.9 20 12C20 13.1 19.6083 14.0417 18.825 14.825C18.0417 15.6083 17.1 16 16 16ZM8 24V21.2C8 20.65 8.14167 20.1333 8.425 19.65C8.70833 19.1667 9.1 18.8 9.6 18.55C10.45 18.1167 11.4083 17.75 12.475 17.45C13.5417 17.15 14.7167 17 16 17C16.1333 17 16.25 17 16.35 17C16.45 17 16.55 17.0167 16.65 17.05C16.5167 17.35 16.4042 17.6625 16.3125 17.9875C16.2208 18.3125 16.15 18.65 16.1 19H16C14.8167 19 13.7542 19.15 12.8125 19.45C11.8708 19.75 11.1 20.05 10.5 20.35C10.35 20.4333 10.2292 20.55 10.1375 20.7C10.0458 20.85 10 21.0167 10 21.2V22H16.3C16.4 22.35 16.5333 22.6958 16.7 23.0375C16.8667 23.3792 17.05 23.7 17.25 24H8ZM22 25L21.7 23.5C21.5 23.4167 21.3125 23.3292 21.1375 23.2375C20.9625 23.1458 20.7833 23.0333 20.6 22.9L19.15 23.35L18.15 21.65L19.3 20.65C19.2667 20.4167 19.25 20.2 19.25 20C19.25 19.8 19.2667 19.5833 19.3 19.35L18.15 18.35L19.15 16.65L20.6 17.1C20.7833 16.9667 20.9625 16.8542 21.1375 16.7625C21.3125 16.6708 21.5 16.5833 21.7 16.5L22 15H24L24.3 16.5C24.5 16.5833 24.6875 16.675 24.8625 16.775C25.0375 16.875 25.2167 17 25.4 17.15L26.85 16.65L27.85 18.4L26.7 19.4C26.7333 19.6 26.75 19.8083 26.75 20.025C26.75 20.2417 26.7333 20.45 26.7 20.65L27.85 21.65L26.85 23.35L25.4 22.9C25.2167 23.0333 25.0375 23.1458 24.8625 23.2375C24.6875 23.3292 24.5 23.4167 24.3 23.5L24 25H22ZM23 22C23.55 22 24.0208 21.8042 24.4125 21.4125C24.8042 21.0208 25 20.55 25 20C25 19.45 24.8042 18.9792 24.4125 18.5875C24.0208 18.1958 23.55 18 23 18C22.45 18 21.9792 18.1958 21.5875 18.5875C21.1958 18.9792 21 19.45 21 20C21 20.55 21.1958 21.0208 21.5875 21.4125C21.9792 21.8042 22.45 22 23 22ZM16 14C16.55 14 17.0208 13.8042 17.4125 13.4125C17.8042 13.0208 18 12.55 18 12C18 11.45 17.8042 10.9792 17.4125 10.5875C17.0208 10.1958 16.55 10 16 10C15.45 10 14.9792 10.1958 14.5875 10.5875C14.1958 10.9792 14 11.45 14 12C14 12.55 14.1958 13.0208 14.5875 13.4125C14.9792 13.8042 15.45 14 16 14Z" fill="#2563EB"/>
</svg>
