<svg width="32" height="32" viewBox="0 0 32 32" fill="none" xmlns="http://www.w3.org/2000/svg">
<rect width="32" height="32" rx="8" fill="#EEF2FF"/>
<path d="M22.675 12L21.575 9.6L19.175 8.5L21.575 7.4L22.675 5L23.775 7.4L26.175 8.5L23.775 9.6L22.675 12ZM24.675 19L23.875 17.3L22.175 16.5L23.875 15.7L24.675 14L25.475 15.7L27.175 16.5L25.475 17.3L24.675 19ZM11.675 25L11.375 22.65C11.2583 22.6 11.1333 22.5333 11 22.45C10.8667 22.3667 10.7583 22.2833 10.675 22.2L8.475 23.15L6 18.8L7.875 17.4C7.875 17.2667 7.875 17.1333 7.875 17C7.875 16.8667 7.875 16.7333 7.875 16.6L6 15.2L8.475 10.85L10.675 11.8C10.7583 11.7167 10.8667 11.6333 11 11.55C11.1333 11.4667 11.2583 11.4 11.375 11.35L11.675 9H16.675L16.975 11.35C17.0917 11.4 17.2167 11.4667 17.35 11.55C17.4833 11.6333 17.5917 11.7167 17.675 11.8L19.875 10.85L22.35 15.2L20.475 16.6C20.475 16.7333 20.475 16.8667 20.475 17C20.475 17.1333 20.475 17.2667 20.475 17.4L22.35 18.8L19.875 23.15L17.675 22.2C17.5917 22.2833 17.4833 22.3667 17.35 22.45C17.2167 22.5333 17.0917 22.6 16.975 22.65L16.675 25H11.675ZM14.175 20C15.0083 20 15.7167 19.7083 16.3 19.125C16.8833 18.5417 17.175 17.8333 17.175 17C17.175 16.1667 16.8833 15.4583 16.3 14.875C15.7167 14.2917 15.0083 14 14.175 14C13.3417 14 12.6333 14.2917 12.05 14.875C11.4667 15.4583 11.175 16.1667 11.175 17C11.175 17.8333 11.4667 18.5417 12.05 19.125C12.6333 19.7083 13.3417 20 14.175 20ZM13.425 23H14.925L15.125 21.2C15.6083 21.0667 16.0208 20.8958 16.3625 20.6875C16.7042 20.4792 17.0417 20.2 17.375 19.85L19.025 20.6L19.725 19.35L18.275 18.25C18.4083 17.8667 18.475 17.45 18.475 17C18.475 16.55 18.4083 16.1333 18.275 15.75L19.725 14.65L19.025 13.4L17.375 14.15C17.0417 13.8 16.7042 13.5208 16.3625 13.3125C16.0208 13.1042 15.6083 12.9333 15.125 12.8L14.925 11H13.425L13.225 12.8C12.7417 12.9333 12.3292 13.1042 11.9875 13.3125C11.6458 13.5208 11.3083 13.8 10.975 14.15L9.325 13.4L8.625 14.65L10.075 15.75C9.94167 16.1333 9.87083 16.55 9.8625 17C9.85417 17.45 9.925 17.8667 10.075 18.25L8.625 19.35L9.325 20.6L10.975 19.85C11.3083 20.2 11.6458 20.4792 11.9875 20.6875C12.3292 20.8958 12.7417 21.0667 13.225 21.2L13.425 23Z" fill="#4F46E5"/>
</svg>
