<svg width="48" height="48" viewBox="0 0 48 48" fill="none" xmlns="http://www.w3.org/2000/svg">
<rect width="48" height="48" rx="12" fill="#F1F5F9"/>
<path d="M31.5 29.5C31.5 30.8807 30.3807 32 29 32C27.6193 32 26.5 30.8807 26.5 29.5C26.5 28.1193 27.6193 27 29 27C30.3807 27 31.5 28.1193 31.5 29.5Z" stroke="#0F172A" stroke-width="1.5"/>
<path d="M21.5 29.5C21.5 30.8807 20.3807 32 19 32C17.6193 32 16.5 30.8807 16.5 29.5C16.5 28.1193 17.6193 27 19 27C20.3807 27 21.5 28.1193 21.5 29.5Z" stroke="#0F172A" stroke-width="1.5"/>
<path d="M26.5 29.5H21.5M31.5 29.5H32.2632C32.4831 29.5 32.5931 29.5 32.6855 29.4885C33.3669 29.4036 33.9036 28.8669 33.9885 28.1855C34 28.0931 34 27.9831 34 27.7632V25C34 21.4102 31.0899 18.5 27.5 18.5M27 27.5V19C27 17.5858 27 16.8787 26.5607 16.4393C26.1213 16 25.4142 16 24 16H17C15.5858 16 14.8787 16 14.4393 16.4393C14 16.8787 14 17.5858 14 19V27C14 27.9346 14 28.4019 14.201 28.75C14.3326 28.978 14.522 29.1674 14.75 29.299C15.0981 29.5 15.5654 29.5 16.5 29.5" stroke="#0F172A" stroke-width="1.5" stroke-linecap="round" stroke-linejoin="round"/>
</svg>
