<svg width="28" height="28" viewBox="0 0 28 28" fill="none" xmlns="http://www.w3.org/2000/svg">
<path d="M11.3166 13.1832C10.8499 12.7165 10.1499 12.7165 9.68325 13.1832C9.21659 13.6498 9.21659 14.3498 9.68325 14.8165L13.1833 18.3165C13.4166 18.5498 13.6499 18.6665 13.9999 18.6665C14.3499 18.6665 14.5833 18.5498 14.8166 18.3165L22.9833 8.98316C23.3333 8.39983 23.3333 7.69983 22.7499 7.34983C22.2833 6.99983 21.5833 6.99983 21.2333 7.46649L13.9999 15.7498L11.3166 13.1832Z" fill="#02BC7D"/>
<path d="M24.4999 12.8333C23.7999 12.8333 23.3333 13.2999 23.3333 13.9999C23.3333 19.1333 19.1333 23.3333 13.9999 23.3333C8.86659 23.3333 4.66659 19.1333 4.66659 13.9999C4.66659 11.5499 5.59992 9.21659 7.34992 7.46659C9.09992 5.59992 11.4333 4.66659 13.9999 4.66659C14.6999 4.66659 15.5166 4.78325 16.2166 4.89992C16.7999 5.13325 17.4999 4.78325 17.7333 4.08325C17.9666 3.38325 17.4999 2.91659 16.9166 2.68325H16.7999C15.8666 2.44992 14.9333 2.33325 13.9999 2.33325C7.58325 2.33325 2.33325 7.58325 2.33325 14.1166C2.33325 17.1499 3.61659 20.1833 5.71659 22.2833C7.93325 24.4999 10.8499 25.6666 13.8833 25.6666C20.2999 25.6666 25.5499 20.4166 25.5499 13.9999C25.6666 13.2999 25.0833 12.8333 24.4999 12.8333Z" fill="#02BC7D"/>
</svg>
