<svg width="117" height="113" viewBox="0 0 117 113" fill="none" xmlns="http://www.w3.org/2000/svg">
<g clip-path="url(#clip0_11_5817)">
<path d="M59 16C51.0888 16 43.3552 18.346 36.7772 22.7412C30.1992 27.1365 25.0723 33.3836 22.0448 40.6927C19.0173 48.0017 18.2252 56.0444 19.7686 63.8036C21.312 71.5629 25.1216 78.6902 30.7157 84.2843C36.3098 89.8784 43.4372 93.688 51.1964 95.2314C58.9557 96.7748 66.9983 95.9827 74.3074 92.9552C81.6164 89.9277 87.8635 84.8008 92.2588 78.2228C96.6541 71.6449 99 63.9113 99 56C99 45.3913 94.7858 35.2172 87.2843 27.7157C79.7828 20.2143 69.6087 16 59 16ZM81.7334 46.35L56.6334 74.8167C56.2283 75.273 55.7371 75.6449 55.188 75.9109C54.6388 76.1768 54.0425 76.3318 53.4334 76.3667H53.1334C51.9964 76.3737 50.8975 75.9579 50.05 75.2L36.6167 63.2833C35.6928 62.4634 35.1326 61.31 35.0591 60.077C34.9857 58.8439 35.4051 57.6322 36.225 56.7083C37.045 55.7845 38.1984 55.2242 39.4314 55.1508C40.6645 55.0773 41.8762 55.4967 42.8 56.3167L52.8 65.1333L74.8167 40.1333C75.6344 39.2073 76.7866 38.644 78.0196 38.5674C79.2527 38.4909 80.4656 38.9073 81.3917 39.725C82.3177 40.5428 82.881 41.6949 82.9576 42.9279C83.0342 44.161 82.6178 45.374 81.8 46.3L81.7334 46.35Z" fill="#1F3555"/>
</g>
<circle cx="112.017" cy="17.264" r="4.70833" fill="#1F3555"/>
<circle cx="12.5551" cy="6.27778" r="6.27778" fill="#1F3555"/>
<circle cx="6.27756" cy="83.4944" r="3.13889" fill="#1F3555"/>
<circle cx="103.898" cy="100.758" r="1.56944" fill="#1F3555"/>
<circle cx="66.8585" cy="2.8253" r="1.56944" fill="#1F3555"/>
<circle cx="39.2363" cy="110.803" r="2.19722" fill="#1F3555"/>
<circle cx="76.5887" cy="107.35" r="0.627778" fill="#1F3555"/>
<circle cx="107.036" cy="69.3695" r="1.56944" fill="#1F3555"/>
<circle cx="0.627778" cy="47.0829" r="0.627778" fill="#1F3555"/>
<defs>
<clipPath id="clip0_11_5817">
<rect width="80" height="80" fill="white" transform="translate(19 16)"/>
</clipPath>
</defs>
</svg>
