<svg width="89" height="67" viewBox="0 0 89 67" fill="none" xmlns="http://www.w3.org/2000/svg">
<path d="M19.5632 66.7597C16.3027 66.0667 13.7739 64.3364 11.9767 61.5689C10.1794 58.8015 9.62736 55.7875 10.3204 52.527L2.49522 50.8637L11.6433 7.82518C12.1008 5.67326 13.2585 3.99394 15.1167 2.78724C16.9749 1.58054 18.9799 1.20589 21.1318 1.6633L75.9081 13.3064L72.5815 28.9567L84.3193 31.4517L92.7305 49.597L88.5722 69.16L80.7471 67.4967C80.054 70.7571 78.3238 73.286 75.5563 75.0832C72.7888 76.8804 69.7748 77.4325 66.5143 76.7395C63.2538 76.0464 60.725 74.3162 58.9278 71.5487C57.1306 68.7812 56.5785 65.7673 57.2715 62.5068L33.796 57.5169C33.1029 60.7774 31.3727 63.3062 28.6052 65.1034C25.8377 66.9007 22.8237 67.4528 19.5632 66.7597ZM21.2265 58.9345C22.3351 59.1702 23.344 58.9927 24.2533 58.4022C25.1627 57.8117 25.7351 56.9622 25.9708 55.8536C26.2064 54.745 26.029 53.7361 25.4384 52.8268C24.8479 51.9175 23.9984 51.345 22.8898 51.1093C21.7813 50.8737 20.7723 51.0512 19.863 51.6417C18.9537 52.2322 18.3812 53.0817 18.1456 54.1903C17.91 55.2989 18.0874 56.3078 18.6779 57.2171C19.2684 58.1264 20.118 58.6989 21.2265 58.9345ZM11.9837 44.7018L15.1138 45.3671C16.4718 44.429 17.9444 43.7537 19.5315 43.3414C21.1186 42.929 22.7925 42.9099 24.5531 43.2842C26.3138 43.6584 27.8352 44.3566 29.1173 45.3789C30.3995 46.4011 31.4701 47.617 32.3292 49.0264L58.9348 54.6816L66.4196 19.4683L19.4685 9.48848L11.9837 44.7018ZM68.1776 68.9143C69.2862 69.1499 70.2951 68.9725 71.2045 68.382C72.1138 67.7915 72.6862 66.9419 72.9219 65.8334C73.1575 64.7248 72.9801 63.7159 72.3895 62.8065C71.799 61.8972 70.9495 61.3248 69.8409 61.0891C68.7324 60.8535 67.7234 61.0309 66.8141 61.6214C65.9048 62.212 65.3323 63.0615 65.0967 64.1701C64.8611 65.2786 65.0385 66.2876 65.629 67.1969C66.2195 68.1062 67.0691 68.6787 68.1776 68.9143ZM68.4233 48.5197L85.0518 52.0542L78.7434 38.4452L70.9182 36.7819L68.4233 48.5197Z" fill="white" fill-opacity="0.1"/>
</svg>
