<svg width="24" height="24" viewBox="0 0 24 24" fill="none" xmlns="http://www.w3.org/2000/svg">
<rect width="24" height="24" rx="12" fill="#1F3555"/>
<path d="M11.9999 12.0001C12.3208 12.0001 12.5954 11.8858 12.8239 11.6574C13.0523 11.4289 13.1666 11.1542 13.1666 10.8334C13.1666 10.5126 13.0523 10.2379 12.8239 10.0095C12.5954 9.78098 12.3208 9.66675 11.9999 9.66675C11.6791 9.66675 11.4044 9.78098 11.176 10.0095C10.9475 10.2379 10.8333 10.5126 10.8333 10.8334C10.8333 11.1542 10.9475 11.4289 11.176 11.6574C11.4044 11.8858 11.6791 12.0001 11.9999 12.0001ZM11.9999 17.8334C10.4346 16.5015 9.26554 15.2643 8.49263 14.122C7.71971 12.9796 7.33325 11.9223 7.33325 10.9501C7.33325 9.49175 7.80235 8.32994 8.74054 7.46466C9.67874 6.59939 10.7652 6.16675 11.9999 6.16675C13.2346 6.16675 14.3211 6.59939 15.2593 7.46466C16.1975 8.32994 16.6666 9.49175 16.6666 10.9501C16.6666 11.9223 16.2801 12.9796 15.5072 14.122C14.7343 15.2643 13.5652 16.5015 11.9999 17.8334Z" fill="white"/>
</svg>
