<svg width="36" height="36" viewBox="0 0 36 36" fill="none" xmlns="http://www.w3.org/2000/svg">
<rect width="36" height="36" rx="12" fill="#E2E8F0"/>
<path d="M10 25V22.2C10 21.6333 10.1458 21.1125 10.4375 20.6375C10.7292 20.1625 11.1167 19.8 11.6 19.55C12.6333 19.0333 13.6833 18.6458 14.75 18.3875C15.8167 18.1292 16.9 18 18 18C18.6167 18 19.225 18.0375 19.825 18.1125C20.425 18.1875 21.025 18.3083 21.625 18.475L19.95 20.175C19.6167 20.125 19.2917 20.0833 18.975 20.05C18.6583 20.0167 18.3333 20 18 20C17.0667 20 16.1417 20.1125 15.225 20.3375C14.3083 20.5625 13.4 20.9 12.5 21.35C12.35 21.4333 12.2292 21.55 12.1375 21.7C12.0458 21.85 12 22.0167 12 22.2V23H18V25H10ZM20 26V22.925L25.525 17.425C25.675 17.275 25.8417 17.1667 26.025 17.1C26.2083 17.0333 26.3917 17 26.575 17C26.775 17 26.9667 17.0375 27.15 17.1125C27.3333 17.1875 27.5 17.3 27.65 17.45L28.575 18.375C28.7083 18.525 28.8125 18.6917 28.8875 18.875C28.9625 19.0583 29 19.2417 29 19.425C29 19.6083 28.9667 19.7958 28.9 19.9875C28.8333 20.1792 28.725 20.35 28.575 20.5L23.075 26H20ZM27.5 19.425L26.575 18.5L27.5 19.425ZM21.5 24.5H22.45L25.475 21.45L25.025 20.975L24.55 20.525L21.5 23.55V24.5ZM25.025 20.975L24.55 20.525L25.475 21.45L25.025 20.975ZM18 17C16.9 17 15.9583 16.6083 15.175 15.825C14.3917 15.0417 14 14.1 14 13C14 11.9 14.3917 10.9583 15.175 10.175C15.9583 9.39167 16.9 9 18 9C19.1 9 20.0417 9.39167 20.825 10.175C21.6083 10.9583 22 11.9 22 13C22 14.1 21.6083 15.0417 20.825 15.825C20.0417 16.6083 19.1 17 18 17ZM18 15C18.55 15 19.0208 14.8042 19.4125 14.4125C19.8042 14.0208 20 13.55 20 13C20 12.45 19.8042 11.9792 19.4125 11.5875C19.0208 11.1958 18.55 11 18 11C17.45 11 16.9792 11.1958 16.5875 11.5875C16.1958 11.9792 16 12.45 16 13C16 13.55 16.1958 14.0208 16.5875 14.4125C16.9792 14.8042 17.45 15 18 15Z" fill="#1F3555"/>
</svg>
