<svg width="27" height="27" viewBox="0 0 27 27" fill="none" xmlns="http://www.w3.org/2000/svg">
<rect x="1" y="1" width="24.5" height="24.5" rx="12.25" fill="#1F3555"/>
<rect x="1" y="1" width="24.5" height="24.5" rx="12.25" stroke="white" stroke-width="2"/>
<path d="M9.16667 17.3333H9.99792L15.7 11.6312L14.8688 10.8L9.16667 16.5021V17.3333ZM8 18.5V16.0208L15.7 8.33542C15.8167 8.22847 15.9455 8.14583 16.0865 8.0875C16.2274 8.02917 16.3757 8 16.5312 8C16.6868 8 16.8375 8.02917 16.9833 8.0875C17.1292 8.14583 17.2556 8.23333 17.3625 8.35L18.1646 9.16667C18.2812 9.27361 18.3663 9.4 18.4198 9.54583C18.4733 9.69167 18.5 9.8375 18.5 9.98333C18.5 10.1389 18.4733 10.2872 18.4198 10.4281C18.3663 10.5691 18.2812 10.6979 18.1646 10.8146L10.4792 18.5H8ZM15.2771 11.2229L14.8688 10.8L15.7 11.6312L15.2771 11.2229Z" fill="white"/>
</svg>
