<svg width="44" height="44" viewBox="0 0 44 44" fill="none" xmlns="http://www.w3.org/2000/svg">
<rect width="44" height="44" rx="12" fill="#FFF7ED"/>
<path d="M20.4626 23L19.0686 24.8124C18.9192 25.0066 19.0263 25.2861 19.2699 25.3378L20.7301 25.6477C20.9899 25.7028 21.0889 26.0122 20.9073 26.2011L19.1777 28" stroke="#F59E0B" stroke-width="1.5" stroke-linecap="round" stroke-linejoin="round"/>
<path d="M14 20H26" stroke="#F59E0B" stroke-width="1.5" stroke-linecap="round" stroke-linejoin="round"/>
<path d="M14 31V19C14 16.1716 14 14.7574 14.8787 13.8787C15.7574 13 17.1716 13 20 13C22.8284 13 24.2426 13 25.1213 13.8787C26 14.7574 26 16.1716 26 19V31H14Z" stroke="#F59E0B" stroke-width="1.5"/>
<path d="M12 31H28" stroke="#F59E0B" stroke-width="1.5" stroke-linecap="round" stroke-linejoin="round"/>
<path d="M26 24H27.6667C27.9767 24 28.1317 24 28.2588 24.0341C28.6039 24.1265 28.8735 24.3961 28.9659 24.7412C29 24.8683 29 25.0233 29 25.3333V26.5C29 27.3284 29.6716 28 30.5 28C31.3284 28 32 27.3284 32 26.5V20.2111C32 19.61 32 19.3094 31.9142 19.026C31.8284 18.7425 31.6616 18.4925 31.3282 17.9923L30.5547 16.832C30.2082 16.3122 29.6247 16 29 16" stroke="#F59E0B" stroke-width="1.5" stroke-linecap="round" stroke-linejoin="round"/>
</svg>
