<svg width="32" height="32" viewBox="0 0 32 32" fill="none" xmlns="http://www.w3.org/2000/svg">
<rect width="32" height="32" rx="8" fill="#ECFDF5"/>
<path d="M16 26L15.75 23H15.5C13.1333 23 11.125 22.175 9.475 20.525C7.825 18.875 7 16.8667 7 14.5C7 12.1333 7.825 10.125 9.475 8.475C11.125 6.825 13.1333 6 15.5 6C16.6833 6 17.7875 6.22083 18.8125 6.6625C19.8375 7.10417 20.7375 7.7125 21.5125 8.4875C22.2875 9.2625 22.8958 10.1625 23.3375 11.1875C23.7792 12.2125 24 13.3167 24 14.5C24 15.75 23.7958 16.95 23.3875 18.1C22.9792 19.25 22.4208 20.3167 21.7125 21.3C21.0042 22.2833 20.1625 23.175 19.1875 23.975C18.2125 24.775 17.15 25.45 16 26ZM18 22.35C19.1833 21.35 20.1458 20.1792 20.8875 18.8375C21.6292 17.4958 22 16.05 22 14.5C22 12.6833 21.3708 11.1458 20.1125 9.8875C18.8542 8.62917 17.3167 8 15.5 8C13.6833 8 12.1458 8.62917 10.8875 9.8875C9.62917 11.1458 9 12.6833 9 14.5C9 16.3167 9.62917 17.8542 10.8875 19.1125C12.1458 20.3708 13.6833 21 15.5 21H18V22.35ZM15.475 19.975C15.7583 19.975 16 19.875 16.2 19.675C16.4 19.475 16.5 19.2333 16.5 18.95C16.5 18.6667 16.4 18.425 16.2 18.225C16 18.025 15.7583 17.925 15.475 17.925C15.1917 17.925 14.95 18.025 14.75 18.225C14.55 18.425 14.45 18.6667 14.45 18.95C14.45 19.2333 14.55 19.475 14.75 19.675C14.95 19.875 15.1917 19.975 15.475 19.975ZM14.75 16.8H16.25C16.25 16.3 16.3 15.95 16.4 15.75C16.5 15.55 16.8167 15.1833 17.35 14.65C17.65 14.35 17.9 14.025 18.1 13.675C18.3 13.325 18.4 12.95 18.4 12.55C18.4 11.7 18.1125 11.0625 17.5375 10.6375C16.9625 10.2125 16.2833 10 15.5 10C14.7667 10 14.15 10.2042 13.65 10.6125C13.15 11.0208 12.8 11.5167 12.6 12.1L14 12.65C14.0833 12.3667 14.2417 12.0875 14.475 11.8125C14.7083 11.5375 15.05 11.4 15.5 11.4C15.95 11.4 16.2875 11.525 16.5125 11.775C16.7375 12.025 16.85 12.3 16.85 12.6C16.85 12.8833 16.7667 13.1375 16.6 13.3625C16.4333 13.5875 16.2333 13.8167 16 14.05C15.4167 14.55 15.0625 14.9458 14.9375 15.2375C14.8125 15.5292 14.75 16.05 14.75 16.8Z" fill="#059669"/>
</svg>
