<svg width="28" height="28" viewBox="0 0 28 28" fill="none" xmlns="http://www.w3.org/2000/svg">
<path d="M15.0412 3.2782L25.0689 11.1948C25.4464 11.4929 25.6667 11.9473 25.6667 12.4283C25.6667 13.2965 24.9631 14.0001 24.095 14.0001H23.3334V18.0834C23.3334 21.3832 23.3334 23.0331 22.3082 24.0583C21.2831 25.0834 19.6332 25.0834 16.3334 25.0834H11.6667C8.36687 25.0834 6.71696 25.0834 5.69183 24.0583C4.66671 23.0331 4.66671 21.3832 4.66671 18.0834V14.0001H3.90506C3.03705 14.0001 2.33337 13.2965 2.33337 12.4283C2.33337 11.9473 2.55364 11.4929 2.93117 11.1948L12.9589 3.2782C13.2554 3.04409 13.6222 2.91675 14 2.91675C14.3779 2.91675 14.7447 3.04409 15.0412 3.2782Z" stroke="white" stroke-width="1.5" stroke-linecap="round" stroke-linejoin="round"/>
<path d="M16.9167 25.0834V19.8334C16.9167 18.743 16.9167 18.1979 16.6822 17.7917C16.5287 17.5257 16.3077 17.3048 16.0417 17.1512C15.6356 16.9167 15.0904 16.9167 14 16.9167C12.9097 16.9167 12.3645 16.9167 11.9584 17.1512C11.6924 17.3048 11.4714 17.5257 11.3178 17.7917C11.0834 18.1979 11.0834 18.743 11.0834 19.8334V25.0834" stroke="white" stroke-width="1.5" stroke-linecap="round" stroke-linejoin="round"/>
</svg>
