<svg width="28" height="28" viewBox="0 0 28 28" fill="none" xmlns="http://www.w3.org/2000/svg">
<path d="M15.0408 3.27796L25.0685 11.1946C25.4461 11.4926 25.6663 11.9471 25.6663 12.4281C25.6663 13.2962 24.9627 13.9998 24.0946 13.9998H23.333V18.0832C23.333 21.383 23.333 23.0329 22.3079 24.058C21.2827 25.0832 19.6328 25.0832 16.333 25.0832H11.6663C8.36651 25.0832 6.7166 25.0832 5.69147 24.058C4.66634 23.0329 4.66634 21.383 4.66634 18.0832V13.9998H3.90469C3.03668 13.9998 2.33301 13.2962 2.33301 12.4281C2.33301 11.9471 2.55327 11.4926 2.93081 11.1946L12.9585 3.27796C13.255 3.04385 13.6218 2.9165 13.9997 2.9165C14.3776 2.9165 14.7444 3.04385 15.0408 3.27796Z" stroke="#1F3555" stroke-width="1.5" stroke-linecap="round" stroke-linejoin="round"/>
<path d="M16.9163 25.0832V19.8332C16.9163 18.7428 16.9163 18.1976 16.6818 17.7915C16.5283 17.5255 16.3073 17.3045 16.0413 17.151C15.6352 16.9165 15.09 16.9165 13.9997 16.9165C12.9093 16.9165 12.3641 16.9165 11.958 17.151C11.692 17.3045 11.4711 17.5255 11.3175 17.7915C11.083 18.1976 11.083 18.7428 11.083 19.8332V25.0832" stroke="#1F3555" stroke-width="1.5" stroke-linecap="round" stroke-linejoin="round"/>
</svg>
