<svg width="28" height="28" viewBox="0 0 28 28" fill="none" xmlns="http://www.w3.org/2000/svg">
<path d="M22.7503 20.4167C22.7503 22.0275 21.4445 23.3333 19.8337 23.3333C18.2228 23.3333 16.917 22.0275 16.917 20.4167C16.917 18.8059 18.2228 17.5 19.8337 17.5C21.4445 17.5 22.7503 18.8059 22.7503 20.4167Z" stroke="white" stroke-width="1.75"/>
<path d="M11.0833 20.4167C11.0833 22.0275 9.7775 23.3333 8.16667 23.3333C6.55584 23.3333 5.25 22.0275 5.25 20.4167C5.25 18.8059 6.55584 17.5 8.16667 17.5C9.7775 17.5 11.0833 18.8059 11.0833 20.4167Z" stroke="white" stroke-width="1.75"/>
<path d="M16.9163 20.4165H11.083M22.7497 20.4165H23.6401C23.8966 20.4165 24.025 20.4165 24.1328 20.4031C24.9277 20.304 25.5539 19.6779 25.6529 18.8829C25.6663 18.7751 25.6663 18.6468 25.6663 18.3902V15.1665C25.6663 10.9783 22.2712 7.58317 18.083 7.58317M2.33301 4.6665H13.9997C15.6496 4.6665 16.4745 4.6665 16.9872 5.17907C17.4997 5.69163 17.4997 6.51659 17.4997 8.1665V18.0832M2.33301 14.8748V17.4998C2.33301 18.5902 2.33301 19.1354 2.56746 19.5415C2.72105 19.8075 2.94197 20.0285 3.20801 20.182C3.6141 20.4165 4.15928 20.4165 5.24967 20.4165" stroke="white" stroke-width="1.75" stroke-linecap="round" stroke-linejoin="round"/>
<path d="M2.33301 8.1665H9.33301M2.33301 11.6665H6.99967" stroke="white" stroke-width="1.75" stroke-linecap="round" stroke-linejoin="round"/>
</svg>
