<svg width="88" height="22" viewBox="0 0 88 22" fill="none" xmlns="http://www.w3.org/2000/svg">
<path d="M11 0C6.6067 0 3.03247 3.57423 3.03247 7.96752C3.03247 13.4197 10.1627 21.4239 10.4662 21.762C10.7514 22.0796 11.2492 22.079 11.5338 21.762C11.8374 21.4239 18.9676 13.4197 18.9676 7.96752C18.9675 3.57423 15.3933 0 11 0ZM11 11.9762C8.78964 11.9762 6.9914 10.1779 6.9914 7.96752C6.9914 5.75713 8.78968 3.95888 11 3.95888C13.2104 3.95888 15.0086 5.75717 15.0086 7.96757C15.0086 10.178 13.2104 11.9762 11 11.9762Z" fill="black"/>
<path d="M29.2578 18V8.13574H30.4883V16.8926H35.2461V18H29.2578ZM39.751 18.1299C39.0537 18.1299 38.4499 17.9772 37.9395 17.6719C37.4336 17.362 37.0417 16.9222 36.7637 16.3525C36.4902 15.7829 36.3535 15.1061 36.3535 14.3223V14.3086C36.3535 13.5202 36.4902 12.8411 36.7637 12.2715C37.0417 11.7018 37.4336 11.2643 37.9395 10.959C38.4499 10.6536 39.0537 10.501 39.751 10.501C40.4528 10.501 41.0566 10.6536 41.5625 10.959C42.0684 11.2643 42.458 11.7018 42.7314 12.2715C43.0094 12.8411 43.1484 13.5202 43.1484 14.3086V14.3223C43.1484 15.1061 43.0094 15.7829 42.7314 16.3525C42.458 16.9222 42.0684 17.362 41.5625 17.6719C41.0566 17.9772 40.4528 18.1299 39.751 18.1299ZM39.751 17.0771C40.2158 17.0771 40.61 16.9678 40.9336 16.749C41.2572 16.5303 41.5033 16.2158 41.6719 15.8057C41.8451 15.3955 41.9316 14.901 41.9316 14.3223V14.3086C41.9316 13.7253 41.8451 13.2285 41.6719 12.8184C41.5033 12.4082 41.2572 12.096 40.9336 11.8818C40.61 11.6631 40.2158 11.5537 39.751 11.5537C39.2861 11.5537 38.8919 11.6631 38.5684 11.8818C38.2448 12.096 37.9964 12.4082 37.8232 12.8184C37.6546 13.2285 37.5703 13.7253 37.5703 14.3086V14.3223C37.5703 14.901 37.6546 15.3955 37.8232 15.8057C37.9964 16.2158 38.2448 16.5303 38.5684 16.749C38.8919 16.9678 39.2861 17.0771 39.751 17.0771ZM48.0088 18.1299C47.3206 18.1299 46.7236 17.9727 46.2178 17.6582C45.7119 17.3438 45.32 16.8994 45.042 16.3252C44.764 15.751 44.625 15.0742 44.625 14.2949V14.2812C44.625 13.5156 44.7617 12.8503 45.0352 12.2852C45.3132 11.7201 45.7051 11.2826 46.2109 10.9727C46.7168 10.6582 47.3138 10.501 48.002 10.501C48.599 10.501 49.1139 10.6058 49.5469 10.8154C49.9798 11.0251 50.3262 11.3076 50.5859 11.6631C50.8457 12.014 51.012 12.4082 51.085 12.8457L51.0918 12.8867H49.9092L49.9023 12.8662C49.8112 12.5016 49.6038 12.1917 49.2803 11.9365C48.9567 11.6813 48.5306 11.5537 48.002 11.5537C47.5599 11.5537 47.1771 11.6654 46.8535 11.8887C46.5299 12.112 46.2793 12.4287 46.1016 12.8389C45.9284 13.2445 45.8418 13.7253 45.8418 14.2812V14.2949C45.8418 14.86 45.9307 15.3522 46.1084 15.7715C46.2861 16.1862 46.5368 16.5075 46.8604 16.7354C47.1839 16.9632 47.5645 17.0771 48.002 17.0771C48.4987 17.0771 48.9043 16.9701 49.2188 16.7559C49.5332 16.5417 49.7588 16.2295 49.8955 15.8193L49.9092 15.7783L51.085 15.7715L51.0713 15.8467C50.971 16.2887 50.7933 16.6829 50.5381 17.0293C50.2829 17.3711 49.9456 17.64 49.5264 17.8359C49.1071 18.0319 48.6012 18.1299 48.0088 18.1299ZM54.8516 18.1299C54.3867 18.1299 53.9674 18.041 53.5938 17.8633C53.2246 17.6855 52.9307 17.4326 52.7119 17.1045C52.4977 16.7764 52.3906 16.389 52.3906 15.9424V15.9287C52.3906 15.4912 52.4954 15.1175 52.7051 14.8076C52.9147 14.4932 53.2201 14.2471 53.6211 14.0693C54.0221 13.8916 54.5075 13.7868 55.0771 13.7549L57.7842 13.5908V14.541L55.2207 14.7051C54.6602 14.737 54.25 14.8532 53.9902 15.0537C53.735 15.2542 53.6074 15.5368 53.6074 15.9014V15.915C53.6074 16.2887 53.7487 16.5804 54.0312 16.79C54.3138 16.9951 54.6693 17.0977 55.0977 17.0977C55.5033 17.0977 55.8633 17.0179 56.1777 16.8584C56.4922 16.6943 56.7383 16.4733 56.916 16.1953C57.0983 15.9173 57.1895 15.6029 57.1895 15.252V12.9551C57.1895 12.4993 57.0505 12.153 56.7725 11.916C56.499 11.6745 56.0866 11.5537 55.5352 11.5537C55.0931 11.5537 54.7308 11.6335 54.4482 11.793C54.1657 11.9479 53.9766 12.1689 53.8809 12.4561L53.874 12.4766H52.6846L52.6914 12.4355C52.7552 12.0482 52.9147 11.7109 53.1699 11.4238C53.4297 11.1322 53.7646 10.9066 54.1748 10.7471C54.585 10.583 55.0521 10.501 55.5762 10.501C56.1777 10.501 56.6859 10.599 57.1006 10.7949C57.5199 10.9909 57.8366 11.2734 58.0508 11.6426C58.2695 12.0072 58.3789 12.4447 58.3789 12.9551V18H57.1895V16.9131H57.0801C56.9251 17.1729 56.736 17.3939 56.5127 17.5762C56.2939 17.7585 56.0456 17.8975 55.7676 17.9932C55.4896 18.0843 55.1842 18.1299 54.8516 18.1299ZM63.1709 18.0547C62.4144 18.0547 61.8652 17.902 61.5234 17.5967C61.1862 17.2913 61.0176 16.7878 61.0176 16.0859V11.6152H59.8555V10.6309H61.0176V8.72363H62.248V10.6309H63.8613V11.6152H62.248V15.7852C62.248 16.2181 62.3301 16.5303 62.4941 16.7217C62.6582 16.9085 62.9316 17.002 63.3145 17.002C63.4193 17.002 63.5081 16.9997 63.5811 16.9951C63.6585 16.9906 63.752 16.9837 63.8613 16.9746V17.9863C63.7474 18.0046 63.6335 18.0205 63.5195 18.0342C63.4056 18.0479 63.2894 18.0547 63.1709 18.0547ZM65.666 18V10.6309H66.8555V18H65.666ZM66.2676 9.20898C66.0443 9.20898 65.8506 9.12923 65.6865 8.96973C65.527 8.80566 65.4473 8.61198 65.4473 8.38867C65.4473 8.16081 65.527 7.96712 65.6865 7.80762C65.8506 7.64811 66.0443 7.56836 66.2676 7.56836C66.4954 7.56836 66.6891 7.64811 66.8486 7.80762C67.0081 7.96712 67.0879 8.16081 67.0879 8.38867C67.0879 8.61198 67.0081 8.80566 66.8486 8.96973C66.6891 9.12923 66.4954 9.20898 66.2676 9.20898ZM72.126 18.1299C71.4287 18.1299 70.8249 17.9772 70.3145 17.6719C69.8086 17.362 69.4167 16.9222 69.1387 16.3525C68.8652 15.7829 68.7285 15.1061 68.7285 14.3223V14.3086C68.7285 13.5202 68.8652 12.8411 69.1387 12.2715C69.4167 11.7018 69.8086 11.2643 70.3145 10.959C70.8249 10.6536 71.4287 10.501 72.126 10.501C72.8278 10.501 73.4316 10.6536 73.9375 10.959C74.4434 11.2643 74.833 11.7018 75.1064 12.2715C75.3844 12.8411 75.5234 13.5202 75.5234 14.3086V14.3223C75.5234 15.1061 75.3844 15.7829 75.1064 16.3525C74.833 16.9222 74.4434 17.362 73.9375 17.6719C73.4316 17.9772 72.8278 18.1299 72.126 18.1299ZM72.126 17.0771C72.5908 17.0771 72.985 16.9678 73.3086 16.749C73.6322 16.5303 73.8783 16.2158 74.0469 15.8057C74.2201 15.3955 74.3066 14.901 74.3066 14.3223V14.3086C74.3066 13.7253 74.2201 13.2285 74.0469 12.8184C73.8783 12.4082 73.6322 12.096 73.3086 11.8818C72.985 11.6631 72.5908 11.5537 72.126 11.5537C71.6611 11.5537 71.2669 11.6631 70.9434 11.8818C70.6198 12.096 70.3714 12.4082 70.1982 12.8184C70.0296 13.2285 69.9453 13.7253 69.9453 14.3086V14.3223C69.9453 14.901 70.0296 15.3955 70.1982 15.8057C70.3714 16.2158 70.6198 16.5303 70.9434 16.749C71.2669 16.9678 71.6611 17.0771 72.126 17.0771ZM77.3691 18V10.6309H78.5586V11.7383H78.668C78.8548 11.3464 79.1237 11.0433 79.4746 10.8291C79.8255 10.6104 80.2721 10.501 80.8145 10.501C81.6439 10.501 82.2796 10.738 82.7217 11.2119C83.1683 11.6813 83.3916 12.3535 83.3916 13.2285V18H82.2021V13.5156C82.2021 12.8503 82.0609 12.3581 81.7783 12.0391C81.5003 11.7155 81.0674 11.5537 80.4795 11.5537C80.0876 11.5537 79.748 11.638 79.4609 11.8066C79.1738 11.9753 78.9505 12.2145 78.791 12.5244C78.6361 12.8343 78.5586 13.2057 78.5586 13.6387V18H77.3691Z" fill="#6B7280"/>
</svg>
