<svg width="44" height="44" viewBox="0 0 44 44" fill="none" xmlns="http://www.w3.org/2000/svg">
<rect width="44" height="44" rx="12" fill="#EFF6FF"/>
<path d="M13.6416 23.3567C14.8311 24.546 17.0692 24.4998 20.5008 24.4998C22.7086 24.4998 24.4986 22.7071 24.4998 20.4993C24.4998 17.07 24.546 14.8307 23.3565 13.6414C22.1671 12.4521 21.6417 12.5003 16.3726 12.5003C15.8634 12.4981 15.6071 13.1139 15.9671 13.4739L18.6801 16.1871C19.3687 16.8758 19.3706 17.9923 18.6819 18.6809C17.9932 19.3695 16.8766 19.3696 16.1878 18.6811L13.4741 15.9686C13.114 15.6086 12.4981 15.8648 12.5003 16.374C12.5003 21.6422 12.4521 22.1675 13.6416 23.3567Z" stroke="#2563EB" stroke-width="1.5"/>
<path d="M20.5 24.5L26.6716 30.6716C27.7761 31.7761 29.567 31.7761 30.6716 30.6716C31.7761 29.567 31.7761 27.7761 30.6716 26.6716L24.5 20.5" stroke="#2563EB" stroke-width="1.5" stroke-linecap="round"/>
<path d="M28.491 28.5H28.5" stroke="#2563EB" stroke-width="2" stroke-linecap="round" stroke-linejoin="round"/>
</svg>
