<svg width="32" height="32" viewBox="0 0 32 32" fill="none" xmlns="http://www.w3.org/2000/svg">
<rect width="32" height="32" rx="8" fill="#EFF6FF"/>
<path d="M24.3261 22.0585C23.7321 18.5485 19.5201 17.3965 18.9621 17.2705C17.7921 18.1885 16.1361 18.1885 14.9661 17.2705C14.4081 17.3965 10.2861 18.5305 9.69205 22.0585C9.38605 23.5345 9.47605 24.7945 10.2321 25.0465C10.6821 25.1905 11.4201 25.0105 12.2121 24.7585C12.2301 24.7585 12.2301 24.7585 12.2481 24.7405H12.2661C12.7521 24.5785 13.0941 24.1285 13.0941 23.6065V23.5525C13.0941 23.1025 12.8421 22.7065 12.4821 22.5085C13.1121 20.6365 14.8941 19.3045 17.0001 19.3045C19.0881 19.3045 20.8701 20.6545 21.5361 22.5265C21.1761 22.7425 20.9241 23.1205 20.9241 23.5705V23.6245C20.9241 24.1645 21.2841 24.6145 21.7701 24.7765C22.5801 25.0105 23.3001 25.2085 23.7321 25.0645C24.5061 24.8305 24.6321 23.5345 24.3261 22.0585Z" fill="#004AC6"/>
<path d="M17.0181 17.1084C19.1753 17.1084 20.9241 15.271 20.9241 13.0044C20.9241 10.7378 19.1753 8.90039 17.0181 8.90039C14.8608 8.90039 13.1121 10.7378 13.1121 13.0044C13.1121 15.271 14.8608 17.1084 17.0181 17.1084Z" fill="#004AC6"/>
<path d="M18.242 23.3903C18.368 23.6063 18.44 23.8403 18.44 24.1103C18.44 24.4343 18.332 24.7223 18.152 24.9563C19.142 24.9023 19.97 24.7763 20.672 24.6143C20.69 24.4523 20.708 24.2723 20.708 24.0923C20.708 23.2103 20.402 22.4183 19.898 21.7703L18.242 23.3903ZM15.758 23.3903L14.12 21.7883C13.598 22.4183 13.292 23.2283 13.292 24.1103C13.292 24.2903 13.31 24.4703 13.328 24.6323C14.03 24.7943 14.858 24.9023 15.848 24.9563C15.668 24.7223 15.56 24.4163 15.56 24.1103C15.56 23.8403 15.632 23.5883 15.758 23.3903ZM17 23.3903C16.604 23.3903 16.28 23.7143 16.28 24.1103C16.28 24.5063 16.604 24.8303 17 24.8303C17.396 24.8303 17.72 24.5063 17.72 24.1103C17.72 23.7143 17.396 23.3903 17 23.3903ZM17 20.4023C16.082 20.4023 15.254 20.7263 14.606 21.2843L16.262 22.8863C16.478 22.7603 16.73 22.6883 17 22.6883C17.27 22.6883 17.54 22.7603 17.756 22.9043L19.412 21.3023C18.746 20.7443 17.918 20.4023 17 20.4023Z" fill="#004AC6"/>
</svg>
