<svg width="28" height="28" viewBox="0 0 28 28" fill="none" xmlns="http://www.w3.org/2000/svg">
<path d="M19.2385 5.75488H7.85391C7.64505 5.75488 7.44474 5.83785 7.29706 5.98554C7.14937 6.13322 7.06641 6.33353 7.06641 6.54238C7.06641 6.75124 7.14937 6.95154 7.29706 7.09923C7.44474 7.24691 7.64505 7.32988 7.85391 7.32988H19.2394C19.4483 7.32977 19.6485 7.24669 19.7961 7.09892C19.9437 6.95115 20.0266 6.7508 20.0265 6.54195C20.0264 6.33309 19.9433 6.13283 19.7955 5.98523C19.6477 5.83762 19.4474 5.75477 19.2385 5.75488ZM20.026 10.9821C20.026 10.7733 19.9431 10.573 19.7954 10.4253C19.6477 10.2776 19.4474 10.1946 19.2385 10.1946H7.85391C7.64505 10.1946 7.44474 10.2776 7.29706 10.4253C7.14938 10.573 7.06641 10.7733 7.06641 10.9821C7.06641 11.191 7.14938 11.3913 7.29706 11.539C7.44474 11.6867 7.64505 11.7696 7.85391 11.7696H19.2394C19.4481 11.7694 19.6482 11.6863 19.7957 11.5387C19.9432 11.391 20.026 11.1908 20.026 10.9821ZM7.85391 14.6353C7.64505 14.6353 7.44474 14.7182 7.29706 14.8659C7.14937 15.0136 7.06641 15.2139 7.06641 15.4228C7.06641 15.6316 7.14937 15.8319 7.29706 15.9796C7.44474 16.1273 7.64505 16.2103 7.85391 16.2103H13.5887C13.7975 16.2103 13.9978 16.1273 14.1455 15.9796C14.2932 15.8319 14.3762 15.6316 14.3762 15.4228C14.3762 15.2139 14.2932 15.0136 14.1455 14.8659C13.9978 14.7182 13.7975 14.6353 13.5887 14.6353H7.85391Z" fill="#DBBD09"/>
<path d="M9.89878 25.4624H5.02591C4.70302 25.4619 4.39348 25.3335 4.16517 25.1051C3.93685 24.8768 3.80837 24.5673 3.80791 24.2444V3.7554C3.80791 3.0834 4.35478 2.5374 5.02591 2.5374H22.0674C22.7385 2.5374 23.2854 3.08428 23.2854 3.7554V11.2323C23.2854 11.4411 23.3684 11.6414 23.5161 11.7891C23.6637 11.9368 23.8641 12.0198 24.0729 12.0198C24.2818 12.0198 24.4821 11.9368 24.6298 11.7891C24.7774 11.6414 24.8604 11.4411 24.8604 11.2323V3.7554C24.8597 3.01502 24.5653 2.30514 24.0419 1.78153C23.5185 1.25792 22.8087 0.963329 22.0683 0.962402H5.02591C4.28544 0.963329 3.57557 1.25789 3.05198 1.78148C2.5284 2.30506 2.23384 3.01494 2.23291 3.7554V24.2444C2.23384 24.9849 2.5284 25.6947 3.05198 26.2183C3.57557 26.7419 4.28544 27.0365 5.02591 27.0374H9.89878C10.1076 27.0374 10.3079 26.9544 10.4556 26.8067C10.6033 26.6591 10.6863 26.4588 10.6863 26.2499C10.6863 26.041 10.6033 25.8407 10.4556 25.6931C10.3079 25.5454 10.1076 25.4624 9.89878 25.4624Z" fill="#DBBD09"/>
<path d="M24.9086 14.7998C24.3585 14.2506 23.613 13.9421 22.8357 13.9421C22.0584 13.9421 21.3129 14.2506 20.7628 14.7998L13.5222 22.0404C13.2936 22.2681 13.1419 22.5614 13.0882 22.8795L12.6927 25.2271C12.6516 25.4711 12.6695 25.7214 12.7448 25.9571C12.82 26.1928 12.9506 26.4071 13.1255 26.5821C13.3004 26.7571 13.5147 26.8878 13.7503 26.9632C13.986 27.0386 14.2363 27.0566 14.4803 27.0156L16.8262 26.6193C17.1464 26.5659 17.4378 26.4163 17.6671 26.1861L24.9077 18.9455C25.4568 18.3954 25.7652 17.65 25.7654 16.8728C25.7655 16.0956 25.4574 15.3501 24.9086 14.7998ZM16.5663 25.0661L14.2458 25.4888L14.6352 23.1534L19.8458 17.9428L21.7656 19.8625L16.5663 25.0661ZM23.7947 17.8316L22.8786 18.7486L20.9588 16.8289L21.8758 15.9119C22.1401 15.6476 22.4883 15.5155 22.8357 15.5155C23.1041 15.5153 23.3665 15.5948 23.5897 15.7439C23.813 15.893 23.9869 16.1049 24.0896 16.3529C24.1923 16.6009 24.2191 16.8738 24.1666 17.137C24.1141 17.4003 23.9846 17.642 23.7947 17.8316Z" fill="#DBBD09"/>
</svg>
