<svg width="18" height="18" viewBox="0 0 18 18" fill="none" xmlns="http://www.w3.org/2000/svg">
<path d="M10.8749 9.00099C10.8749 10.0365 10.0354 10.876 8.99986 10.876C7.96434 10.876 7.12488 10.0365 7.12488 9.00099C7.12488 7.96547 7.96434 7.12598 8.99986 7.12598C10.0354 7.12598 10.8749 7.96547 10.8749 9.00099Z" stroke="#0F172A" stroke-width="1.5" stroke-linecap="round" stroke-linejoin="round"/>
<path d="M12 3.75098C13.8595 3.75098 15.1427 4.03913 15.8497 4.25822C16.2567 4.38436 16.5 4.77014 16.5 5.19626V12.5127C16.5 13.349 15.5789 13.9783 14.7572 13.8231C14.0521 13.69 13.133 13.583 12 13.583C8.43683 13.583 7.5822 14.9373 2.3586 13.7854C1.85449 13.6742 1.5 13.2209 1.5 12.7046V5.19185C1.5 4.45995 2.19059 3.92622 2.90848 4.06868C7.64752 5.00907 8.56567 3.75098 12 3.75098Z" stroke="#0F172A" stroke-width="1.5" stroke-linecap="round" stroke-linejoin="round"/>
<path d="M1.5 6.75098C2.9635 6.75098 4.27862 5.55478 4.44676 4.3166M13.8754 4.12598C13.8754 5.65571 15.1991 7.10272 16.5 7.10272M16.5 11.251C15.0757 11.251 13.6951 12.2336 13.5765 13.5747M4.50037 13.8731C4.50037 12.2162 3.15722 10.8731 1.50037 10.8731" stroke="#0F172A" stroke-width="1.5" stroke-linecap="round" stroke-linejoin="round"/>
</svg>
