<svg width="46" height="46" viewBox="0 0 46 46" fill="none" xmlns="http://www.w3.org/2000/svg">
<rect width="46" height="46" rx="23" fill="white"/>
<path d="M26.5 29C26.5 30.933 24.933 32.5 23 32.5C21.067 32.5 19.5 30.933 19.5 29" stroke="#0F172A" stroke-width="1.5" stroke-linecap="round" stroke-linejoin="round"/>
<path d="M30.2311 29H15.7689C14.7919 29 14 28.208 14 27.2311C14 26.762 14.1864 26.3121 14.5181 25.9803L15.1213 25.3771C15.6839 24.8145 16 24.0514 16 23.2558V20.5C16 16.634 19.134 13.5 23 13.5C26.866 13.5 30 16.634 30 20.5V23.2558C30 24.0514 30.3161 24.8145 30.8787 25.3771L31.4819 25.9803C31.8136 26.3121 32 26.762 32 27.2311C32 28.208 31.208 29 30.2311 29Z" stroke="#0F172A" stroke-width="1.5" stroke-linecap="round" stroke-linejoin="round"/>
</svg>
