<svg width="42" height="42" viewBox="0 0 42 42" fill="none" xmlns="http://www.w3.org/2000/svg">
<rect width="42" height="42" rx="12" fill="#EEF2FF"/>
<path d="M29.5001 19.9587H24.5001C24.1134 19.9582 23.7428 19.8044 23.4694 19.531C23.196 19.2576 23.0422 18.887 23.0417 18.5003V13.5003C23.0422 13.1137 23.196 12.743 23.4694 12.4696C23.7428 12.1962 24.1134 12.0424 24.5001 12.042H29.5001C29.8867 12.0424 30.2574 12.1962 30.5308 12.4696C30.8042 12.743 30.958 13.1137 30.9584 13.5003V18.5003C30.958 18.887 30.8042 19.2576 30.5308 19.531C30.2574 19.8044 29.8867 19.9582 29.5001 19.9587ZM24.5001 13.292C24.4448 13.292 24.3918 13.3139 24.3528 13.353C24.3137 13.3921 24.2917 13.4451 24.2917 13.5003V18.5003C24.2917 18.5556 24.3137 18.6086 24.3528 18.6476C24.3918 18.6867 24.4448 18.7087 24.5001 18.7087H29.5001C29.5553 18.7087 29.6083 18.6867 29.6474 18.6476C29.6865 18.6086 29.7084 18.5556 29.7084 18.5003V13.5003C29.7084 13.4451 29.6865 13.3921 29.6474 13.353C29.6083 13.3139 29.5553 13.292 29.5001 13.292H24.5001ZM27.0001 30.3712C26.8086 30.3715 26.619 30.334 26.4421 30.2607C26.2652 30.1875 26.1045 30.08 25.9692 29.9445L23.0559 27.0312C22.7831 26.7575 22.6298 26.3868 22.6298 26.0003C22.6298 25.6139 22.7831 25.2432 23.0559 24.9695L25.9692 22.0562C26.2428 21.7831 26.6136 21.6297 27.0001 21.6297C27.3866 21.6297 27.7573 21.7831 28.0309 22.0562L30.9442 24.9695C31.2173 25.2431 31.3707 25.6138 31.3707 26.0003C31.3707 26.3869 31.2173 26.7576 30.9442 27.0312L28.0309 29.9445C27.8957 30.08 27.735 30.1875 27.5581 30.2607C27.3812 30.334 27.1915 30.3715 27.0001 30.3712ZM27.0001 22.8787C26.9727 22.8785 26.9455 22.8838 26.9202 22.8943C26.8949 22.9047 26.8719 22.9201 26.8526 22.9395L23.9392 25.8528C23.9198 25.8722 23.9045 25.8952 23.894 25.9205C23.8834 25.9458 23.878 25.9729 23.878 26.0003C23.878 26.0277 23.8834 26.0549 23.894 26.0802C23.9045 26.1055 23.9198 26.1285 23.9392 26.1478L26.8526 29.0612C26.8719 29.0806 26.8949 29.096 26.9202 29.1065C26.9455 29.117 26.9727 29.1224 27.0001 29.1224C27.0275 29.1224 27.0546 29.117 27.0799 29.1065C27.1052 29.096 27.1282 29.0806 27.1476 29.0612L30.0609 26.1478C30.0803 26.1285 30.0957 26.1055 30.1062 26.0802C30.1167 26.0549 30.1221 26.0277 30.1221 26.0003C30.1221 25.9729 30.1167 25.9458 30.1062 25.9205C30.0957 25.8952 30.0803 25.8722 30.0609 25.8528L27.1476 22.9395C27.1283 22.9201 27.1053 22.9047 27.0799 22.8943C27.0546 22.8838 27.0275 22.8785 27.0001 22.8787ZM19.5001 19.9587H14.5001C14.1134 19.9582 13.7428 19.8044 13.4694 19.531C13.196 19.2576 13.0422 18.887 13.0417 18.5003V13.5003C13.0422 13.1137 13.196 12.743 13.4694 12.4696C13.7428 12.1962 14.1134 12.0424 14.5001 12.042H19.5001C19.8867 12.0424 20.2574 12.1962 20.5308 12.4696C20.8042 12.743 20.958 13.1137 20.9584 13.5003V18.5003C20.958 18.887 20.8042 19.2576 20.5308 19.531C20.2574 19.8044 19.8867 19.9582 19.5001 19.9587ZM14.5001 13.292C14.4448 13.292 14.3918 13.3139 14.3528 13.353C14.3137 13.3921 14.2917 13.4451 14.2917 13.5003V18.5003C14.2917 18.5556 14.3137 18.6086 14.3528 18.6476C14.3918 18.6867 14.4448 18.7087 14.5001 18.7087H19.5001C19.5553 18.7087 19.6083 18.6867 19.6474 18.6476C19.6865 18.6086 19.7084 18.5556 19.7084 18.5003V13.5003C19.7084 13.4451 19.6865 13.3921 19.6474 13.353C19.6083 13.3139 19.5553 13.292 19.5001 13.292H14.5001ZM19.5001 29.9587H14.5001C14.1134 29.9582 13.7428 29.8044 13.4694 29.531C13.196 29.2576 13.0422 28.887 13.0417 28.5003V23.5003C13.0422 23.1137 13.196 22.743 13.4694 22.4696C13.7428 22.1962 14.1134 22.0424 14.5001 22.042H19.5001C19.8867 22.0424 20.2574 22.1962 20.5308 22.4696C20.8042 22.743 20.958 23.1137 20.9584 23.5003V28.5003C20.958 28.887 20.8042 29.2576 20.5308 29.531C20.2574 29.8044 19.8867 29.9582 19.5001 29.9587ZM14.5001 23.292C14.4448 23.292 14.3918 23.3139 14.3528 23.353C14.3137 23.3921 14.2917 23.4451 14.2917 23.5003V28.5003C14.2917 28.5556 14.3137 28.6086 14.3528 28.6476C14.3918 28.6867 14.4448 28.7087 14.5001 28.7087H19.5001C19.5553 28.7087 19.6083 28.6867 19.6474 28.6476C19.6865 28.6086 19.7084 28.5556 19.7084 28.5003V23.5003C19.7084 23.4451 19.6865 23.3921 19.6474 23.353C19.6083 23.3139 19.5553 23.292 19.5001 23.292H14.5001Z" fill="#003CFF"/>
</svg>
