<svg width="18" height="20" viewBox="0 0 18 20" fill="none" xmlns="http://www.w3.org/2000/svg">
<path d="M16.95 19.5742C14.8667 19.5742 12.8083 19.1201 10.775 18.2117C8.74167 17.3034 6.89167 16.0159 5.225 14.3492C3.55833 12.6826 2.27083 10.8326 1.3625 8.79922C0.454167 6.76589 0 4.70755 0 2.62422C0 2.32422 0.1 2.07422 0.3 1.87422C0.5 1.67422 0.75 1.57422 1.05 1.57422H5.1C5.33333 1.57422 5.54167 1.65339 5.725 1.81172C5.90833 1.97005 6.01667 2.15755 6.05 2.37422L6.7 5.87422C6.73333 6.14089 6.725 6.36589 6.675 6.54922C6.625 6.73255 6.53333 6.89089 6.4 7.02422L3.975 9.47422C4.30833 10.0909 4.70417 10.6867 5.1625 11.2617C5.62083 11.8367 6.125 12.3909 6.675 12.9242C7.19167 13.4409 7.73333 13.9201 8.3 14.3617C8.86667 14.8034 9.46667 15.2076 10.1 15.5742L12.45 13.2242C12.6 13.0742 12.7958 12.9617 13.0375 12.8867C13.2792 12.8117 13.5167 12.7909 13.75 12.8242L17.2 13.5242C17.4333 13.5909 17.625 13.7117 17.775 13.8867C17.925 14.0617 18 14.2576 18 14.4742V18.5242C18 18.8242 17.9 19.0742 17.7 19.2742C17.5 19.4742 17.25 19.5742 16.95 19.5742ZM3.025 7.57422L4.675 5.92422L4.25 3.57422H2.025C2.10833 4.25755 2.225 4.93255 2.375 5.59922C2.525 6.26589 2.74167 6.92422 3.025 7.57422ZM11.975 16.5242C12.625 16.8076 13.2875 17.0326 13.9625 17.1992C14.6375 17.3659 15.3167 17.4742 16 17.5242V15.3242L13.65 14.8492L11.975 16.5242Z" fill="#94A3B8"/>
</svg>
