<svg width="24" height="24" viewBox="0 0 24 24" fill="none" xmlns="http://www.w3.org/2000/svg">
<rect width="24" height="24" rx="12" fill="#DBEAFE"/>
<path d="M12.0074 17.8334C11.2053 17.8334 10.4494 17.6803 9.73966 17.374C9.02994 17.0678 8.41015 16.6497 7.88029 16.1199C7.35043 15.59 6.93237 14.9702 6.62612 14.2605C6.31987 13.5508 6.16675 12.7949 6.16675 11.9928C6.16675 11.1907 6.31987 10.4372 6.62612 9.73237C6.93237 9.02751 7.35043 8.41015 7.88029 7.88029C8.41015 7.35043 9.02994 6.93237 9.73966 6.62612C10.4494 6.31987 11.2053 6.16675 12.0074 6.16675C12.8095 6.16675 13.5629 6.31987 14.2678 6.62612C14.9727 6.93237 15.59 7.35043 16.1199 7.88029C16.6497 8.41015 17.0678 9.02751 17.374 9.73237C17.6803 10.4372 17.8334 11.1907 17.8334 11.9928C17.8334 12.7949 17.6803 13.5508 17.374 14.2605C17.0678 14.9702 16.6497 15.59 16.1199 16.1199C15.59 16.6497 14.9727 17.0678 14.2678 17.374C13.5629 17.6803 12.8095 17.8334 12.0074 17.8334ZM12.0001 15.5001C12.9723 15.5001 13.7987 15.1598 14.4792 14.4792C15.1598 13.7987 15.5001 12.9723 15.5001 12.0001C15.5001 11.0279 15.1598 10.2015 14.4792 9.52091C13.7987 8.84036 12.9723 8.50008 12.0001 8.50008C11.0279 8.50008 10.2015 8.84036 9.52091 9.52091C8.84036 10.2015 8.50008 11.0279 8.50008 12.0001C8.50008 12.9723 8.84036 13.7987 9.52091 14.4792C10.2015 15.1598 11.0279 15.5001 12.0001 15.5001Z" fill="#1F3555"/>
</svg>
