<svg width="36" height="36" viewBox="0 0 36 36" fill="none" xmlns="http://www.w3.org/2000/svg">
<rect width="36" height="36" rx="12" fill="#E2E8F0"/>
<path d="M12 27C11.45 27 10.9792 26.8042 10.5875 26.4125C10.1958 26.0208 10 25.55 10 25V15C10 14.45 10.1958 13.9792 10.5875 13.5875C10.9792 13.1958 11.45 13 12 13H13V11C13 9.61667 13.4875 8.4375 14.4625 7.4625C15.4375 6.4875 16.6167 6 18 6C19.3833 6 20.5625 6.4875 21.5375 7.4625C22.5125 8.4375 23 9.61667 23 11V13H24C24.55 13 25.0208 13.1958 25.4125 13.5875C25.8042 13.9792 26 14.45 26 15V25C26 25.55 25.8042 26.0208 25.4125 26.4125C25.0208 26.8042 24.55 27 24 27H12ZM12 25H24V15H12V25ZM18 22C18.55 22 19.0208 21.8042 19.4125 21.4125C19.8042 21.0208 20 20.55 20 20C20 19.45 19.8042 18.9792 19.4125 18.5875C19.0208 18.1958 18.55 18 18 18C17.45 18 16.9792 18.1958 16.5875 18.5875C16.1958 18.9792 16 19.45 16 20C16 20.55 16.1958 21.0208 16.5875 21.4125C16.9792 21.8042 17.45 22 18 22ZM15 13H21V11C21 10.1667 20.7083 9.45833 20.125 8.875C19.5417 8.29167 18.8333 8 18 8C17.1667 8 16.4583 8.29167 15.875 8.875C15.2917 9.45833 15 10.1667 15 11V13ZM12 25V15V25Z" fill="#1F3555"/>
</svg>
