<svg width="18" height="22" viewBox="0 0 18 22" fill="none" xmlns="http://www.w3.org/2000/svg">
<path d="M13.9616 1.38648C13.2346 2.16426 12.6259 2.92513 12.6259 3.07731C12.6259 3.50001 12.9471 3.61837 13.2853 3.31402C13.4544 3.16185 13.6404 3.04349 13.708 3.04349C13.9109 3.04349 15.3312 4.24398 15.3312 4.42997C15.3312 4.56524 9.10895 13.6788 8.72006 14.1015C8.65242 14.186 8.12827 13.8986 7.53648 13.459C6.72488 12.8503 6.45435 12.715 6.26836 12.8672C5.89637 13.1716 5.96401 13.2899 6.9616 14.0677C7.46884 14.4566 7.89155 14.8286 7.89155 14.8962C7.89155 14.9807 5.06787 17.1619 4.94951 17.1619C4.7297 17.1619 3.4954 16.1136 3.4954 15.9276C3.4954 15.8092 3.83356 15.0146 4.23936 14.1353C4.9326 12.6474 5.00024 12.5629 5.42294 12.6305C5.77802 12.6981 5.86256 12.6474 5.86256 12.3938C5.86256 12.2247 5.77802 11.988 5.69348 11.9034C5.55821 11.7682 6.5558 10.6015 8.93986 8.03143C10.8336 6.00244 12.3892 4.21016 12.423 4.04108C12.4568 3.82127 12.3722 3.71982 12.1355 3.71982C11.9157 3.71982 10.5462 5.07248 8.11136 7.67636L5.90103 10.0489C4.92404 11.0976 4.12823 12.3014 3.54612 13.6112C3.05578 14.6933 2.64998 15.6909 2.64998 15.8092C2.64998 15.9276 2.278 16.2658 1.82148 16.5532C1.38186 16.8406 0.891523 17.2126 0.739348 17.3817C0.468816 17.6861 -0.139882 21.1861 0.0292007 21.4735C0.0799255 21.5581 0.265917 21.6426 0.434999 21.6426C0.671715 21.6426 2.6838 20.8986 3.95192 20.3407C4.07028 20.3068 4.35772 19.732 4.61134 19.0895C4.86497 18.4469 5.15241 17.9228 5.23695 17.9228C5.32149 17.9228 6.20072 17.331 7.1645 16.6208C8.32921 15.7473 9.34576 14.692 10.1752 13.4955L13.2008 9.13047C15.551 5.73191 17.5631 2.78987 17.6814 2.58697C18.0365 1.89373 17.9182 1.0314 17.3771 0.490339C16.9713 0.0845413 16.7346 0 16.0921 0C15.3143 0 15.2636 0.0338173 13.9616 1.38648ZM16.7684 1.09904C17.2587 1.57247 17.2756 1.67392 16.9544 2.11353C16.7515 2.40098 16.7008 2.40097 16.0244 1.85991C15.6525 1.55556 15.3312 1.25121 15.3312 1.18358C15.3312 1.06522 15.9737 0.710148 16.2273 0.693239C16.295 0.676331 16.5486 0.862322 16.7684 1.09904ZM16.1428 3.43238C16.0075 3.70291 15.9061 3.6691 15.1452 3.02658C14.4858 2.46861 14.3505 2.28262 14.5027 2.09663C14.6549 1.91063 14.8409 1.97827 15.5003 2.50242C16.1597 3.00967 16.2781 3.17876 16.1428 3.43238ZM3.73211 17.3479L4.20555 17.7706L3.88429 18.6498C3.61376 19.3938 3.44467 19.5798 2.80216 19.901C1.8722 20.3745 1.75385 20.3745 2.00747 19.9518C2.12583 19.7658 2.36254 19.6136 2.54853 19.6136C3.36013 19.6136 3.78284 18.5315 3.20796 17.889C2.61617 17.2295 1.34805 17.8382 1.51713 18.7006C1.56785 18.9542 1.4664 19.2754 1.28041 19.4952L0.959156 19.8672L1.06061 19.2754C1.2466 18.058 1.31423 17.9228 2.02438 17.4324C2.8867 16.8068 3.10651 16.8068 3.73211 17.3479Z" fill="#1F3555"/>
<path d="M7.75672 16.8068C7.35737 17.1846 7.13111 17.7101 7.13111 18.2598V18.8358C7.58634 20.8099 7.1142 20.4759 5.66009 20.7296C5.18666 20.8141 5.01758 20.9156 5.01758 21.1523C5.01758 21.3383 5.11903 21.4735 5.23739 21.4904C5.77845 21.5412 6.50551 21.4228 7.08039 21.1861C7.52 21.0001 7.79054 20.9832 7.94271 21.1016C8.04416 21.1861 8.48378 21.3552 8.88957 21.4735C9.49827 21.6257 9.93789 21.6088 11.3075 21.3721C12.7447 21.1185 13.1674 21.1016 14.334 21.2875C15.0611 21.4059 15.7543 21.4397 15.8389 21.389C16.2278 21.1523 15.9741 20.7972 15.2978 20.6112C14.4017 20.3745 11.7302 20.3745 10.9355 20.6112C10.1915 20.8479 9.39682 20.8479 8.80503 20.6281L8.34851 20.4421L8.70358 20.0701C9.29537 19.4276 9.92098 18.075 9.92098 17.3986C9.92098 16.1305 8.83885 15.8262 7.75672 16.8068ZM9.12629 17.1788C9.26156 17.3141 8.92339 18.2441 8.43305 19.0218L8.01034 19.6982L7.85817 19.1909C7.58764 18.1933 8.56832 16.6209 9.12629 17.1788Z" fill="#1F3555"/>
</svg>
