<svg width="32" height="32" viewBox="0 0 32 32" fill="none" xmlns="http://www.w3.org/2000/svg">
<rect width="32" height="32" rx="8" fill="#FFFBEB"/>
<path d="M13.675 16.7L14.55 13.85L12.25 12H15.1L16 9.2L16.9 12H19.75L17.425 13.85L18.3 16.7L16 14.925L13.675 16.7ZM10 26V18.275C9.36667 17.575 8.875 16.775 8.525 15.875C8.175 14.975 8 14.0167 8 13C8 10.7667 8.775 8.875 10.325 7.325C11.875 5.775 13.7667 5 16 5C18.2333 5 20.125 5.775 21.675 7.325C23.225 8.875 24 10.7667 24 13C24 14.0167 23.825 14.975 23.475 15.875C23.125 16.775 22.6333 17.575 22 18.275V26L16 24L10 26ZM16 19C17.6667 19 19.0833 18.4167 20.25 17.25C21.4167 16.0833 22 14.6667 22 13C22 11.3333 21.4167 9.91667 20.25 8.75C19.0833 7.58333 17.6667 7 16 7C14.3333 7 12.9167 7.58333 11.75 8.75C10.5833 9.91667 10 11.3333 10 13C10 14.6667 10.5833 16.0833 11.75 17.25C12.9167 18.4167 14.3333 19 16 19ZM12 23.025L16 22L20 23.025V19.925C19.4167 20.2583 18.7875 20.5208 18.1125 20.7125C17.4375 20.9042 16.7333 21 16 21C15.2667 21 14.5625 20.9042 13.8875 20.7125C13.2125 20.5208 12.5833 20.2583 12 19.925V23.025Z" fill="#D97706"/>
</svg>
