<svg width="44" height="42" viewBox="0 0 44 42" fill="none" xmlns="http://www.w3.org/2000/svg">
<rect width="44" height="42" rx="12" fill="#ECFDF5"/>
<path d="M13.375 19.75H11.875C11.7755 19.75 11.6802 19.7895 11.6098 19.8598C11.5395 19.9302 11.5 20.0255 11.5 20.125V21.625C11.5 21.7245 11.5395 21.8198 11.6098 21.8902C11.6802 21.9605 11.7755 22 11.875 22C11.9745 22 12.0698 21.9605 12.1402 21.8902C12.2105 21.8198 12.25 21.7245 12.25 21.625V20.5H13V21.625C13 21.7245 13.0395 21.8198 13.1098 21.8902C13.1802 21.9605 13.2755 22 13.375 22C13.4745 22 13.5698 21.9605 13.6402 21.8902C13.7105 21.8198 13.75 21.7245 13.75 21.625V20.125C13.75 20.0255 13.7105 19.9302 13.6402 19.8598C13.5698 19.7895 13.4745 19.75 13.375 19.75ZM31.375 21.625C31.1525 21.625 30.935 21.691 30.75 21.8146C30.565 21.9382 30.4208 22.1139 30.3356 22.3195C30.2505 22.525 30.2282 22.7512 30.2716 22.9695C30.315 23.1877 30.4222 23.3882 30.5795 23.5455C30.7368 23.7028 30.9373 23.81 31.1555 23.8534C31.3738 23.8968 31.6 23.8745 31.8055 23.7894C32.0111 23.7042 32.1868 23.56 32.3104 23.375C32.434 23.19 32.5 22.9725 32.5 22.75C32.5 22.4516 32.3815 22.1655 32.1705 21.9545C31.9595 21.7435 31.6734 21.625 31.375 21.625ZM31.375 23.125C31.3008 23.125 31.2283 23.103 31.1667 23.0618C31.105 23.0206 31.0569 22.962 31.0285 22.8935C31.0002 22.825 30.9927 22.7496 31.0072 22.6768C31.0217 22.6041 31.0574 22.5373 31.1098 22.4848C31.1623 22.4324 31.2291 22.3967 31.3018 22.3822C31.3746 22.3677 31.45 22.3752 31.5185 22.4035C31.587 22.4319 31.6456 22.48 31.6868 22.5417C31.728 22.6033 31.75 22.6758 31.75 22.75C31.75 22.8495 31.7105 22.9448 31.6402 23.0152C31.5698 23.0855 31.4745 23.125 31.375 23.125Z" fill="#00A658"/>
<path d="M32.125 15.9997H30.625C30.2841 16.0002 29.9502 16.0964 29.6613 16.2772L17.8337 9.45218C17.7481 9.40297 17.6465 9.38955 17.551 9.41483C17.4555 9.44011 17.3738 9.50204 17.3238 9.58718L16.1988 11.5372C16.1495 11.6228 16.1361 11.7244 16.1614 11.8199C16.1867 11.9154 16.2486 11.9971 16.3337 12.0472L28.75 19.2172V26.8747H15.25V18.6247C15.25 18.5252 15.2105 18.4298 15.1402 18.3595C15.0698 18.2892 14.9745 18.2497 14.875 18.2497H10.375C10.2755 18.2497 10.1802 18.2892 10.1098 18.3595C10.0395 18.4298 10 18.5252 10 18.6247V28.7497C10 28.8491 10.0395 28.9445 10.1098 29.0148C10.1802 29.0852 10.2755 29.1247 10.375 29.1247H33.625C33.7245 29.1247 33.8198 29.0852 33.8902 29.0148C33.9605 28.9445 34 28.8491 34 28.7497V17.8747C34 17.3774 33.8025 16.9005 33.4508 16.5489C33.0992 16.1972 32.6223 15.9997 32.125 15.9997ZM17.035 11.5859L17.785 10.2884L19.45 11.2484L17.8337 12.0472L17.035 11.5859ZM18.625 12.5009L20.2413 11.6984L21.7413 12.5609L20.125 13.3747L18.625 12.5009ZM20.875 13.8134L22.5062 12.9997L24.0062 13.8622L22.375 14.6722L20.875 13.8134ZM23.1475 15.1259L24.7638 14.3234L26.2638 15.1859L24.655 15.9997L23.1475 15.1259ZM25.42 16.4384L27.0513 15.6247L28.5513 16.4872L26.935 17.2859L25.42 16.4384ZM27.6962 17.7509L29.3088 16.9484L30.8088 17.8109L29.2038 18.6247L27.6962 17.7509ZM31.6 18.2497L31.75 18.3397C31.8396 18.3866 31.9188 18.4511 31.9829 18.5294C32.0469 18.6077 32.0945 18.6981 32.1227 18.7953C32.1508 18.8924 32.1591 18.9943 32.1469 19.0947C32.1347 19.1951 32.1023 19.292 32.0517 19.3796C32.0011 19.4671 31.9333 19.5436 31.8523 19.6043C31.7714 19.665 31.679 19.7086 31.5808 19.7327C31.4825 19.7568 31.3804 19.7607 31.2806 19.7443C31.1808 19.7279 31.0854 19.6914 31 19.6372L29.9837 19.0522L31.6 18.2497ZM10.75 18.9997H14.5V26.8747H10.75V18.9997ZM33.25 28.3747H10.75V27.6247H33.25V28.3747ZM33.25 26.8747H29.5V19.6484L30.625 20.2972C30.9678 20.4765 31.3667 20.5164 31.7382 20.4087C32.1098 20.3009 32.4253 20.0537 32.6189 19.7187C32.8126 19.3838 32.8693 18.987 32.7772 18.6112C32.6852 18.2354 32.4515 17.9097 32.125 17.7022L30.5012 16.7497H32.125C32.4234 16.7497 32.7095 16.8682 32.9205 17.0792C33.1315 17.2902 33.25 17.5763 33.25 17.8747V26.8747Z" fill="#00A658"/>
</svg>
