<svg width="39" height="40" viewBox="0 0 39 40" fill="none" xmlns="http://www.w3.org/2000/svg">
<rect width="38.2" height="40" rx="8" fill="#FEF3C7"/>
<path d="M19.1001 29C18.5501 29 18.0793 28.8042 17.6876 28.4125C17.2959 28.0208 17.1001 27.55 17.1001 27C17.1001 26.45 17.2959 25.9792 17.6876 25.5875C18.0793 25.1958 18.5501 25 19.1001 25C19.6501 25 20.1209 25.1958 20.5126 25.5875C20.9043 25.9792 21.1001 26.45 21.1001 27C21.1001 27.55 20.9043 28.0208 20.5126 28.4125C20.1209 28.8042 19.6501 29 19.1001 29ZM17.1001 23V11H21.1001V23H17.1001Z" fill="#D97706"/>
</svg>
