<svg width="20" height="20" viewBox="0 0 20 20" fill="none" xmlns="http://www.w3.org/2000/svg">
<path d="M10 7.5C11.3807 7.5 12.5 6.38071 12.5 5C12.5 3.61929 11.3807 2.5 10 2.5C8.61925 2.5 7.5 3.61929 7.5 5C7.5 6.38071 8.61925 7.5 10 7.5Z" stroke="#0F172A" stroke-width="1.5" stroke-linecap="round" stroke-linejoin="round"/>
<path d="M12.559 7.5H7.44104C6.29869 7.5 5.72752 7.5 5.29751 7.8146C4.8675 8.12919 4.68688 8.67925 4.32564 9.77925L3.231 13.1126C2.57353 15.1147 2.2448 16.1157 2.73628 16.8078C3.22776 17.5 4.2673 17.5 6.3464 17.5H13.6536C15.7327 17.5 16.7723 17.5 17.2638 16.8078C17.7552 16.1157 17.4265 15.1147 16.769 13.1126L15.6743 9.77925C15.3131 8.67925 15.1325 8.12919 14.7025 7.8146C14.2725 7.5 13.7013 7.5 12.559 7.5Z" stroke="#0F172A" stroke-width="1.5" stroke-linecap="round" stroke-linejoin="round"/>
</svg>
